<?xml version="1.0" standalone="no"?>
<!DOCTYPE svg PUBLIC "-//W3C//DTD SVG 1.1//EN" "http://www.w3.org/Graphics/SVG/1.1/DTD/svg11.dtd" >
<svg>
<metadata>
Created by FontForge 20120731 at Thu May 25 03:10:47 2017
 By convertio
claudeserieux@gmail.com
Claude P.
</metadata>
<defs>
<font id="AeroliteCPone" horiz-adv-x="518" >
  <font-face 
    font-family="AeroliteCPone"
    font-weight="500"
    font-stretch="normal"
    units-per-em="1000"
    panose-1="2 0 6 3 0 0 0 0 0 0"
    ascent="790"
    descent="-210"
    x-height="319"
    cap-height="629"
    bbox="-372 -281 1467 793"
    underline-thickness="50"
    underline-position="-100"
    stemh="30"
    stemv="74"
    unicode-range="U+0020-0153"
  />
<missing-glyph horiz-adv-x="500" 
d="M50 0v526h400v-526h-400zM100 50h300v426h-300v-426z" />
    <glyph glyph-name=".notdef" horiz-adv-x="500" 
d="M50 0v526h400v-526h-400zM100 50h300v426h-300v-426z" />
    <glyph glyph-name="space" unicode=" " horiz-adv-x="382" 
 />
    <glyph glyph-name="exclam" unicode="!" horiz-adv-x="345" 
d="M93 76c20 0 35 -16 35 -37c0 -26 -24 -49 -53 -49c-20 0 -32 13 -32 34c0 27 24 52 50 52zM144 116l-12 6c33 48 74 101 105 155c8 15 54 96 103 153c28 33 57 56 81 56c16 0 29 -11 29 -26c0 -23 -21 -56 -51 -90c-53 -59 -130 -122 -150 -139
c-27 -23 -71 -77 -105 -115z" />
    <glyph glyph-name="quotedbl" unicode="&#x22;" horiz-adv-x="197" 
d="M409 494c0 -19 -27 -60 -72 -72l-10 8c21 8 37 15 41 28c-21 0 -35 14 -35 33s22 38 41 38s35 -10 35 -35zM312 494c0 -19 -27 -60 -72 -72l-10 8c21 8 37 15 41 28c-21 0 -35 14 -35 33s22 38 41 38s35 -10 35 -35z" />
    <glyph glyph-name="numbersign" unicode="#" horiz-adv-x="487" 
d="M160 215h85l79 119h-85l16 25h85l75 113h27l-76 -113h100l76 113h26l-76 -113h84l-16 -25h-84l-80 -119h85l-16 -24h-84l-78 -117h-26l77 117h-100l-77 -117h-27l78 117h-84zM270 215h101l79 119h-100z" />
    <glyph glyph-name="dollar" unicode="$" horiz-adv-x="212" 
d="M86 247c0 -19 -26 -27 -26 -35c0 -16 16 -26 32 -26c28 0 51 21 51 49c0 30 -31 53 -31 90c0 52 49 87 101 87c6 0 12 -1 18 -3l51 57c2 2 6 2 8 0s2 -6 0 -8l-47 -53c16 -9 26 -25 26 -44c0 -20 -16 -38 -33 -38c-18 0 -23 11 -23 25c0 24 27 29 27 36
c0 9 -15 15 -27 15c-25 0 -52 -14 -52 -39c0 -41 27 -61 27 -102c0 -46 -43 -86 -92 -86c-8 0 -15 1 -22 3l-38 -45c-2 -3 -6 -3 -9 -1s-3 6 -1 9l36 42c-20 9 -35 27 -35 50c0 21 14 40 35 40c13 0 24 -8 24 -23z" />
    <glyph glyph-name="percent" unicode="%" horiz-adv-x="759" 
d="M743 491l-19 -14l-690 -477h-20l576 399c-60 -30 -118 -51 -158 -51c-11 0 -24 1 -35 4c-48 -81 -139 -150 -207 -150c-30 0 -52 10 -52 65c0 100 150 238 257 238c26 0 34 -13 34 -50c0 -30 -10 -62 -26 -92c9 -2 19 -3 29 -3c64 0 191 63 285 127l19 13zM182 210
c25 0 76 46 123 101c17 20 34 41 49 61c-14 11 -23 28 -23 48s4 34 12 49c-42 -32 -96 -87 -134 -139c-28 -38 -48 -73 -48 -97c0 -12 9 -23 21 -23zM388 -8c-30 0 -52 10 -52 65c0 100 150 238 257 238c26 0 34 -13 34 -50c0 -116 -143 -253 -239 -253zM380 0
c25 0 76 46 123 101c55 64 106 139 106 173c0 8 -8 13 -16 13c-32 0 -127 -87 -186 -167c-28 -38 -48 -73 -48 -97c0 -12 9 -23 21 -23zM361 382c29 42 50 80 50 102c0 8 -8 13 -16 13c-7 0 -15 -4 -26 -10c-20 -28 -26 -40 -26 -67c0 -15 7 -28 18 -38z" />
    <glyph glyph-name="ampersand" unicode="&#x26;" horiz-adv-x="651" 
d="M274 210c68 96 174 180 174 259c0 21 -12 42 -41 42c-71 0 -208 -111 -208 -216c0 -44 32 -71 75 -85zM696 450c-64 -52 -130 -144 -193 -231c27 5 55 10 88 10c3 0 6 -3 6 -6s-3 -6 -6 -6c-37 0 -67 -5 -98 -12c-79 -109 -154 -207 -213 -207c-43 0 -63 25 -63 66
c0 48 21 92 50 135c-45 16 -80 46 -80 96c0 111 142 228 220 228c43 0 84 -21 84 -96c0 -74 -68 -156 -132 -230c48 0 87 9 126 18c98 136 207 290 305 290c16 0 28 -7 28 -20c0 -21 -24 -34 -42 -34c-23 0 -32 15 -43 15c-16 0 -25 -7 -37 -16zM474 201
c-36 -8 -72 -16 -117 -16h-8c-52 -60 -98 -113 -98 -150c0 -15 14 -25 29 -25c52 0 120 89 194 191z" />
    <glyph glyph-name="quotesingle" unicode="'" horiz-adv-x="197" 
d="M337 494c0 -19 -27 -60 -72 -72l-10 8c21 8 37 15 41 28c-21 0 -35 14 -35 33s22 38 41 38s35 -10 35 -35z" />
    <glyph glyph-name="parenleft" unicode="(" horiz-adv-x="617" 
d="M168 -180c44 290 314 650 686 888l10 -14c-286 -244 -562 -560 -678 -874h-18z" />
    <glyph glyph-name="parenright" unicode=")" horiz-adv-x="609" 
d="M-70 -230l-18 10c277 242 592 666 662 886h20c-41 -312 -397 -700 -664 -896z" />
    <glyph glyph-name="asterisk" unicode="*" horiz-adv-x="321" 
d="M246 606c0 10 8 29 29 29c16 0 25 -11 27 -16l27 -64c2 1 5 1 8 1h2l13 67c3 13 14 23 28 23c16 0 29 -13 29 -29c0 -7 -2 -13 -6 -18l-40 -54c2 -2 3 -6 5 -9l65 24c3 1 6 1 9 1c15 0 29 -12 29 -29c0 -16 -14 -30 -31 -29l-70 8c-1 -3 -2 -6 -4 -9l53 -46
c6 -6 9 -12 9 -20c0 -10 -8 -29 -29 -29c-15 0 -23 10 -26 15l-28 65c-2 -1 -5 -1 -8 -1h-2l-12 -66c-2 -14 -15 -24 -29 -24c-16 0 -29 13 -29 29c0 6 1 11 4 15l42 57c-2 2 -4 5 -5 8l-64 -22c-3 -1 -7 -2 -10 -2c-15 0 -29 12 -29 29c0 14 11 30 32 29l69 -8c1 3 2 6 4 9
l-53 46c-5 5 -9 12 -9 20z" />
    <glyph glyph-name="plus" unicode="+" horiz-adv-x="433" 
d="M216 262h114l103 123h40l-104 -123h114l-25 -30h-114l-103 -124h-40l104 124h-114z" />
    <glyph glyph-name="comma" unicode="," horiz-adv-x="200" 
d="M118 35c0 -19 -27 -60 -72 -72l-10 8c21 8 37 15 41 28c-21 0 -35 14 -35 33s22 38 41 38s35 -10 35 -35z" />
    <glyph glyph-name="hyphen" unicode="-" horiz-adv-x="433" 
d="M483 262l-25 -30h-267l25 30h267z" />
    <glyph glyph-name="period" unicode="." horiz-adv-x="203" 
d="M88 77c17 0 33 -12 33 -29c0 -29 -28 -53 -51 -53c-19 0 -34 15 -34 34c0 28 32.9736 48 52 48z" />
    <glyph glyph-name="slash" unicode="/" horiz-adv-x="413" 
d="M5 0l581 510c2 2 7 1 9 -1s1 -7 -1 -9l-569 -500h-20z" />
    <glyph glyph-name="zero" unicode="0" 
d="M90 14c41 0 126 76 205 167c92 106 177 233 177 289c0 13 -12 22 -26 22c-53 0 -213 -145 -311 -278c-46 -63 -79 -123 -79 -163c0 -20 14 -37 34 -37zM104 0c-50 0 -87 18 -87 109c0 167 251 396 429 396c44 0 57 -21 57 -83c0 -194 -239 -422 -399 -422z" />
    <glyph glyph-name="one" unicode="1" 
d="M41 0c72 128 230 295 370 436l-193 -136l-10 9s235 173 252 173c5 0 9 -4 9 -9c0 -9 -228 -284 -351 -473h-77z" />
    <glyph glyph-name="two" unicode="2" horiz-adv-x="521" 
d="M60 75h49c42 0 67 -10 87 -21c21 -11 37 -22 63 -22c46 0 91 76 91 76c3.5 5 10 8 14 8s7.5 -3 5 -8c-22 -31 -81 -114 -139 -114c-44 0 -83 18 -137 18c-50 0 -127 -8 -127 -8c19 27 54 69 98 99c47 32 118 60 225 96c69 23 197 146 197 225c0 35 -28 68 -66 68
c-101 0 -195 -100 -195 -167c0 -24 16 -42 40 -42c63 0 119 90 133 121c1 3 5 3 8 2s3 -5 2 -8c0 0 -59 -127 -143 -127c-30 0 -55 24 -55 54c0 75 104 179 210 179c61 0 127 -42 127 -116c0 -109 -123 -188 -241 -215c-112 -26 -224 -52 -246 -98z" />
    <glyph glyph-name="three" unicode="3" 
d="M36 130c-13 -13 -22 -32 -22 -52c0 -42 34 -65 83 -65c107 0 220 184 220 208c0 2 0 6 -1 10c-23 -6 -46 -9 -65 -9c-36 0 -45 15 -45 25c0 19 22 31 56 31c23 0 46 -9 64 -23c84 46 144 156 144 192c0 16 -16 46 -72 46c-84 0 -198 -66 -198 -136c0 -19 19 -34 39 -34
c64 0 119 89 129 109c1 3 5 4 8 2s4 -5 2 -8c0 0 -59 -115 -139 -115c-26 0 -51 19 -51 46c0 79 121 148 210 148c60 0 128 -36 128 -102c0 -69 -95 -134 -184 -164c19 -21 32 -48 32 -72c0 -62 -116 -178 -260 -178c-53 0 -116 33 -116 89c0 54.0371 41.9902 110 96 110
c23 0 31 -12 31 -28c0 -22 -29 -39 -55 -39c-15 0 -29 1 -34 9zM310 247c-7 10 -21 19 -48 19c-24 0 -44 -8 -44 -19c0 -8 15 -13 33 -13c20 0 40 5 59 13z" />
    <glyph glyph-name="four" unicode="4" 
d="M276 188c95 111 210 236 270 278h8c-29 -29 -207 -278 -207 -278h73l-12 -12h-69s-114 -162 -123 -176h-93c9 15 69 90 143 176c-98 -1 -189 -6 -256 -25c-4 -2 -7 -3 -10 -4l-7 13c134 65 335 240 430 329h98c-129 -102 -344 -248 -465 -314c64 11 140 13 220 13z" />
    <glyph glyph-name="five" unicode="5" 
d="M308 487c53 0 154 1 240 7c-34 -59 -83 -82 -166 -82h-118l-100 -125c18 10 45 20 75 20c86 0 121 -51 121 -112c0 -66 -114 -196 -257 -196c-52 0 -106 32 -106 85c0 33 23 64 56 64c17 0 32 -11 32 -28c0 -26 -27 -42 -53 -42c-6 0 -14 3 -14 3c0 -45 40 -68 71 -68
c82 0 211 174 211 233c0 20 -11 49 -61 49c-54 0 -102 -42 -102 -42l-10 8z" />
    <glyph glyph-name="six" unicode="6" 
d="M89 15c81.0557 0 240 199.454 240 273c0 23 -21 36 -44 36c-108 0 -233 -222.756 -233 -274c0 -22 20 -35 37 -35zM100 -2c-54 0 -81 43.1406 -81 90.002c0 196.003 269 417 430 417c31 0 56 -25 56 -56c0 -35 -22.9844 -72 -54 -72c-14 0 -26 10 -26 24
c0 21.2549 12.8848 29.9668 27 35.3838c17.0967 6.55957 36 8.28613 36 21.6143c0 18 -16.9688 35 -33 35c-93 0 -199 -141 -225 -167c27 7 39 10 65 10c49 0 88 -41 88 -91c0 -133.004 -165 -247 -283 -247z" />
    <glyph glyph-name="seven" unicode="7" 
d="M-5 0c95 140 257.14 272.75 448 420c-40 -6 -62 -15 -103 -15s-63 7 -104 7c-55 0 -100 -55 -117 -77l-11 5l104 139l13 -3l-18 -24s58 31 106 31c57 0 88 -26 145 -26c30 0 66 7 66 7v-10c-129 -82 -315.668 -297.778 -432 -454h-97z" />
    <glyph glyph-name="eight" unicode="8" 
d="M311 273c96 20 191 65 191 153c0 41 -42 67 -84 67c-73 0 -147 -52 -147 -116c0 -46 20 -76 40 -104zM320 260c16 -23 30 -47 30 -81c0 -111 -118 -185 -223 -185c-63 0 -127 22 -127 98c0 111 105 148 220 167c-10 19 -17 40 -17 63c0 111 113 183 219 183
c53 0 104 -32 104 -85c0 -87 -99 -139 -206 -160zM228 247c-101 -17 -206 -63 -206 -158c0 -58 55 -81 108 -81c79 0 155 51 155 129c0 38 -33 71 -57 110z" />
    <glyph glyph-name="nine" unicode="9" 
d="M262 200c31.9268 0 60 12 85 31c76 58 118 178.859 118 218c0 18 -15 34 -33 34c-94.0049 0 -224 -170.531 -224 -239c0 -26 27 -44 54 -44zM106 0c-44 0 -90 26 -90 70c0 39 24 79 63 79c16 0 29 -14 29 -30c0 -29 -32 -49 -56 -49c-4 0 -9 1 -12 0c-2 -1 -4 -2 -4 -5
c0 -33 35 -52 68 -52c87.0234 0 210 145 240 196c-32 -14 -54 -23 -90 -23c-49 0 -97 32 -97 81c0 133 123.996 235 248 235c64.0703 0 106 -44 106 -101c0 -222 -247 -401 -405 -401z" />
    <glyph glyph-name="colon" unicode=":" horiz-adv-x="203" 
d="M88 77c17 0 33 -12 33 -29c0 -29 -28 -53 -51 -53c-19 0 -34 15 -34 34c0 28 32.9736 48 52 48zM192 252c17 0 33 -12 33 -29c0 -29 -28 -53 -51 -53c-19 0 -34 15 -34 34c0 28 32.9736 48 52 48z" />
    <glyph glyph-name="semicolon" unicode=";" horiz-adv-x="200" 
d="M162 253c17 0 33 -12 33 -29c0 -29 -28 -53 -51 -53c-19 0 -34 15 -34 34c0 28 32.9736 48 52 48zM118 35c0 -19 -27 -60 -72 -72l-10 8c21 8 37 15 41 28c-21 0 -35 14 -35 33s22 38 41 38s35 -10 35 -35z" />
    <glyph glyph-name="equal" unicode="=" horiz-adv-x="433" 
d="M188 228h267l-25 -30h-267zM244 295h267l-25 -30h-267z" />
    <glyph glyph-name="question" unicode="?" horiz-adv-x="345" 
d="M144 89l-12 6c28 44 103 93 184 143c84 52 160 135 160 193c0 38 -33 51 -76 51c-55 0 -112 -33 -112 -48c0 -9 9 -23 9 -38c0 -23 -18 -41 -41 -41c-16 0 -29 13 -29 29c0 53 100 113 185 113c66 0 126 -48 126 -113c0 -67 -85 -129 -163 -163
c-79 -35 -169 -70 -231 -132zM119 76c20 0 35 -16 35 -37c0 -26 -24 -49 -53 -49c-20 0 -32 13 -32 34c0 27 24 52 50 52z" />
    <glyph glyph-name="A" unicode="A" horiz-adv-x="862" 
d="M908 176c-80 -73 -206 -182 -259 -182c-25 0 -39 17 -39 46c1 42 76 153 177 277h-111c-134 -169 -279 -339 -489 -339c-83 0 -161 58 -161 142c0 152 150 271 278 271c69 0 109 -52 109 -113c0 -89 -113 -163 -113 -163c-2 -3 -6 -3 -9 -1s-3 6 -1 9c1 2 111 72 111 155
c0 54 -34 101 -97 101c-122 0 -266 -115 -266 -259c0 -76 72 -130 149 -130c124 0 252 163 396 327h-54c-3 0 -6 3 -6 6s3 6 6 6h64c145 164 306 327 496 327c8 0 21 -1 21 -6c0 -3 -2 -5 -2 -5c-27 -30 -153 -173 -269 -316h51c3 0 6 -3 6 -6s-3 -6 -6 -6h-61
c-104 -128 -196 -253 -196 -289c0 -15 6 -22 18 -22c45 0 169 106 240 170h17zM1091 644c-36 -1 -71 -5 -103 -20c-110 -49 -203 -171 -302 -295h111c90 109 199 227 294 315z" />
    <glyph glyph-name="B" unicode="B" horiz-adv-x="810" 
d="M170 -16c-83 0 -136 59 -136 128c0 128 122 236 231 236c52 0 97 -41 97 -94c0 -50 -50 -109 -54 -114c-2 -3 -6 -3 -9 -1s-3 7 -1 9c8 9 52 64 52 106c0 45 -39 82 -85 82c-102 0 -217 -102 -217 -224c0 -63 45 -111 110 -111c118 0 197 117 298 264
c86 125 216 258 368 322c-19 32 -57 57 -128 57c-18 0 -37 -1 -55 -5c8 -15 13 -33 13 -52c0 -113 -109 -218 -194 -218c-38 0 -73 28 -73 67c0 82 111 179 234 210c-21 26 -56 42 -93 42c-63 0 -135 -56 -158 -80c-2 -2 -6 -2 -8 0s-2 6 0 8s84 84 166 84
c43 0 83 -19 106 -51c21 4 41 7 62 7c67 0 117 -25 148 -61c27 10 55 19 83 24c3 1 6 -2 7 -5s-2 -6 -5 -7c-27 -5 -53 -12 -77 -22c21 -29 32 -65 32 -100c0 -90 -98 -154 -179 -185c34 -28 55 -58 55 -121c0 -79 -122 -182 -239 -182c-60 0 -105 24 -108 90
c-62 -62 -138 -103 -243 -103zM628 636c-120 -28 -229 -123 -229 -200c0 -31 29 -55 61 -55c75 0 182 97 182 206c0 18 -5 35 -14 49zM631 327c22 0 41 -5 58 -15c73 37 151 120 151 210c0 17 -2 36 -10 53c-36 -17 -68 -38 -95 -62c-126 -111 -196 -290 -306 -409
c-2 -5 -2 -10 -2 -14c0 -66 47 -78 79 -78c113 0 207 170 207 229c0 14 -5 37 -23 54c-29 -10 -55 -15 -71 -15c-21 0 -40 7 -40 22c0 21 40 25 52 25zM676 305c-11 6 -26 10 -45 10c-17 0 -34 -5 -39 -10c-1 -1 -1 -2 -1 -3s1 -3 2 -4c4 -4 13 -6 26 -6c17 0 37 4 57 13z
" />
    <glyph glyph-name="C" unicode="C" horiz-adv-x="565" 
d="M333 640c-91 0 -189 -49 -189 -120c0 -72 59 -110 138 -123c149 147 380 266 467 266c25 0 48 -15 48 -37c0 -92 -202 -241 -432 -246c-88 -97 -163 -206 -163 -294c0 -33 39 -76 88 -76c93 0 246 108 246 243c0 38 -33 69 -72 69c-86 0 -153 -72 -185 -127
c-2 -3 -5 -4 -8 -2s-4 5 -2 8c32 55 101 133 195 133c45 0 84 -35 84 -81c0 -142 -159 -257 -258 -257c-87 0 -124 57 -124 172c0 73 38 149 106 219c-79 15 -140 55 -140 133c0 83 110 132 201 132c67 0 165 -47 165 -47c3 -1 3 -5 2 -8s-5 -3 -8 -2
c-38 18 -112 45 -159 45zM376 393c221 10 409 151 409 233c0 15 -18 25 -36 25c-90 0 -241 -116 -373 -258z" />
    <glyph glyph-name="D" unicode="D" horiz-adv-x="758" 
d="M466 614c-124 -37 -230 -135 -230 -239c0 -35 27 -61 62 -61c71 0 198 103 198 220c0 31 -11 59 -30 80zM247 33c40 -13 83 -25 132 -25c200 0 401 260 401 426c0 41 -10 78 -30 108c-162 -73 -223 -212 -325 -337c-66 -81 -125 -137 -178 -172zM741 554
c-37 47 -97 75 -174 75c-30 0 -59 -5 -88 -12c19 -23 29 -52 29 -83c0 -123 -132 -232 -210 -232c-41 0 -74 32 -74 73c0 110 107 209 232 248c-19 16 -42 26 -69 26c-72 0 -146 -62 -159 -75c-2 -2 -6 -2 -8 0s-2 6 0 8s84 79 167 79c33 0 62 -13 83 -34c32 9 65 14 97 14
c79 0 145 -32 185 -83c29 12 59 22 88 28c3 1 6 -2 7 -5s-2 -6 -5 -7c-30 -7 -57 -16 -82 -27c23 -34 36 -75 36 -120c0 -195 -190 -433 -417 -433c-55 0 -102 15 -146 30c-49 -30 -92 -42 -132 -42c-25 0 -63 11 -63 39c0 32 31 48 60 48c38 0 73 -11 110 -23
c27 25 51 57 69 85c42 65 178 237 242 288c65 52 143 102 222 135zM197 37c-33 11 -66 20 -99 20c-25 0 -48 -14 -48 -36c0 -14 23 -27 51 -27c33 0 66 18 96 43z" />
    <glyph glyph-name="E" unicode="E" horiz-adv-x="565" 
d="M459 345c-44 0 -77 10 -100 29c-154 -52 -258 -194 -258 -285c0 -18 11 -46 33 -67c18 -17 44 -30 79 -30c140 0 273 147 273 237c0 41 -34 73 -75 73c-112 0 -200 -69 -226 -175c-1 -3 -4 -6 -7 -5s-6 4 -5 7c28 112 120 185 238 185c47 0 87 -38 87 -85
c0 -96 -137 -249 -285 -249c-92 0 -148 69 -148 180c0 144 135 210 278 231c-11 15 -17 34 -18 55c-93 10 -181 57 -181 136c0 80 92 108 166 108c68 0 136 -31 136 -31c3 -1 4 -4 3 -7s-4 -4 -7 -3c-18 8 -79 29 -132 29c-74 0 -154 -28 -154 -96c0 -71 83 -114 169 -124
c8 115 204 207 364 207c22 0 43 -16 43 -39c0 -91 -207 -182 -368 -182h-3c-4 -9 -6 -18 -6 -26s2 -17 7 -25c32 4 65 6 96 6c24 0 60 -6 60 -30c0 -19 -34 -24 -59 -24zM506 369c0 11 -21 18 -48 18c-28 0 -62 -3 -83 -8c16 -13 42 -22 84 -22c20 0 47 4 47 12zM367 456
c152 1 353 87 353 170c0 15 -16 27 -32 27c-22 0 -44 -1 -66 -7c-100 -26 -218 -121 -255 -190z" />
    <glyph glyph-name="F" unicode="F" horiz-adv-x="655" 
d="M856 575c14 -4 26 -7 36 -7c63 0 116 23 116 42c0 8 -9 12 -21 12c-42 0 -84 -21 -131 -47zM803 559c-83 11 -159 33 -231 46c0 -3 1 -7 1 -11c0 -113 -99 -195 -211 -195c-48 0 -94 35 -94 72c0 106 146 162 278 172c-18 27 -50 45 -86 45c-78 0 -153 -43 -195 -83
c-2 -2 -6 -2 -8 0s-2 6 0 8c44 42 122 87 203 87c42 0 81 -22 100 -56c10 1 20 1 30 1c92 0 182 -42 246 -64c52 32 107 53 151 53c20 0 33 -10 33 -24c0 -34 -79 -57 -130 -57c-22 0 -44 1 -65 3c-68 -45 -137 -140 -180 -232h85c3 0 6 -3 6 -6s-3 -6 -6 -6h-90
c-87 -186 -226 -335 -442 -335c-92 0 -180 46 -180 153c0 136 136 234 276 234c77 0 126 -48 126 -114c0 -99 -108 -186 -177 -186c-3 0 -6 3 -6 6s3 6 6 6c63 0 160 79 160 172c0 61 -41 104 -109 104c-135 0 -258 -94 -258 -222c0 -95 74 -137 159 -137
c117 0 247 152 357 319h-70c-3 0 -6 3 -6 6s3 6 6 6h78c54 79 149 170 243 235zM560 607c-27 4 -54 7 -80 7c-39 0 -196 -39 -196 -143c0 -33 36 -60 78 -60c106 0 199 78 199 183c0 4 0 9 -1 13z" />
    <glyph glyph-name="G" unicode="G" horiz-adv-x="646" 
d="M767 489c0 -14 -37 -52 -89 -85c-63 -145 -81 -247 -151 -317s-184 -109 -276 -109c-110 0 -208 49 -208 176c0 129 127 210 254 210c82 0 146 -43 146 -116c0 -93 -108 -149 -179 -149c-49 0 -79 19 -80 19c-3 2 -4 5 -2 8s5 4 8 2c12 -8 43 -17 74 -17
c69 0 167 54 167 137c0 65 -57 104 -134 104c-123 0 -242 -77 -242 -198c0 -119 93 -159 176 -159c170 0 308 234 407 385c-41 -21 -86 -37 -127 -37c-45 0 -81 18 -97 52c-31 -6 -62 -10 -92 -10c-56 0 -113 40 -113 81c0 3 3 6 6 6s6 -3 6 -6c0 -35 55 -69 101 -69
c29 0 58 3 88 9c-3 9 -4 20 -4 31c0 111 149 234 297 234c26 0 55 -10 55 -38c0 -80 -165 -197 -332 -235c14 -29 45 -43 85 -43c46 0 98 21 141 46c41 61 74 104 99 104c10 0 16 -8 16 -16zM422 409c164 37 319 151 319 222c0 18 -17 28 -38 28c-143 0 -285 -119 -285 -222
c0 -10 1 -20 4 -28zM688 425c40 28 67 56 67 65c0 1 -1 3 -4 3c-15 0 -41 -24 -63 -68z" />
    <glyph glyph-name="H" unicode="H" horiz-adv-x="897" 
d="M925 176h18c-79 -73 -203 -182 -267 -182c-26 0 -47 10 -47 46c0 41 74 183 159 276h-145c-90 -184 -270 -339 -448 -339c-80 0 -159 54 -159 136c0 142 115 272 246 272c73 0 108 -48 108 -109c0 -66 -77 -140 -103 -154c-3 -2 -6 -1 -8 2s-1 6 2 8c26 14 97 87 97 144
c0 54 -29 97 -96 97c-123 0 -234 -122 -234 -260c0 -74 71 -120 147 -120c69 0 134 46 192 107c65 68 122 154 169 216h-34c-3 0 -6 3 -6 6s3 6 6 6h43c56 72 116 141 190 201c-91 -41 -223 -89 -325 -89c-72 0 -156 17 -156 87c0 109 169 147 289 147c41 0 104 -13 104 -13
c3 -1 6 -4 5 -7s-4 -6 -7 -5c-20 4 -72 13 -102 13c-127 0 -277 -40 -277 -135c0 -60 78 -75 144 -75c122 0 293 71 375 114c28 20 58 38 91 55c3 2 6 1 8 -2s1 -6 -2 -8c-139 -73 -225 -227 -253 -283h151c133 142 277 268 412 345c1 1 2 1 3 1c2 0 4 -1 5 -3
c1 -1 1 -2 1 -3c0 -2 -1 -4 -3 -5c-133 -76 -243 -192 -368 -335h53c3 0 6 -3 6 -6s-3 -6 -6 -6h-63c-89 -103 -191 -249 -191 -287c0 -14 17 -23 29 -23c47 0 175 106 247 170z" />
    <glyph glyph-name="I" unicode="I" horiz-adv-x="646" 
d="M907 629c4 0 6 -3 6 -6c0 -2 -1 -4 -3 -5c-34 -20 -81 -64 -127 -122c-74 -94 -114 -178 -169 -266c8 -1 17 -2 26 -2c14 0 30 7 36 11c3 2 6 1 8 -2s1 -6 -2 -8c-19 -11 -34 -13 -42 -13c-11 0 -22 1 -33 3c-74 -112 -225 -245 -405 -245c-89 0 -170 65 -170 155
c0 146 157 261 266 261c60 0 118 -40 118 -101c0 -100 -100 -181 -154 -201c-3 -1 -7 1 -8 4s1 7 4 8c54 20 146 97 146 189c0 53 -50 89 -106 89c-103 0 -254 -110 -254 -249c0 -82 75 -139 158 -139c121 0 258 158 341 258c-26 20 -43 48 -43 83c0 138 165 208 280 239
c37 10 85 33 106 46c6 5 9 7 14 10c1.91699 1.15039 5 3 7 3zM551 258c100 120 209 248 290 321c-19 -8 -38 -15 -57 -21c-112 -36 -269 -146 -269 -227c0 -30 14 -55 36 -73z" />
    <glyph glyph-name="J" unicode="J" horiz-adv-x="545" 
d="M310 73c-175 -85 -279 -192 -279 -239c0 -15 12 -27 27 -27c61 0 142 124 252 266zM870 655c3 1 2 1 4 1c4 0 6 -3 6 -7c0 -2 -1 -3 -3 -4c-57 -34 -149 -123 -201 -183c-93 -108 -147 -213 -220 -318c23 7 45 15 69 21c3 1 7 -1 8 -4s-1 -7 -4 -8
c-29 -8 -57 -16 -84 -25c-108 -150 -298 -333 -387 -333c-21 0 -39 18 -39 39c0 60 122 174 307 259l73 94c-63 12 -102 60 -102 118c0 141 173 214 384 279c60 18 124 45 189 71zM408 198c108 137 247 302 418 426c-49 -19 -95 -37 -141 -51c-217 -66 -354 -181 -354 -285
c0 -38 21 -80 77 -90z" />
    <glyph glyph-name="K" unicode="K" horiz-adv-x="831" 
d="M860 176h17c-88 -81 -181 -177 -245 -177c-24 0 -53 12 -53 50c0 96 159 187 159 248c0 8 -3 16 -10 23c-25 -11 -48 -17 -69 -17c-14 0 -33 6 -40 16c-110 -165 -220 -323 -409 -323c-103 0 -174 58 -174 154c0 141 133 250 262 250c59 0 111 -45 111 -105
c0 -84 -51 -136 -111 -182c-3 -2 -7 -2 -9 1s-2 7 1 9c60 46 107 94 107 172c0 52 -46 93 -99 93c-124 0 -244 -105 -244 -238c0 -86 61 -133 135 -133c112 0 242 172 387 337c68 77 138 150 209 210c-86 -47 -184 -89 -274 -89c-55 0 -126 19 -126 80c0 95 120 134 216 134
c43 0 106 -26 106 -26c3 -1 5 -5 4 -8s-5 -5 -8 -4c-24 10 -72 26 -102 26c-96 0 -204 -39 -204 -122c0 -54 70 -68 114 -68c119 0 254 74 356 139c11 8 23 16 34 23c3 2 6 1 8 -2s1 -6 -2 -8c-68 -42 -127 -97 -181 -167c-31 -40 -60 -84 -89 -127c12 4 27 6 36 6
c21 0 42 -6 59 -17c152 71 360 311 416 311c19 0 31 -6 31 -20c0 -20 -21 -31 -41 -31c-12 0 -26 8 -31 8c-10 0 -18 -3 -24 -9c-85 -70 -226 -212 -341 -267c16 -14 27 -33 27 -57c0 -75 -156 -189 -156 -239c0 -12 8 -19 19 -19c57 0 146 89 228 165zM717 328
c-11 6 -25 11 -44 11c-23 0 -45 -7 -45 -12s16 -12 31 -12c18 0 37 5 58 13z" />
    <glyph glyph-name="L" unicode="L" horiz-adv-x="563" 
d="M480 648c-119 0 -251 -42 -251 -146c0 -80 93 -114 179 -114c40 0 79 2 115 7c96 120 248 257 371 257c22 0 40 -18 40 -37c0 -66 -118 -167 -309 -214c-88 -123 -191 -264 -304 -344c80 -43 147 -106 224 -106c31 0 54 10 64 16c3 2 6 1 8 -2s1 -6 -2 -8
c-15 -8 -50 -25 -84 -25c-122 0 -194 53 -259 95c-40 -21 -82 -33 -124 -33s-76 16 -76 42c0 46 62 61 110 61c38 0 74 -10 106 -24c75 73 137 197 224 309c-33 -4 -68 -6 -104 -6c-86 0 -191 34 -191 126c0 116 146 158 263 158c92 0 167 -40 167 -40c3 -2 4 -5 2 -8
s-5 -4 -8 -2c-21 12 -89 38 -161 38zM249 41c-34 20 -67 36 -104 36c-33 0 -59 -14 -59 -41c0 -18 30 -27 62 -27c38 0 71 12 101 32zM636 417c177 47 286 141 286 198c0 15 -16 25 -28 25c-114 0 -170 -98 -258 -223z" />
    <glyph glyph-name="M" unicode="M" horiz-adv-x="1088" 
d="M1285 643c1 0 6 -2 6 -7c0 -1 0 -2 -1 -3c-175 -238 -455 -570 -455 -625c0 -7 5 -18 15 -18c56 1 199 125 267 186h17c-62 -57 -220 -197 -284 -198c-21 0 -31 21 -31 36c0 117 254 381 439 597c-239 -169 -438 -371 -646 -599c-2 -2 -4 -3 -7 -1s-3 5 -2 8
c113 226 255 425 401 616c-140 -51 -246 -205 -356 -354c-133 -181 -239 -312 -422 -312c-113 0 -191 60 -191 160c0 128 117 259 260 259c65 0 124 -40 124 -112c0 -93 -118 -179 -159 -179c-3 0 -6 3 -6 6s3 6 6 6c35 0 147 81 147 167c0 64 -53 100 -112 100
c-137 0 -248 -127 -248 -247c0 -92 74 -134 144 -134c164 0 373 303 592 501c78 70 156 134 235 157c3 1 5 -1 7 -3s2 -5 0 -7c-137 -187 -264 -377 -388 -587c205 223 403 420 645 586c1 1 2 1 3 1z" />
    <glyph glyph-name="N" unicode="N" horiz-adv-x="883" 
d="M1180 592c-13 -8 -29 -22 -49 -39c-121 -106 -353 -365 -495 -561c-2 -3 -5 -2 -8 -1s-4 4 -3 7c58 199 161 411 306 615c-177 -102 -356 -456 -472 -545c-73 -56 -154 -89 -251 -89c-84 0 -174 44 -174 134c0 142 135 257 260 257c64 0 111 -44 111 -113
c0 -93 -102 -157 -164 -157h-1c-3 0 -6 3 -6 6s3 6 6 6h1c58 0 152 61 152 145c0 66 -45 101 -99 101c-119 0 -248 -109 -248 -245c0 -80 87 -117 132 -117c117 0 207 102 306 212c93 103 191 216 294 308c60 53 122 102 185 130c3 1 5 1 7 -1s2 -6 0 -8
c-139 -203 -239 -400 -314 -592c154 196 495 595 593 595c18 0 21 -7.9375 21 -16c0 -13 -19 -38 -41 -38c-15 0 -26 12 -31 12c-7 0 -12 -2 -18 -6z" />
    <glyph glyph-name="O" unicode="O" horiz-adv-x="476" 
d="M79 50c0 -44 14 -62 52 -62c171 0 511 411 511 540c0 19 -15 36 -33 36c-112 0 -289 -201 -362 -298c-2 -3 -6 -3 -9 -1s-3 6 -1 9c61 80 248 302 372 302c26 0 45 -23 45 -48c0 -135 -344 -552 -523 -552c-55 0 -96 51 -96 107c0 266 437 522 583 561c3 1 7 -1 8 -4
s-1 -7 -4 -8c-85 -27 -242 -157 -366 -293c-99 -110 -177 -223 -177 -289z" />
    <glyph glyph-name="P" unicode="P" horiz-adv-x="823" 
d="M689 659c-19 26 -51 40 -86 40c-94 0 -186 -84 -212 -124c-2 -3 -5 -4 -8 -2s-4 5 -2 8c26 39 120 130 222 130c41 0 78 -18 99 -50c16 2 32 3 48 3c74 0 129 -18 165 -49c14 5 28 11 43 15c3 1 7 -1 8 -4s-1 -7 -4 -8c-13 -4 -25 -7 -37 -12c28 -30 42 -71 42 -119
c0 -154 -153 -244 -286 -244c-29 0 -62 10 -83 24c-72 -129 -203 -287 -401 -287c-79 0 -156 54 -156 135c0 138 135 247 250 247c58 0 109 -43 109 -102c0 -79 -76 -142 -117 -160c-3 -1 -6 0 -7 3s0 6 3 7c41 18 109 79 109 150c0 51 -45 90 -97 90
c-109 0 -238 -105 -238 -235c0 -73 74 -122 142 -122c133 0 224 155 351 316c91 116 200 235 355 301c-29 24 -76 42 -151 42c-14 0 -27 -1 -41 -3c7 -14 10 -30 10 -48c0 -78 -110 -208 -224 -208c-34 0 -72 25 -72 58c0 98 135 186 266 208zM696 648
c-129 -20 -261 -106 -261 -197c0 -23 28 -46 60 -46c109 0 212 126 212 196c0 18 -4 34 -11 47zM911 600c-154 -65 -238 -199 -307 -323c18 -12 47 -22 77 -22c127 0 259 132 259 276c0 22 -8 47 -29 69z" />
    <glyph glyph-name="Q" unicode="Q" horiz-adv-x="476" 
d="M79 60c12 6 29 13 46 13c30 0 57 -27 57 -53v-12c180 63 460 413 460 530c0 19 -15 36 -33 36c-112 0 -289 -201 -362 -298c-2 -3 -6 -3 -9 -1s-3 6 -1 9c61 80 248 302 372 302c26 0 45 -23 45 -48c0 -123 -286 -481 -472 -543v-41c0 -12 6 -18 19 -18c16 0 57 27 75 42
c3 2 7 2 9 -1s2 -7 -1 -9c-51 -39 -93 -55 -116 -55c-27 0 -51 14 -51 40c0 9 2 22 3 34c-49 6 -85 54 -85 106c0 266 437 522 583 561c3 1 7 -1 8 -4s-1 -7 -4 -8c-85 -27 -242 -157 -366 -293c-99 -110 -177 -223 -177 -289zM80 46c3 -30 14 -45 41 -48c1 9 2 19 2 26
c0 30 -5 31 -18 31c-11 0 -20 -5 -25 -9z" />
    <glyph glyph-name="R" unicode="R" horiz-adv-x="847" 
d="M876 176h17c-68 -65 -191 -177 -240 -177c-27 0 -40 12 -40 38c0 79 123 168 123 221c0 7 -3 15 -9 21c-20 -4 -41 -6 -61 -6c-22 0 -34 7 -34 18c0 13 23 18 44 18c18 0 38 -6 54 -16c114 29 198 131 198 209c0 24 -7 49 -21 70c-64 -24 -134 -74 -169 -113
c-106 -117 -204 -289 -310 -398c-79 -80 -175 -100 -246 -100c-82 0 -152 54 -152 145c0 139 122 255 251 255c70 0 113 -50 113 -112c0 -76 -61 -144 -97 -168c-3 -2 -6 -1 -8 2s-1 6 2 8c36 24 91 88 91 158c0 55 -37 100 -101 100c-121 0 -239 -110 -239 -243
c0 -85 64 -133 140 -133c61 0 135 49 197 128c59 75 182 242 251 304c60 54 171 141 269 177c-28 33 -79 57 -155 57c-27 0 -54 -2 -79 -6c5 -13 7 -28 7 -43c0 -113 -153 -235 -231 -235c-39 0 -71 23 -71 69c0 93 119 189 278 218c-12 23 -34 39 -69 39
c-88 0 -170 -65 -191 -87c-2 -2 -6 -2 -8 0s-2 6 0 8c0 0 91 91 199 91c41 0 67 -20 81 -48c27 4 55 6 84 6c79 0 137 -23 172 -63c18 5 36 9 52 10c3 0 6 -3 6 -6s-3 -6 -6 -6c-14 -1 -29 -3 -44 -8c20 -28 31 -62 31 -102c0 -79 -96 -166 -211 -194c15 -13 24 -30 24 -50
c0 -58 -124 -164 -124 -207c0 -8 4 -13 12 -13c40 0 160 108 220 164zM712 289c-10 5 -21 8 -36 8c-13 0 -32 -4 -32 -6s6 -6 22 -6s31 1 46 4zM653 631c-159 -28 -271 -123 -271 -207c0 -40 28 -57 59 -57c70 0 219 116 219 223c0 15 -2 28 -7 41z" />
    <glyph glyph-name="S" unicode="S" horiz-adv-x="611" 
d="M813 638c0 10 -6 18 -12 18c-46 0 -133 -105 -161 -197c103 70 173 136 173 179zM597 431c66 137 145 237 204 237c14 0 24 -14 24 -30c0 -51 -82 -123 -190 -196c-10 -45 -22 -142 -47 -208c-48 -128 -163 -256 -357 -256c-114 0 -189 73 -189 172
c0 153 156 280 273 280c70 0 110 -37 126 -92c55 30 108 62 156 93zM587 410c-46 -29 -95 -57 -143 -84c4 -17 6 -35 6 -54c0 -88 -121 -209 -196 -209c-3 0 -6 3 -6 6s3 6 6 6c67 0 184 113 184 197c0 16 -2 32 -5 48c-54 -29 -107 -55 -154 -78c-3 -1 -7 -1 -8 2s-1 7 2 8
c52 25 106 52 158 80c-13 47 -46 86 -116 86c-111 0 -261 -123 -261 -268c0 -93 69 -153 154 -153c97 0 185 73 254 173c50 73 87 159 125 240z" />
    <glyph glyph-name="T" unicode="T" horiz-adv-x="625" 
d="M593 637c-19 28 -52 46 -98 46c-94 0 -172 -77 -192 -103c-2 -3 -6 -3 -9 -1s-3 6 -1 9c1 1 85 107 202 107c52 0 90 -22 111 -56c17 2 34 3 51 3c77 0 140 -21 202 -41c23 14 48 28 74 40c3 1 7 1 8 -2s1 -7 -2 -8c-22 -10 -44 -23 -63 -35c50 -16 101 -29 159 -29
c52 0 93 17 93 17c3 1 6 0 7 -3s0 -6 -3 -7c0 0 -57 -32 -164 -32c-58 0 -106 5 -148 13l-35 -30c-80 -69 -201 -368 -288 -428c-55 -38 -140 -112 -290 -112c-94 0 -171 58 -171 146c0 136 136 240 250 240c65 0 119 -51 119 -116c0 -82 -85 -164 -130 -164c-3 0 -6 3 -6 6
s3 6 6 6c39 0 118 78 118 152c0 59 -48 104 -107 104c-107 0 -238 -98 -238 -228c0 -80 71 -134 159 -134c125 0 221 121 326 263c74 100 151 211 265 299c-65 13 -118 31 -175 37c2 -10 3 -20 3 -30c0 -109 -132 -208 -198 -208c-42 0 -80 27 -80 68c0 110 116 191 245 211
zM611 598c-11 1 -22 1 -33 1c-66 0 -218 -54 -218 -173c0 -34 32 -56 68 -56c58 0 186 93 186 196c0 11 -1 22 -3 32z" />
    <glyph glyph-name="U" unicode="U" horiz-adv-x="651" 
d="M680 176h17c-90.2812 -90.999 -208.529 -177 -260 -177c-21 0 -40 9 -40 41c0 75 116 211 118 213c-132 -127 -279 -253 -338 -253c-42 0 -62 36 -62 65c0 189 413 371 413 507c0 43 -43 79 -95 79c-7 0 -15 0 -22 -1c10 -16 16 -35 16 -56c0 -121 -141 -247 -236 -247
c-42 0 -76 35 -76 77c0 112 135 217 274 236c-16 17 -39 27 -64 27c-81 0 -159 -56 -181 -76c-2 -2 -6 -2 -8 0s-2 6 0 8c0 0 88 80 189 80c32 0 59 -14 78 -37c10 1 20 1 30 1c56 0 112 -38 112 -100c0 -161 -390 -433 -390 -528c0 -13 10 -23 22 -23c61 0 267 183 413 330
l227 278h65l-419 -510c-9 -11 -39 -62 -39 -76c0 -15 6 -22 15 -22c43.5049 0 149.712 73.4961 241 164zM398 649c-139 -16 -271 -120 -271 -225c0 -36 28 -65 64 -65c88 0 224 121 224 235c0 20 -6 40 -17 55z" />
    <glyph glyph-name="V" unicode="V" horiz-adv-x="595" 
d="M770 593c-33 -30 -75 -75 -122 -133c-165 -200 -344 -464 -446 -464c-37 0 -56 32 -56 74c0 228 320 355 320 505c0 42 -35 73 -78 73h-10c10 -14 16 -32 16 -52c0 -125 -149 -253 -234 -253c-36 0 -68 28 -68 65c0 109 124 230 260 249c-20 15 -48 23 -81 23
c-78 0 -146 -56 -165 -77c-2 -2 -6 -2 -8 0s-2 6 0 8c0 0 74 81 173 81c40 0 75 -12 97 -33c7 1 13 1 20 1c49 0 94 -35 94 -85c0 -204 -308 -424 -308 -532c0 -20 10 -35 28 -35c91 0 256 240 437 460c74 91 166 186 203 186c18 0 25 -10 25 -23c0 -22 -28 -39 -49 -39
c-19 0 -23 11 -28 11c-7 0 -13 -4 -20 -10zM363 647c-135 -13 -259 -134 -259 -239c0 -29 26 -53 56 -53c78 0 222 123 222 241c0 20 -7 38 -19 51z" />
    <glyph glyph-name="W" unicode="W" horiz-adv-x="914" 
d="M976 539c0 0 6 12 6 20c0 17 -17 20 -17 40c0 18 14 47 38 47c12 0 21 -12 21 -24c0 -17 -13 -42 -19 -56c-14 -31 -33 -64 -53 -97c-132 -226 -382 -483 -480 -483c-28 0 -50 21 -50 47c0 66 56 162 87 209c-86 -90 -245 -244 -307 -245c-36 0 -58 15 -58 55
c0 215 402 394 402 538c0 40 -24 71 -63 71c-11 0 -21 0 -32 -2c12 -15 19 -36 19 -58c0 -129 -141 -251 -212 -251c-40 0 -76 29 -76 70c0 88 115 215 244 246c-14 10 -34 15 -57 15c-79 0 -153 -64 -175 -90c-2 -3 -6 -2 -8 0s-2 6 0 8c0 0 82 94 183 94
c30 0 55 -9 72 -24c14 2 28 4 42 4c47 0 82 -36 82 -90c0 -79 -81 -176 -168 -272c-104 -115 -217 -226 -217 -278c0 -13 5 -24 22 -24c75 0 334 277 356 303l258 310h64l-352 -428c-8 -9 -87 -117 -87 -163c0 -15 11 -33 31 -33c60 0 195 116 317 262
c74 89 143 188 187 279zM437 656c-129 -26 -243 -153 -243 -236c0 -33 30 -58 64 -58c65 0 200 118 200 239c0 22 -7 41 -21 55z" />
    <glyph glyph-name="X" unicode="X" horiz-adv-x="740" 
d="M769 176h17c-56 -56 -201 -193 -260 -193c-30 0 -58 17 -58 59c0 48 23 117 51 190c-120 -112 -271 -257 -355 -257c-77 0 -125 49 -125 115c0 90 93 241 220 241c59 0 89 -40 89 -90c0 -71 -87 -139 -87 -139c-3 -2 -7 -2 -9 1s-2 7 1 9c23 17 83 75 83 129
c0 43 -24 78 -77 78c-119 0 -208 -145 -208 -229c0 -62 45 -103 113 -103c82 0 246 161 365 271c51 125 114 255 114 308c0 40 -25 72 -79 72c6 -12 9 -25 9 -39c0 -118 -117 -231 -196 -231c-42 0 -78 32 -78 75c0 125 134 197 243 206c-18 21 -48 33 -79 33
c-74 0 -134 -57 -148 -75c-2 -3 -6 -3 -9 -1s-3 6 -1 9c0 0 66 79 158 79c38 0 74 -16 94 -44h6c63 0 121 -39 121 -122c0 -48 -13 -105 -33 -163c152 129 314 257 391 257c26 0 36 -6 36 -19c0 -19 -25 -37 -49 -37c-20 0 -35 20 -47 20c-14 0 -25 -6 -35 -11
c-80 -46 -188 -133 -304 -232c-50 -138 -127 -280 -127 -329c0 -11 7 -16 15 -16c45 0 167 109 238 178zM550 638c-108 -5 -239 -77 -239 -195c0 -35 30 -63 66 -63c72 0 184 106 184 219c0 14 -4 28 -11 39z" />
    <glyph glyph-name="Y" unicode="Y" horiz-adv-x="716" 
d="M632 245c-129 -127 -279 -248 -356 -248c-29 0 -59 16 -59 69c0 208 380 359 380 499c0 42 -25 70 -71 71c3 -11 5 -23 5 -37c0 -124 -137 -248 -215 -248c-52 0 -88 28 -88 74c0 106 140 215 281 223c-14 26 -43 36 -82 36c-74 0 -126 -44 -174 -83c-3 -2 -7 -2 -9 1
s-2 7 1 9c48 39 102 85 182 85c47 0 80 -15 95 -48h2c55 0 92 -32 92 -90c0 -180 -366 -412 -366 -522c0 -11 4 -27 26 -27c86 0 286 174 439 339l217 264h65l-520 -634c22 4 45 6 67 6c3 0 6 -3 6 -6s-3 -6 -6 -6c-26 0 -53 -3 -79 -8l-46 -56c-54 -65 -165 -182 -240 -182
c-18 0 -32 12 -32 30c0 70 113 161 251 204zM514 636c-139 -5 -274 -113 -274 -211c0 -38 30 -62 76 -62c70 0 203 117 203 236c0 14 -2 27 -5 37zM384 -58c-125 -43 -225 -125 -225 -186c0 -11 8 -18 20 -18c34 0 104 83 184 179z" />
    <glyph glyph-name="Z" unicode="Z" horiz-adv-x="653" 
d="M219 96c0 28 64 47 111 47c18 0 38 -4 54 -12c158 83 365 271 365 440c0 34 -26 91 -104 91c-15 0 -29 -2 -43 -4c25 -23 40 -54 40 -90c0 -123 -138 -247 -221 -247c-49 0 -91 32 -91 86c0 102 112 224 244 258c-22 14 -49 21 -76 21c-94 0 -176 -69 -210 -121
c-2 -3 -5 -4 -8 -2s-4 5 -2 8c34 52 120 127 220 127c34 0 66 -11 92 -30c18 4 36 6 55 6c86 0 158 -61 158 -163c0 -171 -236 -318 -402 -390c19 -14 32 -33 32 -57c0 -22 -7 -45 -18 -68h3c5 0 12 -1 24 -3c3 -1 6 -4 5 -7s-4 -6 -7 -5c-4 1 -15 3 -22 3h-9
c-68 -123 -260 -251 -327 -251c-19 0 -43 10 -43 33c0 82 191 200 331 225c18 31 29 62 29 88c0 13 -5 26 -15 35c-61 -25 -110 -39 -132 -39c-13 0 -33 5 -33 21zM586 655c-133 -29 -244 -152 -244 -248c0 -48 36 -74 79 -74c75 0 209 117 209 235c0 36 -18 66 -44 87z
M368 124c-10 5 -23 7 -38 7c-51 0 -99 -20 -99 -35c0 -7 13 -8 21 -8c29 0 70 13 116 36zM361 -22c-138 -28 -310 -143 -310 -212c0 -13 14 -21 31 -21c50 0 206 120 279 233z" />
    <glyph glyph-name="grave" unicode="`" horiz-adv-x="302" 
d="M224 538c-11 0 -99 63 -99 95c0 18 7 24 19 24c7 0 20 -12 22 -25c2 -18 9 -34 19 -49c11 -16 26 -30 43 -43z" />
    <glyph glyph-name="a" unicode="a" horiz-adv-x="364" 
d="M410 176c-23 -24 -179 -184 -242 -184c-20 0 -44 12 -44 41c0 18 3 32 9 49c-19 -20 -86 -84 -124 -84c-24 0 -40 22 -40 46c0 137 230 281 287 281c19 0 36 -17 34 -36l25 30h72l-188 -226c-10.3164 -12.4014 -41 -61 -41 -73c0 -9 4 -14 12 -14c44 0 158 103 223 170
h17zM16 15c28 0 104 70 112 80l114 138c17 20 31 48 31 59s-8 20 -19 20c-40 0 -249 -242 -249 -285c0 -8 5 -12 11 -12z" />
    <glyph glyph-name="b" unicode="b" horiz-adv-x="286" 
d="M30 10c35 0 127 80 187 163c-4 12 -6 28 -6 47c1 39 32 82 55 82c9 0 15 -10 15 -19c0 -30 -22 -71 -51 -112c7 -18 18 -25 33 -25c18 0 40 18 52 30h17c-5 -5 -39 -42 -69 -42c-18 0 -32 8 -41 26c-62 -84 -158 -166 -192 -166s-52 26 -52 56c0 69 67 148 76 159
l296 355h75l-368 -442c-11 -14 -52 -64 -52 -88c0 -16 11 -24 25 -24z" />
    <glyph glyph-name="c" unicode="c" horiz-adv-x="265" 
d="M294 176h17c-28 -32 -167 -182 -245 -182c-55 0 -79 32 -79 74c0 138 226 269 273 269c15 0 29 -13 29 -29c0 -44 -31 -94 -63 -94c-13 0 -21 12 -21 25c0 32 45 60 60 67c0 0 4 3 4 8s-4 10 -9 10c-40 0 -234 -219 -234 -287c0 -20 13 -31 40 -31c51 0 152 85 228 170z
" />
    <glyph glyph-name="d" unicode="d" horiz-adv-x="364" 
d="M410 176c-23 -24 -179 -184 -242 -184c-20 0 -44 12 -44 41c0 18 3 32 9 49c-19 -20 -81 -88 -119 -88c-29 0 -45 26 -45 50c0 137 230 281 287 281c19 0 30 -17 28 -36l219 275h72l-376 -471s-47 -56 -47 -73c0 -9 10 -14 18 -14c44 0 158 103 223 170h17zM19 9
c28 0 101 76 109 86l114 138c11.165 13.5156 25 48 25 59s-2 20 -13 20c-40 0 -248 -247 -248 -290c0 -8 7 -13 13 -13z" />
    <glyph glyph-name="e" unicode="e" horiz-adv-x="266" 
d="M265 307c0 5 -3 10 -8 10c-24 0 -101 -75 -159 -150c92 7 167 113 167 140zM84 148c-33 -45 -57 -87 -57 -111c0 -20 13 -31 40 -31c53 0 148 91 228 170h17c-32 -30 -167 -182 -245 -182c-55 0 -79 32 -79 74c0 138 213 262 267 262c15 0 30 -12 30 -29
c0 -52 -111 -151 -201 -153z" />
    <glyph glyph-name="f" unicode="f" horiz-adv-x="229" 
d="M258 176h17c-35 -34 -98 -99 -163 -99c-14 0 -26 4 -35 9c-35 -117 -199 -361 -275 -361c-23 0 -34 17 -34 36c0 75 112 231 155 284l418 519h75l-336 -416c2 -8 4 -15 4 -25c0 -7 -1 -15 -3 -24c8 -6 18 -10 31 -10c52 0 111 52 146 87zM52 113l-169 -210
c-51 -63 -93 -132 -93 -151c0 -10 5 -15 12 -15c66 0 234 246 265 357c-6 6 -11 13 -15 19z" />
    <glyph glyph-name="g" unicode="g" horiz-adv-x="359" 
d="M20 13c28 0 124 87 137 103l95 117c12 15 33 48 33 59s-5 18 -13 18c-40 0 -267 -239 -267 -282c0 -11 5 -15 15 -15zM7 -65c-103 -46 -193 -112 -193 -175c0 -14 12 -19 21 -19c40 0 109 117 143 158zM115 -21l-89 -107c-31 -38 -126 -147 -187 -147
c-20 0 -37 10 -37 35c0 79 116 151 221 194l62 75c-23 -17 -49 -31 -71 -31c-24 0 -44 17 -44 49c0 147 246 278 303 278c22 0 29 -17 27 -36l25 30h72l-265 -319c89 43 178 101 256 176h17c-88 -86 -190 -152 -290 -197z" />
    <glyph glyph-name="h" unicode="h" horiz-adv-x="360" 
d="M389 176h17c-3 -3 -170 -180 -251 -180c-34 0 -46 18 -46 50c0 94 189 218 189 255c0 5 -1 11 -6 11c-66 0 -173 -113 -199 -146l-133 -166h-72l452 564h72l-236 -295c39 31 84 56 121 56c17 0 31 -7 31 -37c0 -112 -185 -204 -185 -261c0 -8 5 -18 17 -18
c46 0 153 88 229 167z" />
    <glyph glyph-name="i" unicode="i" horiz-adv-x="204" 
d="M331 462c0 -25 -20 -46 -45 -46c-17 0 -35 9 -35 26c0 26 22 46 48 46c16 0 32 -10 32 -26zM250 176c-29 -30 -185 -184 -248 -184c-21 0 -45 13 -45 43c0 34 31 91 68 137l122 147h75l-194 -233c-5 -7 -41 -53 -41 -66c0 -9 6 -14 16 -14c48 0 169 108 230 170h17z" />
    <glyph glyph-name="j" unicode="j" horiz-adv-x="172" 
d="M201 176h17c-78 -74 -155 -111 -237 -149l-95 -119c-65 -81 -160 -182 -227 -182c-22 0 -31 11 -31 28c0 64 114 150 235 216l280 349h72l-216 -270c70 31 135 68 202 127zM328 462c0 -25 -20 -46 -45 -46c-17 0 -35 9 -35 26c0 26 22 46 48 46c16 0 32 -10 32 -26z
M-157 -55c-118 -69 -198 -157 -203 -191c-1 -7 8 -16 14 -16c15 0 37 22 66 53z" />
    <glyph glyph-name="k" unicode="k" horiz-adv-x="332" 
d="M361 176h17c-46 -42 -201 -180 -245 -180c-36 0 -53 22 -53 50c0 52 66 89 66 116c0 4 -6 6 -6 6s-24 -4 -47 -2l-133 -166h-72l452 564h72l-231 -288c38 32 79 58 121 58c25 0 49 -17 49 -42c0 -57 -117 -114 -174 -120c10 -9 13 -24 13 -41c0 -47 -65 -92 -65 -108
c0 -6 5 -10 11 -10c42 0 176 119 225 163zM155 188c53 16 145 87 145 114c0 9 -5 15 -12 15c-35 0 -136 -80 -167 -124h6c10 0 18 -2 28 -5z" />
    <glyph glyph-name="l" unicode="l" horiz-adv-x="209" 
d="M192 295c97 68 250 209 250 251c0 7 -5 11 -12 11c-44 0 -181 -178 -238 -262zM-7 20c0 -9 6 -14 16 -14c48 0 168 108 229 170h17c-29 -30 -184 -184 -247 -184c-21 0 -45 13 -45 43c0 104 355.995 536 469 536c14 0 26 -11 26 -25c0 -86.0059 -221 -238 -295 -285
c-67 -85 -170 -223 -170 -241z" />
    <glyph glyph-name="m" unicode="m" horiz-adv-x="596" 
d="M209 325c24 0 36 -16 36 -43c0 -13 -10 -37 -23 -63c9 11 104 106 145 106c22 0 34 -19 34 -43c0 -12 -12 -45 -25 -71c45 44 117 105 155 105c19 0 34 -14 34 -37c0 -85 -190 -224 -190 -261c0 -10 5 -15 12 -15c50 0 196 132 238 173h17c-71 -67 -205 -188 -259 -188
c-27 0 -34 20 -34 44c0 98 187 228 187 259c0 6 -3 11 -8 11c-45 0 -146 -103 -186 -151l-126 -151h-75l199 240c11 14 32 48 32 59c0 5 -4 9 -10 9c-26 0 -134 -102 -168 -143l-139 -165h-75l214 258c8 10 22 23 22 41c0 5 -2 11 -8 11c-25 0 -89 -63 -162 -134h-17
c78 76 149 149 180 149z" />
    <glyph glyph-name="n" unicode="n" horiz-adv-x="435" 
d="M369 309c-36.0137 0 -141 -103 -175 -144l-139 -165h-75l214 258c8 10 22 23 22 41c0 5 -2 11 -8 11c-25 0 -89 -63 -162 -134h-17c78 76 149 149 180 149c24 0 36 -16 36 -43c0 -13 -10 -37 -23 -63c9 11 102 106 155 106c19 0 33 -12 33 -40
c0 -85 -182 -222.988 -182 -267c0 -10 11 -11 18 -11c35.0137 0 176 128 218 169h17c-71 -67 -190 -186 -244 -186c-27 0 -40 18 -40 42c0 112.018 182 235 182 266c0 6 -5 11 -10 11z" />
    <glyph glyph-name="o" unicode="o" horiz-adv-x="308" 
d="M15 6c35 0 100 56 155 120c-3 7 -5 15 -5 25c0 25 28 57 57 57c3 0 6 -1 9 -2c24 37 40 70 40 90c0 8 -5 16 -12 16c-26 0 -254 -237 -254 -294c0 -6 4 -12 10 -12zM354 176c-14 -14 -77 -76 -139 -76c-12 0 -23 2 -31 8c-59 -64 -129 -116 -171 -116
c-23 0 -41 20 -41 43c0 151 211 290 290 290c17 0 30 -13 30 -30c0 -45 -44 -115 -99 -177c6 -4 14 -6 22 -6c48 0 99 41 122 64h17z" />
    <glyph glyph-name="p" unicode="p" horiz-adv-x="332" 
d="M36 15c39 0 242 243.879 242 281c0 6 -2 9 -7 9c-43 0 -249 -182.994 -249 -263c0 -17 5 -27 14 -27zM-3 47l-235 -285h-75l460 557h75l-20 -24c28 18 55 30 76 30c26 0 39 -25 39 -51c0 -124 -205 -283 -279 -283c-33 0 -39 28 -41 56z" />
    <glyph glyph-name="q" unicode="q" horiz-adv-x="350" 
d="M396 176c-16 -17 -109 -115 -160 -115c-11 0 -24 3 -33 11v-22c0 -78 -192 -331 -249 -331c-24 0 -40 16 -39 41c2 76 141 241 156 259c-24 -16 -47 -26 -64 -26c-33 0 -44 26 -44 53c0 104 202 279 299 279c18 0 26 -15 30 -33l22 27h74l-183 -229c4 -9 16 -17 31 -17
c36 0 107 65 143 103h17zM261 308c-42 0 -260 -243 -260 -287c0 -4 4 -8 8 -8c43 0 262 220 262 277c0 8 -2 18 -10 18zM191 73l-203 -254c-23 -29 -41 -51 -41 -71c0 -10 5 -13 9 -13c47 0 235 239 235 315v23z" />
    <glyph glyph-name="r" unicode="r" horiz-adv-x="285" 
d="M125.381 289.979c-8.58887 4.9082 -12.3809 18.0967 -12.3809 30.0215c0 37 37.7764 75 58 75c11 0 17 -8.96387 17 -23c0 -12.1016 -8.89844 -31.0645 -31.4385 -62.4062c26.0371 4.40039 46.4014 16.4082 77.4385 16.4082c15 0 31 -14 31 -27
c0 -59 -182 -232 -182 -280c0 -6.75879 4 -12 15 -12c47 0 157 107 216 169h17c-35 -37 -176 -184 -236 -184c-20 0 -53 9 -53 44c0 112 181 241.92 181 267c0 4 -2 5 -6 5c-17.709 0 -42.3662 -17.374 -76.4033 -19.7354
c-22.0283 -28.459 -52.8271 -65.0293 -94.5986 -112.267h-17c41.4746 46.4512 73.3154 84.3018 96.3828 113.979z" />
    <glyph glyph-name="s" unicode="s" horiz-adv-x="251" 
d="M280 176h17c-15 -15 -188 -182 -277 -182c-44 0 -71 27 -71 65c0 28 27 108 79 116l141 124c11 32 22 46 42 76c11 17 24 28 44 28c9 0 16 -6 16 -15c0 -25 -78 -80 -86 -101c-17 -45 -12 -72 -23 -120c-10 -45 -25 -90 -49 -123c55 35 118 86 167 132zM160 275
l-115 -100c11 -4 18 -14 18 -26c0 -29 -28 -46 -57 -46c-8 0 -14 2 -19 6c-11 -12 -21 -25 -21 -44c0 -18 5 -37 29 -37c50 0 122 135 165 247z" />
    <glyph glyph-name="t" unicode="t" horiz-adv-x="208" 
d="M248 176c-18 -20 -167 -184 -248 -184c-26 0 -39 17 -39 47c0 31 27 86 54 120l119 149h-70l9 12h71l120 150h68l-120 -150h88l-9 -12h-89l-119 -149c-11 -14 -94 -113 -94 -139c0 -9 6 -14 16 -14c31 0 85.626 36.8057 131 76.5615
c44.376 38.8809 75 70.4385 95 93.4385h17z" />
    <glyph glyph-name="u" unicode="u" horiz-adv-x="352" 
d="M146 134l152 185h75l-196 -233c-6 -7 -41 -53 -41 -66c0 -9 6 -14 16 -14c48 0 168 108 229 170h17c-29 -30 -184 -184 -247 -184c-21 0 -45 13 -45 43c0 11 3 24 9 39c-37 -39 -78 -74 -109 -74c-21 0 -45 13 -45 43c0 34 11 60 48 107l134 169h75l-186 -225
c-6 -7 -41 -53 -41 -66c0 -9 6 -14 16 -14c29 0 91 61 139 120z" />
    <glyph glyph-name="v" unicode="v" horiz-adv-x="285" 
d="M331 176c-9 -9 -30 -28 -58 -28c-27 0 -42 11 -50 24c-53 -71 -143 -178 -198 -178c-30 0 -52 21 -52 56c0 37 41 110 73 149l99 120h69l-118 -143c-27 -33 -88 -127 -88 -145c0 -16 7 -23 19 -23c60 0 175 174 185 189c0 0 1 23 8 43c12 35 40 85 65 85
c9 0 13 -8 13 -18c0 -12 -12 -42 -34 -77l-33 -47c5 -11 16 -22 42 -22c15 0 31 7 41 15h17z" />
    <glyph glyph-name="w" unicode="w" horiz-adv-x="448" 
d="M477 176h17s-33 -39 -66 -39c-23 0 -39 14 -47 23c-64 -82 -154 -166 -212 -166c-23 0 -41 20 -41 43c0 24 6 43 12 61c-37 -41 -99 -101 -138 -101c-29 0 -37 18 -37 39c0 42 41 112 64 140l120 143h72l-182 -218c-11 -13 -47 -65 -47 -78c0 -9 3 -13 10 -13
c36 0 99 62 146 121l158 188h72l-183 -220s-43 -64 -43 -76c0 -10 9 -17 19 -17c63 0 171 126 200 164c-3 10 3 59 9 77c9 26 35 67 58 67c10 0 16 -8 16 -18c0 -26 -27 -75 -65 -126c6 -8 20 -21 39 -21c17 0 38 16 49 27z" />
    <glyph glyph-name="x" unicode="x" horiz-adv-x="368" 
d="M397 176h17c-38 -41 -164 -181 -232 -181c-35 0 -48 29 -48 58c0 13 3 28 8 46c-62 -58 -116 -104 -138 -104c-16 0 -33 10 -33 26c0 29 25 57 48 57c15 0 23 -13 23 -28c0 -5 -5 -21 -10 -29c27 19 70 58 118 103c23 66 62 145 62 173c0 6 -3 8 -7 8
c-21 0 -105 -73 -159 -129h-17c36 36 142 149 197 149c19 0 41 -12 41 -41c0 -15 -8 -40 -18 -69c68 60 132 110 166 110c18 0 31 -11 31 -27c0 -24 -27 -43 -43 -43s-32 9 -32 25c0 8 1 10 6 20c-37 -21 -86 -64 -137 -110c-24 -63 -55 -136 -55 -161c0 -12 7 -17 13 -17
c39 0 142 101 199 164z" />
    <glyph glyph-name="y" unicode="y" horiz-adv-x="353" 
d="M-4 -68c-108 -53 -189 -124 -189 -167c0 -13 10 -20 19 -20c38 0 133 136 170 187zM92 -28l-6 -7c-29 -35 -175 -232 -260 -232c-15 0 -31 12 -31 32c0 78 113 145 219 190l100 124c-40 -36 -93 -79 -124 -79c-27 0 -34 17 -34 37c0 24 15 66 52 113l134 169h75
l-186 -225c-6 -7 -42 -55 -42 -72c0 -4 3 -6 7 -6c43 0 164 125 179 143l132 160h75l-272 -325c100 45 185 111 272 182h17c-96 -80 -193 -158 -307 -204z" />
    <glyph glyph-name="z" unicode="z" horiz-adv-x="302" 
d="M21 -54c-128 -84 -225 -150 -225 -195c0 -12 8 -17 18 -17c27 0 140 121 207 212zM57 58c-5 2 -10 4 -18 4c-26 0 -45 -12 -45 -20c0 -3 4 -6 10 -6c14 0 32 8 53 22zM69 45c-28 -14 -51 -21 -60 -21c-23 0 -27 10 -27 18c0 19 29 32 57 32c12 0 23 -2 31 -7
c72 54 160 166 160 222c0 12 -9 19 -16 19c-20 0 -95 -54 -168 -132h-17c17 16.667 134 149 202 149c27 0 52 -17 52 -52c0 -93 -116 -178 -198 -220c7 -11 11 -26 12 -44c76 50 157 106 234 167h17c-81 -66 -169 -126 -251 -180c-10 -138 -251 -273 -283 -274
c-13 0 -30 6 -30 29c0 54 111 127 255 221c19 28 32 51 32 63c0 3 -1 7 -2 10z" />
    <glyph glyph-name="exclamdown" unicode="&#xa1;" horiz-adv-x="345" 
d="M270 246c-20 0 -35 16 -35 37c0 26 24 49 53 49c20 0 32 -13 32 -34c0 -27 -24 -52 -50 -52zM219 206l12 -6c-33 -48 -74 -101 -105 -155c-8 -15 -54 -96 -103 -153c-28 -33 -57 -56 -81 -56c-16 0 -29 11 -29 26c0 23 21 56 51 90c53 59 130 122 150 139
c27 23 71 77 105 115z" />
    <glyph glyph-name="cent" unicode="&#xa2;" horiz-adv-x="155" 
d="M227 435c4.7998 0 7 -3.99805 7 -5.99805s-1.16504 -3.87695 -2 -5l-32 -43c15 -8 21 -24 21 -33c0 -13 -15 -45 -38 -45c-11 0 -22 8 -22 19c0 21 34 39 34 42c0 5 -9 9 -15 9c-38 0 -124 -104 -124 -151c0 -11 9 -22 20 -22c34 0 74 39 85 52
c4.51172 6.76758 15.8691 -2.13281 10 -8.00195c-2 -2 -49 -56 -95 -56c-5 0 -9 1 -13 2l-41 -56c-1 -1 -2 -2 -4 -2c-5.59961 0 -8 3 -8 6c0 1 1 3 2 4l39 52c-17 8 -30 24 -30 46c0 82 88 146 159 146c3 0 6 -1 8 -1l34 47c0.818359 1.13086 3 3 5 3z" />
    <glyph glyph-name="sterling" unicode="&#xa3;" horiz-adv-x="512" 
d="M128 38c-31 19 -57 34 -86 34c-38 0 -72 -13 -72 -34c0 -22 31 -28 52 -28c43 0 77 10 106 28zM366 220c0 -17 8 -40 38 -40c83 0 148 128 148 168c0 67 -28 86 -48 86c-88 0 -169 -97 -218 -206l-1 -2h47c3 0 6 -3 6 -6s-3 -6 -6 -6h-52c-28 -61 -62 -119 -108 -159
c72 -32 127 -79 231 -79c20 0 52 6 74 10c3 1 6 -2 7 -5s-2 -6 -5 -7c0 0 -67 -12 -112 -12c-111 0 -176 38 -227 69c-33 -21 -72 -33 -118 -33c-25 0 -64 8 -64 40c0 35 53 46 84 46c47 0 84 -10 117 -23c43 38 71 94 96 153h-101c-3 0 -6 3 -6 6s3 6 6 6h106
c50 123 87 252 204 252c85 0 100 -66 100 -130c0 -46 -69 -180 -160 -180c-33 0 -50 24 -50 52c0 69 113 130 119 133c3 2 6 1 8 -2s1 -7 -2 -8c-29 -14 -113 -70 -113 -123z" />
    <glyph glyph-name="ordfeminine" unicode="&#xaa;" horiz-adv-x="596" 
 />
    <glyph glyph-name="degree" unicode="&#xb0;" horiz-adv-x="973" 
d="M79 50c0 -44 14 -62 52 -62c171 0 511 411 511 540c0 19 -15 36 -33 36c-112 0 -289 -201 -362 -298c-2 -3 -6 -3 -9 -1s-3 6 -1 9c61 80 248 302 372 302c26 0 45 -23 45 -48c0 -46 -41 -126 -101 -210c52 40 124 62 198 73c-11 15 -17 34 -18 55c-23 2 -46 7 -67 14
c-2 1 -4 4 -4 6c0 3 3 6 6 6h1c20 -7 42 -11 64 -14c8 115 204 207 364 207c22 0 43 -16 43 -39c0 -91 -207 -182 -368 -182h-3c-4 -9 -6 -18 -6 -26s2 -17 7 -25c32 4 65 6 96 6c24 0 60 -6 60 -30c0 -19 -34 -24 -59 -24c-44 0 -77 10 -100 29
c-154 -52 -258 -194 -258 -285c0 -18 11 -46 33 -67c18 -17 44 -30 79 -30c140 0 273 147 273 237c0 41 -34 73 -75 73c-112 0 -200 -69 -226 -175c-1 -3 -4 -6 -7 -5s-6 4 -5 7c28 112 120 185 238 185c47 0 87 -38 87 -85c0 -96 -137 -249 -285 -249
c-92 0 -148 69 -148 180c0 26 5 50 13 71c-113 -133 -258 -255 -355 -255c-55 0 -96 51 -96 107c0 266 437 522 583 561c3 1 7 -1 8 -4s-1 -7 -4 -8c-85 -27 -242 -157 -366 -293c-99 -110 -177 -223 -177 -289zM775 456c152 1 353 87 353 170c0 15 -16 27 -32 27
c-22 0 -44 -1 -66 -7c-100 -26 -218 -121 -255 -190zM914 369c0 11 -21 18 -48 18c-28 0 -62 -3 -83 -8c16 -13 42 -22 84 -22c20 0 47 4 47 12z" />
    <glyph glyph-name="questiondown" unicode="&#xbf;" horiz-adv-x="474" 
d="M373 233l12 -6c-28 -44 -103 -93 -184 -143c-84 -52 -160 -135 -160 -193c0 -38 33 -51 76 -51c55 0 112 33 112 48c0 9 -9 23 -9 38c0 23 18 41 41 41c16 0 29 -13 29 -29c0 -53 -100 -113 -185 -113c-66 0 -126 48 -126 113c0 67 85 129 163 163c79 35 169 70 231 132z
M398 246c-20 0 -35 16 -35 37c0 26 24 49 53 49c20 0 32 -13 32 -34c0 -27 -24 -52 -50 -52z" />
    <glyph glyph-name="Agrave" unicode="&#xc0;" horiz-adv-x="862" 
d="M1168 674c-11 0 -99 63 -99 95c0 18 7 24 19 24c7 0 20 -12 22 -25c2 -18 9 -34 19 -49c11 -16 26 -30 43 -43zM908 176c-80 -73 -206 -182 -259 -182c-25 0 -39 17 -39 46c1 42 76 153 177 277h-111c-134 -169 -279 -339 -489 -339c-83 0 -161 58 -161 142
c0 152 150 271 278 271c69 0 109 -52 109 -113c0 -89 -113 -163 -113 -163c-2 -3 -6 -3 -9 -1s-3 6 -1 9c1 2 111 72 111 155c0 54 -34 101 -97 101c-122 0 -266 -115 -266 -259c0 -76 72 -130 149 -130c124 0 252 163 396 327h-54c-3 0 -6 3 -6 6s3 6 6 6h64
c145 164 306 327 496 327c8 0 21 -1 21 -6c0 -3 -2 -5 -2 -5c-27 -30 -153 -173 -269 -316h51c3 0 6 -3 6 -6s-3 -6 -6 -6h-61c-104 -128 -196 -253 -196 -289c0 -15 6 -22 18 -22c45 0 169 106 240 170h17zM1091 644c-36 -1 -71 -5 -103 -20c-110 -49 -203 -171 -302 -295
h111c90 109 199 227 294 315z" />
    <glyph glyph-name="Aacute" unicode="&#xc1;" horiz-adv-x="862" 
d="M1075 676c31 21 55 53 58 76c2.62012 20.0537 10 38 28 38c9.06055 0 15 -12 15 -23c0 -34.2344 -61 -84 -98 -97zM908 176c-80 -73 -206 -182 -259 -182c-25 0 -39 17 -39 46c1 42 76 153 177 277h-111c-134 -169 -279 -339 -489 -339c-83 0 -161 58 -161 142
c0 152 150 271 278 271c69 0 109 -52 109 -113c0 -89 -113 -163 -113 -163c-2 -3 -6 -3 -9 -1s-3 6 -1 9c1 2 111 72 111 155c0 54 -34 101 -97 101c-122 0 -266 -115 -266 -259c0 -76 72 -130 149 -130c124 0 252 163 396 327h-54c-3 0 -6 3 -6 6s3 6 6 6h64
c145 164 306 327 496 327c8 0 21 -1 21 -6c0 -3 -2 -5 -2 -5c-27 -30 -153 -173 -269 -316h51c3 0 6 -3 6 -6s-3 -6 -6 -6h-61c-104 -128 -196 -253 -196 -289c0 -15 6 -22 18 -22c45 0 169 106 240 170h17zM1091 644c-36 -1 -71 -5 -103 -20c-110 -49 -203 -171 -302 -295
h111c90 109 199 227 294 315z" />
    <glyph glyph-name="Acircumflex" unicode="&#xc2;" horiz-adv-x="862" 
d="M1015 687c56 26 110 62 162 103h26s-23 -60.9824 -23 -89c0 -5 1 -12 1 -12l-10 -8s-20 33 -20 51c0 6 2 10 4 16c-44 -30 -91.0303 -53.2822 -143 -67zM908 176c-80 -73 -206 -182 -259 -182c-25 0 -39 17 -39 46c1 42 76 153 177 277h-111
c-134 -169 -279 -339 -489 -339c-83 0 -161 58 -161 142c0 152 150 271 278 271c69 0 109 -52 109 -113c0 -89 -113 -163 -113 -163c-2 -3 -6 -3 -9 -1s-3 6 -1 9c1 2 111 72 111 155c0 54 -34 101 -97 101c-122 0 -266 -115 -266 -259c0 -76 72 -130 149 -130
c124 0 252 163 396 327h-54c-3 0 -6 3 -6 6s3 6 6 6h64c145 164 306 327 496 327c8 0 21 -1 21 -6c0 -3 -2 -5 -2 -5c-27 -30 -153 -173 -269 -316h51c3 0 6 -3 6 -6s-3 -6 -6 -6h-61c-104 -128 -196 -253 -196 -289c0 -15 6 -22 18 -22c45 0 169 106 240 170h17zM1091 644
c-36 -1 -71 -5 -103 -20c-110 -49 -203 -171 -302 -295h111c90 109 199 227 294 315z" />
    <glyph glyph-name="Atilde" unicode="&#xc3;" horiz-adv-x="862" 
d="M1007 705l-4 3c18 23 52 59 81 59c35 0 37 -24 72 -24c17 0 35 16 48 31h7c-12 -17 -47 -60 -83 -60c-32 0 -34 23 -66 23c-19 0 -39 -14 -55 -32zM908 176c-80 -73 -206 -182 -259 -182c-25 0 -39 17 -39 46c1 42 76 153 177 277h-111c-134 -169 -279 -339 -489 -339
c-83 0 -161 58 -161 142c0 152 150 271 278 271c69 0 109 -52 109 -113c0 -89 -113 -163 -113 -163c-2 -3 -6 -3 -9 -1s-3 6 -1 9c1 2 111 72 111 155c0 54 -34 101 -97 101c-122 0 -266 -115 -266 -259c0 -76 72 -130 149 -130c124 0 252 163 396 327h-54c-3 0 -6 3 -6 6
s3 6 6 6h64c145 164 306 327 496 327c8 0 21 -1 21 -6c0 -3 -2 -5 -2 -5c-27 -30 -153 -173 -269 -316h51c3 0 6 -3 6 -6s-3 -6 -6 -6h-61c-104 -128 -196 -253 -196 -289c0 -15 6 -22 18 -22c45 0 169 106 240 170h17zM1091 644c-36 -1 -71 -5 -103 -20
c-110 -49 -203 -171 -302 -295h111c90 109 199 227 294 315z" />
    <glyph glyph-name="Adieresis" unicode="&#xc4;" horiz-adv-x="862" 
d="M1118 730c0 -17 -23 -36 -45 -36c-12 0 -20 11 -20 23c0 15 20 37 42 37c13 0 23 -11 23 -24zM1247 730c0 -17 -23 -36 -45 -36c-12 0 -20 11 -20 23c0 15 20 37 42 37c13 0 23 -11 23 -24zM908 176c-80 -73 -206 -182 -259 -182c-25 0 -39 17 -39 46
c1 42 76 153 177 277h-111c-134 -169 -279 -339 -489 -339c-83 0 -161 58 -161 142c0 152 150 271 278 271c69 0 109 -52 109 -113c0 -89 -113 -163 -113 -163c-2 -3 -6 -3 -9 -1s-3 6 -1 9c1 2 111 72 111 155c0 54 -34 101 -97 101c-122 0 -266 -115 -266 -259
c0 -76 72 -130 149 -130c124 0 252 163 396 327h-54c-3 0 -6 3 -6 6s3 6 6 6h64c145 164 306 327 496 327c8 0 21 -1 21 -6c0 -3 -2 -5 -2 -5c-27 -30 -153 -173 -269 -316h51c3 0 6 -3 6 -6s-3 -6 -6 -6h-61c-104 -128 -196 -253 -196 -289c0 -15 6 -22 18 -22
c45 0 169 106 240 170h17zM1091 644c-36 -1 -71 -5 -103 -20c-110 -49 -203 -171 -302 -295h111c90 109 199 227 294 315z" />
    <glyph glyph-name="Aring" unicode="&#xc5;" horiz-adv-x="862" 
d="M1101 721c0 30 42 69 79 69c18 0 28 -10 28 -24c0 -29 -41 -70 -79 -70c-18 0 -28 10 -28 25zM1120 728c0 -9 6 -15 18 -15c26 0 50 27 50 45c0 9 -6 15 -17 15c-23 0 -51 -23 -51 -45zM908 176c-80 -73 -206 -182 -259 -182c-25 0 -39 17 -39 46c1 42 76 153 177 277
h-111c-134 -169 -279 -339 -489 -339c-83 0 -161 58 -161 142c0 152 150 271 278 271c69 0 109 -52 109 -113c0 -89 -113 -163 -113 -163c-2 -3 -6 -3 -9 -1s-3 6 -1 9c1 2 111 72 111 155c0 54 -34 101 -97 101c-122 0 -266 -115 -266 -259c0 -76 72 -130 149 -130
c124 0 252 163 396 327h-54c-3 0 -6 3 -6 6s3 6 6 6h64c145 164 306 327 496 327c8 0 21 -1 21 -6c0 -3 -2 -5 -2 -5c-27 -30 -153 -173 -269 -316h51c3 0 6 -3 6 -6s-3 -6 -6 -6h-61c-104 -128 -196 -253 -196 -289c0 -15 6 -22 18 -22c45 0 169 106 240 170h17zM1091 644
c-36 -1 -71 -5 -103 -20c-110 -49 -203 -171 -302 -295h111c90 109 199 227 294 315z" />
    <glyph glyph-name="AE" unicode="&#xc6;" horiz-adv-x="1300" 
d="M1091 644c-36 -1 -71 -5 -103 -20c-33 -15 -65 -36 -95 -62c6 -27 25 -48 51 -65c50 53 100 104 147 147zM1102 456c152 1 353 87 353 170c0 15 -16 27 -32 27c-22 0 -44 -1 -66 -7c-100 -26 -218 -121 -255 -190zM1241 369c0 11 -21 18 -48 18c-28 0 -62 -3 -83 -8
c16 -13 42 -22 84 -22c20 0 47 4 47 12zM1194 345c-44 0 -77 10 -100 29c-154 -52 -258 -194 -258 -285c0 -18 11 -46 33 -67c18 -17 44 -30 79 -30c140 0 273 147 273 237c0 41 -34 73 -75 73c-112 0 -200 -69 -226 -175c-1 -3 -4 -6 -7 -5s-6 4 -5 7
c28 112 120 185 238 185c47 0 87 -38 87 -85c0 -96 -137 -249 -285 -249c-71 0 -120 41 -139 110c-62 -51 -126 -96 -160 -96c-25 0 -39 17 -39 46c1 42 76 153 177 277h-111c-134 -169 -279 -339 -489 -339c-83 0 -161 58 -161 142c0 152 150 271 278 271
c69 0 109 -52 109 -113c0 -89 -113 -163 -113 -163c-2 -3 -6 -3 -9 -1s-3 6 -1 9c1 2 111 72 111 155c0 54 -34 101 -97 101c-122 0 -266 -115 -266 -259c0 -76 72 -130 149 -130c124 0 252 163 396 327h-54c-3 0 -6 3 -6 6s3 6 6 6h64c89 100 183 199 286 262
c7 73 95 99 166 99c68 0 136 -31 136 -31c3 -1 4 -4 3 -7s-4 -4 -7 -3c-18 8 -79 29 -132 29c-67 0 -140 -23 -152 -79c62 35 127 57 196 57c8 0 21 -1 21 -6c0 -3 -2 -5 -2 -5l-140 -162c27 -13 59 -21 92 -25c8 115 204 207 364 207c22 0 43 -16 43 -39
c0 -91 -207 -182 -368 -182h-3c-4 -9 -6 -18 -6 -26s2 -17 7 -25c32 4 65 6 96 6c24 0 60 -6 60 -30c0 -19 -34 -24 -59 -24zM936 487c-26 17 -45 40 -53 67c-68 -60 -131 -142 -197 -225h111c43 52 91 106 139 158zM806 102c-4 18 -6 37 -6 58c0 69 31 120 79 157h-50
c-104 -128 -196 -253 -196 -289c0 -15 6 -22 18 -22c30 0 94 46 155 96zM894 327c51 34 116 54 184 64c-11 15 -17 34 -18 55c-36 4 -71 13 -101 28l-120 -145h51c1 0 3 -1 4 -2z" />
    <glyph glyph-name="Ccedilla" unicode="&#xc7;" horiz-adv-x="565" 
d="M333 640c-91 0 -189 -49 -189 -120c0 -72 59 -110 138 -123c149 147 380 266 467 266c25 0 48 -15 48 -37c0 -92 -202 -241 -432 -246c-88 -97 -163 -206 -163 -294c0 -33 39 -76 88 -76c93 0 246 108 246 243c0 38 -33 69 -72 69c-86 0 -153 -72 -185 -127
c-2 -3 -5 -4 -8 -2s-4 5 -2 8c32 55 101 133 195 133c45 0 84 -35 84 -81c0 -142 -159 -257 -258 -257h-8l-19 -19c4 -4 8 -10 8 -18c0 -21 -25 -34 -43 -34c-16 0 -22 8 -22 8l7 7s8 -4 13 -4c14 0 27 8 27 22c0 7 -7 13 -7 13l23 26c-72 9 -103 65 -103 171
c0 73 38 149 106 219c-79 15 -140 55 -140 133c0 83 110 132 201 132c67 0 165 -47 165 -47c3 -1 3 -5 2 -8s-5 -3 -8 -2c-38 18 -112 45 -159 45zM376 393c221 10 409 151 409 233c0 15 -18 25 -36 25c-90 0 -241 -116 -373 -258z" />
    <glyph glyph-name="Egrave" unicode="&#xc8;" horiz-adv-x="565" 
d="M762 673c-11 0 -99 63 -99 95c0 18 7 24 19 24c7 0 20 -12 22 -25c2 -18 9 -34 19 -49c11 -16 26 -30 43 -43zM459 345c-44 0 -77 10 -100 29c-154 -52 -258 -194 -258 -285c0 -18 11 -46 33 -67c18 -17 44 -30 79 -30c140 0 273 147 273 237c0 41 -34 73 -75 73
c-112 0 -200 -69 -226 -175c-1 -3 -4 -6 -7 -5s-6 4 -5 7c28 112 120 185 238 185c47 0 87 -38 87 -85c0 -96 -137 -249 -285 -249c-92 0 -148 69 -148 180c0 144 135 210 278 231c-11 15 -17 34 -18 55c-93 10 -181 57 -181 136c0 80 92 108 166 108c68 0 136 -31 136 -31
c3 -1 4 -4 3 -7s-4 -4 -7 -3c-18 8 -79 29 -132 29c-74 0 -154 -28 -154 -96c0 -71 83 -114 169 -124c8 115 204 207 364 207c22 0 43 -16 43 -39c0 -91 -207 -182 -368 -182h-3c-4 -9 -6 -18 -6 -26s2 -17 7 -25c32 4 65 6 96 6c24 0 60 -6 60 -30c0 -19 -34 -24 -59 -24z
M506 369c0 11 -21 18 -48 18c-28 0 -62 -3 -83 -8c16 -13 42 -22 84 -22c20 0 47 4 47 12zM367 456c152 1 353 87 353 170c0 15 -16 27 -32 27c-22 0 -44 -1 -66 -7c-100 -26 -218 -121 -255 -190z" />
    <glyph glyph-name="Eacute" unicode="&#xc9;" horiz-adv-x="565" 
d="M588 676c31 21 55 53 58 76c2.61523 20.0537 10 38 28 38c9.05566 0 15 -12 15 -23c0 -34.2344 -61 -84 -98 -97zM459 345c-44 0 -77 10 -100 29c-154 -52 -258 -194 -258 -285c0 -18 11 -46 33 -67c18 -17 44 -30 79 -30c140 0 273 147 273 237c0 41 -34 73 -75 73
c-112 0 -200 -69 -226 -175c-1 -3 -4 -6 -7 -5s-6 4 -5 7c28 112 120 185 238 185c47 0 87 -38 87 -85c0 -96 -137 -249 -285 -249c-92 0 -148 69 -148 180c0 144 135 210 278 231c-11 15 -17 34 -18 55c-93 10 -181 57 -181 136c0 80 92 108 166 108c68 0 136 -31 136 -31
c3 -1 4 -4 3 -7s-4 -4 -7 -3c-18 8 -79 29 -132 29c-74 0 -154 -28 -154 -96c0 -71 83 -114 169 -124c8 115 204 207 364 207c22 0 43 -16 43 -39c0 -91 -207 -182 -368 -182h-3c-4 -9 -6 -18 -6 -26s2 -17 7 -25c32 4 65 6 96 6c24 0 60 -6 60 -30c0 -19 -34 -24 -59 -24z
M506 369c0 11 -21 18 -48 18c-28 0 -62 -3 -83 -8c16 -13 42 -22 84 -22c20 0 47 4 47 12zM367 456c152 1 353 87 353 170c0 15 -16 27 -32 27c-22 0 -44 -1 -66 -7c-100 -26 -218 -121 -255 -190z" />
    <glyph glyph-name="Ecircumflex" unicode="&#xca;" horiz-adv-x="565" 
d="M588 687c56 26 110 62 162 103h26s-23 -60.9824 -23 -89c0 -5 1 -12 1 -12l-10 -8s-20 33 -20 51c0 6 2 10 4 16c-44 -30 -91.0342 -53.2822 -143 -67zM459 345c-44 0 -77 10 -100 29c-154 -52 -258 -194 -258 -285c0 -18 11 -46 33 -67c18 -17 44 -30 79 -30
c140 0 273 147 273 237c0 41 -34 73 -75 73c-112 0 -200 -69 -226 -175c-1 -3 -4 -6 -7 -5s-6 4 -5 7c28 112 120 185 238 185c47 0 87 -38 87 -85c0 -96 -137 -249 -285 -249c-92 0 -148 69 -148 180c0 144 135 210 278 231c-11 15 -17 34 -18 55c-93 10 -181 57 -181 136
c0 80 92 108 166 108c68 0 136 -31 136 -31c3 -1 4 -4 3 -7s-4 -4 -7 -3c-18 8 -79 29 -132 29c-74 0 -154 -28 -154 -96c0 -71 83 -114 169 -124c8 115 204 207 364 207c22 0 43 -16 43 -39c0 -91 -207 -182 -368 -182h-3c-4 -9 -6 -18 -6 -26s2 -17 7 -25c32 4 65 6 96 6
c24 0 60 -6 60 -30c0 -19 -34 -24 -59 -24zM506 369c0 11 -21 18 -48 18c-28 0 -62 -3 -83 -8c16 -13 42 -22 84 -22c20 0 47 4 47 12zM367 456c152 1 353 87 353 170c0 15 -16 27 -32 27c-22 0 -44 -1 -66 -7c-100 -26 -218 -121 -255 -190z" />
    <glyph glyph-name="Edieresis" unicode="&#xcb;" horiz-adv-x="565" 
d="M683 730c0 -17 -23 -36 -45 -36c-12 0 -20 11 -20 23c0 15 20 37 42 37c13 0 23 -11 23 -24zM812 730c0 -17 -23 -36 -45 -36c-12 0 -20 11 -20 23c0 15 20 37 42 37c13 0 23 -11 23 -24zM459 345c-44 0 -77 10 -100 29c-154 -52 -258 -194 -258 -285
c0 -18 11 -46 33 -67c18 -17 44 -30 79 -30c140 0 273 147 273 237c0 41 -34 73 -75 73c-112 0 -200 -69 -226 -175c-1 -3 -4 -6 -7 -5s-6 4 -5 7c28 112 120 185 238 185c47 0 87 -38 87 -85c0 -96 -137 -249 -285 -249c-92 0 -148 69 -148 180c0 144 135 210 278 231
c-11 15 -17 34 -18 55c-93 10 -181 57 -181 136c0 80 92 108 166 108c68 0 136 -31 136 -31c3 -1 4 -4 3 -7s-4 -4 -7 -3c-18 8 -79 29 -132 29c-74 0 -154 -28 -154 -96c0 -71 83 -114 169 -124c8 115 204 207 364 207c22 0 43 -16 43 -39c0 -91 -207 -182 -368 -182h-3
c-4 -9 -6 -18 -6 -26s2 -17 7 -25c32 4 65 6 96 6c24 0 60 -6 60 -30c0 -19 -34 -24 -59 -24zM506 369c0 11 -21 18 -48 18c-28 0 -62 -3 -83 -8c16 -13 42 -22 84 -22c20 0 47 4 47 12zM367 456c152 1 353 87 353 170c0 15 -16 27 -32 27c-22 0 -44 -1 -66 -7
c-100 -26 -218 -121 -255 -190z" />
    <glyph glyph-name="Igrave" unicode="&#xcc;" horiz-adv-x="646" 
d="M900 671c-11 0 -99 63 -99 95c0 18 7 24 19 24c7 0 20 -12 22 -25c2 -18 9 -34 19 -49c11 -16 26 -30 43 -43zM907 629c4 0 6 -3 6 -6c0 -2 -1 -4 -3 -5c-34 -20 -81 -64 -127 -122c-74 -94 -114 -178 -169 -266c8 -1 17 -2 26 -2c14 0 30 7 36 11c3 2 6 1 8 -2
s1 -6 -2 -8c-19 -11 -34 -13 -42 -13c-11 0 -22 1 -33 3c-74 -112 -225 -245 -405 -245c-89 0 -170 65 -170 155c0 146 157 261 266 261c60 0 118 -40 118 -101c0 -100 -100 -181 -154 -201c-3 -1 -7 1 -8 4s1 7 4 8c54 20 146 97 146 189c0 53 -50 89 -106 89
c-103 0 -254 -110 -254 -249c0 -82 75 -139 158 -139c121 0 258 158 341 258c-26 20 -43 48 -43 83c0 138 165 208 280 239c37 10 85 33 106 46c6 5 9 7 14 10c1.91699 1.15039 5 3 7 3zM551 258c100 120 209 248 290 321c-19 -8 -38 -15 -57 -21
c-112 -36 -269 -146 -269 -227c0 -30 14 -55 36 -73z" />
    <glyph glyph-name="Iacute" unicode="&#xcd;" horiz-adv-x="646" 
d="M868 676c31 21 55 53 58 76c2.61523 20.0537 10 38 28 38c9.05566 0 15 -12 15 -23c0 -34.2344 -61 -84 -98 -97zM907 629c4 0 6 -3 6 -6c0 -2 -1 -4 -3 -5c-34 -20 -81 -64 -127 -122c-74 -94 -114 -178 -169 -266c8 -1 17 -2 26 -2c14 0 30 7 36 11c3 2 6 1 8 -2
s1 -6 -2 -8c-19 -11 -34 -13 -42 -13c-11 0 -22 1 -33 3c-74 -112 -225 -245 -405 -245c-89 0 -170 65 -170 155c0 146 157 261 266 261c60 0 118 -40 118 -101c0 -100 -100 -181 -154 -201c-3 -1 -7 1 -8 4s1 7 4 8c54 20 146 97 146 189c0 53 -50 89 -106 89
c-103 0 -254 -110 -254 -249c0 -82 75 -139 158 -139c121 0 258 158 341 258c-26 20 -43 48 -43 83c0 138 165 208 280 239c37 10 85 33 106 46c6 5 9 7 14 10c1.91699 1.15039 5 3 7 3zM551 258c100 120 209 248 290 321c-19 -8 -38 -15 -57 -21
c-112 -36 -269 -146 -269 -227c0 -30 14 -55 36 -73z" />
    <glyph glyph-name="Icircumflex" unicode="&#xce;" horiz-adv-x="646" 
d="M808 687c56 26 110 62 162 103h26s-23 -60.9824 -23 -89c0 -5 1 -12 1 -12l-10 -8s-20 33 -20 51c0 6 2 10 4 16c-44 -30 -91.0342 -53.2822 -143 -67zM907 629c4 0 6 -3 6 -6c0 -2 -1 -4 -3 -5c-34 -20 -81 -64 -127 -122c-74 -94 -114 -178 -169 -266c8 -1 17 -2 26 -2
c14 0 30 7 36 11c3 2 6 1 8 -2s1 -6 -2 -8c-19 -11 -34 -13 -42 -13c-11 0 -22 1 -33 3c-74 -112 -225 -245 -405 -245c-89 0 -170 65 -170 155c0 146 157 261 266 261c60 0 118 -40 118 -101c0 -100 -100 -181 -154 -201c-3 -1 -7 1 -8 4s1 7 4 8c54 20 146 97 146 189
c0 53 -50 89 -106 89c-103 0 -254 -110 -254 -249c0 -82 75 -139 158 -139c121 0 258 158 341 258c-26 20 -43 48 -43 83c0 138 165 208 280 239c37 10 85 33 106 46c6 5 9 7 14 10c1.91699 1.15039 5 3 7 3zM551 258c100 120 209 248 290 321c-19 -8 -38 -15 -57 -21
c-112 -36 -269 -146 -269 -227c0 -30 14 -55 36 -73z" />
    <glyph glyph-name="Idieresis" unicode="&#xcf;" horiz-adv-x="646" 
d="M917 730c0 -17 -23 -36 -45 -36c-12 0 -20 11 -20 23c0 15 20 37 42 37c13 0 23 -11 23 -24zM1046 730c0 -17 -23 -36 -45 -36c-12 0 -20 11 -20 23c0 15 20 37 42 37c13 0 23 -11 23 -24zM907 629c4 0 6 -3 6 -6c0 -2 -1 -4 -3 -5c-34 -20 -81 -64 -127 -122
c-74 -94 -114 -178 -169 -266c8 -1 17 -2 26 -2c14 0 30 7 36 11c3 2 6 1 8 -2s1 -6 -2 -8c-19 -11 -34 -13 -42 -13c-11 0 -22 1 -33 3c-74 -112 -225 -245 -405 -245c-89 0 -170 65 -170 155c0 146 157 261 266 261c60 0 118 -40 118 -101c0 -100 -100 -181 -154 -201
c-3 -1 -7 1 -8 4s1 7 4 8c54 20 146 97 146 189c0 53 -50 89 -106 89c-103 0 -254 -110 -254 -249c0 -82 75 -139 158 -139c121 0 258 158 341 258c-26 20 -43 48 -43 83c0 138 165 208 280 239c37 10 85 33 106 46c6 5 9 7 14 10c1.91699 1.15039 5 3 7 3zM551 258
c100 120 209 248 290 321c-19 -8 -38 -15 -57 -21c-112 -36 -269 -146 -269 -227c0 -30 14 -55 36 -73z" />
    <glyph glyph-name="Ntilde" unicode="&#xd1;" horiz-adv-x="883" 
d="M1048 705l-4 3c18 23 52 59 81 59c35 0 37 -24 72 -24c17 0 35 16 48 31h7c-12 -17 -47 -60 -83 -60c-32 0 -34 23 -66 23c-19 0 -39 -14 -55 -32zM1180 592c-13 -8 -29 -22 -49 -39c-121 -106 -353 -365 -495 -561c-2 -3 -5 -2 -8 -1s-4 4 -3 7c58 199 161 411 306 615
c-177 -102 -356 -456 -472 -545c-73 -56 -154 -89 -251 -89c-84 0 -174 44 -174 134c0 142 135 257 260 257c64 0 111 -44 111 -113c0 -93 -102 -157 -164 -157h-1c-3 0 -6 3 -6 6s3 6 6 6h1c58 0 152 61 152 145c0 66 -45 101 -99 101c-119 0 -248 -109 -248 -245
c0 -80 87 -117 132 -117c117 0 207 102 306 212c93 103 191 216 294 308c60 53 122 102 185 130c3 1 5 1 7 -1s2 -6 0 -8c-139 -203 -239 -400 -314 -592c154 196 495 595 593 595c18 0 21 -7.9375 21 -16c0 -13 -19 -38 -41 -38c-15 0 -26 12 -31 12c-7 0 -12 -2 -18 -6z
" />
    <glyph glyph-name="Ograve" unicode="&#xd2;" horiz-adv-x="476" 
d="M710 671c-11 0 -99 63 -99 95c0 18 7 24 19 24c7 0 20 -12 22 -25c2 -18 9 -34 19 -49c11 -16 26 -30 43 -43zM79 50c0 -44 14 -62 52 -62c171 0 511 411 511 540c0 19 -15 36 -33 36c-112 0 -289 -201 -362 -298c-2 -3 -6 -3 -9 -1s-3 6 -1 9c61 80 248 302 372 302
c26 0 45 -23 45 -48c0 -135 -344 -552 -523 -552c-55 0 -96 51 -96 107c0 266 437 522 583 561c3 1 7 -1 8 -4s-1 -7 -4 -8c-85 -27 -242 -157 -366 -293c-99 -110 -177 -223 -177 -289z" />
    <glyph glyph-name="Oacute" unicode="&#xd3;" horiz-adv-x="476" 
d="M584 676c31 21 55 53 58 76c2.61523 20.0537 10 38 28 38c9.05566 0 15 -12 15 -23c0 -34.2344 -61 -84 -98 -97zM79 50c0 -44 14 -62 52 -62c171 0 511 411 511 540c0 19 -15 36 -33 36c-112 0 -289 -201 -362 -298c-2 -3 -6 -3 -9 -1s-3 6 -1 9c61 80 248 302 372 302
c26 0 45 -23 45 -48c0 -135 -344 -552 -523 -552c-55 0 -96 51 -96 107c0 266 437 522 583 561c3 1 7 -1 8 -4s-1 -7 -4 -8c-85 -27 -242 -157 -366 -293c-99 -110 -177 -223 -177 -289z" />
    <glyph glyph-name="Ocircumflex" unicode="&#xd4;" horiz-adv-x="476" 
d="M562 687c56 26 110 62 162 103h26s-23 -60.9824 -23 -89c0 -5 1 -12 1 -12l-10 -8s-20 33 -20 51c0 6 2 10 4 16c-44 -30 -91.0342 -53.2822 -143 -67zM79 50c0 -44 14 -62 52 -62c171 0 511 411 511 540c0 19 -15 36 -33 36c-112 0 -289 -201 -362 -298
c-2 -3 -6 -3 -9 -1s-3 6 -1 9c61 80 248 302 372 302c26 0 45 -23 45 -48c0 -135 -344 -552 -523 -552c-55 0 -96 51 -96 107c0 266 437 522 583 561c3 1 7 -1 8 -4s-1 -7 -4 -8c-85 -27 -242 -157 -366 -293c-99 -110 -177 -223 -177 -289z" />
    <glyph glyph-name="Otilde" unicode="&#xd5;" horiz-adv-x="476" 
d="M546 701l-4 3c18 23 52 59 81 59c35 0 37 -24 72 -24c17 0 35 16 48 31h7c-12 -17 -47 -60 -83 -60c-32 0 -34 23 -66 23c-19 0 -39 -14 -55 -32zM79 50c0 -44 14 -62 52 -62c171 0 511 411 511 540c0 19 -15 36 -33 36c-112 0 -289 -201 -362 -298c-2 -3 -6 -3 -9 -1
s-3 6 -1 9c61 80 248 302 372 302c26 0 45 -23 45 -48c0 -135 -344 -552 -523 -552c-55 0 -96 51 -96 107c0 266 437 522 583 561c3 1 7 -1 8 -4s-1 -7 -4 -8c-85 -27 -242 -157 -366 -293c-99 -110 -177 -223 -177 -289z" />
    <glyph glyph-name="Odieresis" unicode="&#xd6;" horiz-adv-x="476" 
d="M651 730c0 -17 -23 -36 -45 -36c-12 0 -20 11 -20 23c0 15 20 37 42 37c13 0 23 -11 23 -24zM780 730c0 -17 -23 -36 -45 -36c-12 0 -20 11 -20 23c0 15 20 37 42 37c13 0 23 -11 23 -24zM79 50c0 -44 14 -62 52 -62c171 0 511 411 511 540c0 19 -15 36 -33 36
c-112 0 -289 -201 -362 -298c-2 -3 -6 -3 -9 -1s-3 6 -1 9c61 80 248 302 372 302c26 0 45 -23 45 -48c0 -135 -344 -552 -523 -552c-55 0 -96 51 -96 107c0 266 437 522 583 561c3 1 7 -1 8 -4s-1 -7 -4 -8c-85 -27 -242 -157 -366 -293c-99 -110 -177 -223 -177 -289z" />
    <glyph glyph-name="Ugrave" unicode="&#xd9;" horiz-adv-x="651" 
d="M752 673c-11 0 -99 63 -99 95c0 18 7 24 19 24c7 0 20 -12 22 -25c2 -18 9 -34 19 -49c11 -16 26 -30 43 -43zM680 176h17c-90.2812 -90.999 -208.529 -177 -260 -177c-21 0 -40 9 -40 41c0 75 116 211 118 213c-132 -127 -279 -253 -338 -253c-42 0 -62 36 -62 65
c0 189 413 371 413 507c0 43 -43 79 -95 79c-7 0 -15 0 -22 -1c10 -16 16 -35 16 -56c0 -121 -141 -247 -236 -247c-42 0 -76 35 -76 77c0 112 135 217 274 236c-16 17 -39 27 -64 27c-81 0 -159 -56 -181 -76c-2 -2 -6 -2 -8 0s-2 6 0 8c0 0 88 80 189 80
c32 0 59 -14 78 -37c10 1 20 1 30 1c56 0 112 -38 112 -100c0 -161 -390 -433 -390 -528c0 -13 10 -23 22 -23c61 0 267 183 413 330l227 278h65l-419 -510c-9 -11 -39 -62 -39 -76c0 -15 6 -22 15 -22c43.5049 0 149.712 73.4961 241 164zM398 649
c-139 -16 -271 -120 -271 -225c0 -36 28 -65 64 -65c88 0 224 121 224 235c0 20 -6 40 -17 55z" />
    <glyph glyph-name="Uacute" unicode="&#xda;" horiz-adv-x="651" 
d="M674 676c31 21 55 53 58 76c2.61523 20.0537 10 38 28 38c9.05566 0 15 -12 15 -23c0 -34.2344 -61 -84 -98 -97zM680 176h17c-90.2812 -90.999 -208.529 -177 -260 -177c-21 0 -40 9 -40 41c0 75 116 211 118 213c-132 -127 -279 -253 -338 -253c-42 0 -62 36 -62 65
c0 189 413 371 413 507c0 43 -43 79 -95 79c-7 0 -15 0 -22 -1c10 -16 16 -35 16 -56c0 -121 -141 -247 -236 -247c-42 0 -76 35 -76 77c0 112 135 217 274 236c-16 17 -39 27 -64 27c-81 0 -159 -56 -181 -76c-2 -2 -6 -2 -8 0s-2 6 0 8c0 0 88 80 189 80
c32 0 59 -14 78 -37c10 1 20 1 30 1c56 0 112 -38 112 -100c0 -161 -390 -433 -390 -528c0 -13 10 -23 22 -23c61 0 267 183 413 330l227 278h65l-419 -510c-9 -11 -39 -62 -39 -76c0 -15 6 -22 15 -22c43.5049 0 149.712 73.4961 241 164zM398 649
c-139 -16 -271 -120 -271 -225c0 -36 28 -65 64 -65c88 0 224 121 224 235c0 20 -6 40 -17 55z" />
    <glyph glyph-name="Ucircumflex" unicode="&#xdb;" horiz-adv-x="651" 
d="M618 687c56 26 110 62 162 103h26s-23 -60.9824 -23 -89c0 -5 1 -12 1 -12l-10 -8s-20 33 -20 51c0 6 2 10 4 16c-44 -30 -91.0342 -53.2822 -143 -67zM680 176h17c-90.2812 -90.999 -208.529 -177 -260 -177c-21 0 -40 9 -40 41c0 75 116 211 118 213
c-132 -127 -279 -253 -338 -253c-42 0 -62 36 -62 65c0 189 413 371 413 507c0 43 -43 79 -95 79c-7 0 -15 0 -22 -1c10 -16 16 -35 16 -56c0 -121 -141 -247 -236 -247c-42 0 -76 35 -76 77c0 112 135 217 274 236c-16 17 -39 27 -64 27c-81 0 -159 -56 -181 -76
c-2 -2 -6 -2 -8 0s-2 6 0 8c0 0 88 80 189 80c32 0 59 -14 78 -37c10 1 20 1 30 1c56 0 112 -38 112 -100c0 -161 -390 -433 -390 -528c0 -13 10 -23 22 -23c61 0 267 183 413 330l227 278h65l-419 -510c-9 -11 -39 -62 -39 -76c0 -15 6 -22 15 -22
c43.5049 0 149.712 73.4961 241 164zM398 649c-139 -16 -271 -120 -271 -225c0 -36 28 -65 64 -65c88 0 224 121 224 235c0 20 -6 40 -17 55z" />
    <glyph glyph-name="Udieresis" unicode="&#xdc;" horiz-adv-x="651" 
d="M696 730c0 -17 -23 -36 -45 -36c-12 0 -20 11 -20 23c0 15 20 37 42 37c13 0 23 -11 23 -24zM825 730c0 -17 -23 -36 -45 -36c-12 0 -20 11 -20 23c0 15 20 37 42 37c13 0 23 -11 23 -24zM680 176h17c-90.2812 -90.999 -208.529 -177 -260 -177c-21 0 -40 9 -40 41
c0 75 116 211 118 213c-132 -127 -279 -253 -338 -253c-42 0 -62 36 -62 65c0 189 413 371 413 507c0 43 -43 79 -95 79c-7 0 -15 0 -22 -1c10 -16 16 -35 16 -56c0 -121 -141 -247 -236 -247c-42 0 -76 35 -76 77c0 112 135 217 274 236c-16 17 -39 27 -64 27
c-81 0 -159 -56 -181 -76c-2 -2 -6 -2 -8 0s-2 6 0 8c0 0 88 80 189 80c32 0 59 -14 78 -37c10 1 20 1 30 1c56 0 112 -38 112 -100c0 -161 -390 -433 -390 -528c0 -13 10 -23 22 -23c61 0 267 183 413 330l227 278h65l-419 -510c-9 -11 -39 -62 -39 -76c0 -15 6 -22 15 -22
c43.5049 0 149.712 73.4961 241 164zM398 649c-139 -16 -271 -120 -271 -225c0 -36 28 -65 64 -65c88 0 224 121 224 235c0 20 -6 40 -17 55z" />
    <glyph glyph-name="agrave" unicode="&#xe0;" horiz-adv-x="364" 
d="M364 431c-11 0 -99 63 -99 95c0 18 7 24 19 24c7 0 20 -12 22 -25c2 -18 9 -34 19 -49c11 -16 26 -30 43 -43zM410 176c-23 -24 -179 -184 -242 -184c-20 0 -44 12 -44 41c0 18 3 32 9 49c-19 -20 -86 -84 -124 -84c-24 0 -40 22 -40 46c0 137 230 281 287 281
c19 0 36 -17 34 -36l25 30h72l-188 -226c-10.3164 -12.4014 -41 -61 -41 -73c0 -9 4 -14 12 -14c44 0 158 103 223 170h17zM16 15c28 0 104 70 112 80l114 138c17 20 31 48 31 59s-8 20 -19 20c-40 0 -249 -242 -249 -285c0 -8 5 -12 11 -12z" />
    <glyph glyph-name="aacute" unicode="&#xe1;" horiz-adv-x="364" 
d="M298 437c31 21 55 53 58 76c2.61523 20.0537 10 38 28 38c9.05566 0 15 -12 15 -23c0 -34.2344 -61 -84 -98 -97zM410 176c-23 -24 -179 -184 -242 -184c-20 0 -44 12 -44 41c0 18 3 32 9 49c-19 -20 -86 -84 -124 -84c-24 0 -40 22 -40 46c0 137 230 281 287 281
c19 0 36 -17 34 -36l25 30h72l-188 -226c-10.3164 -12.4014 -41 -61 -41 -73c0 -9 4 -14 12 -14c44 0 158 103 223 170h17zM16 15c28 0 104 70 112 80l114 138c17 20 31 48 31 59s-8 20 -19 20c-40 0 -249 -242 -249 -285c0 -8 5 -12 11 -12z" />
    <glyph glyph-name="acircumflex" unicode="&#xe2;" horiz-adv-x="364" 
d="M226 437c56 26 110 62 162 103h26s-23 -60.9824 -23 -89c0 -5 1 -12 1 -12l-10 -8s-20 33 -20 51c0 6 2 10 4 16c-44 -30 -91.0342 -53.2822 -143 -67zM410 176c-23 -24 -179 -184 -242 -184c-20 0 -44 12 -44 41c0 18 3 32 9 49c-19 -20 -86 -84 -124 -84
c-24 0 -40 22 -40 46c0 137 230 281 287 281c19 0 36 -17 34 -36l25 30h72l-188 -226c-10.3164 -12.4014 -41 -61 -41 -73c0 -9 4 -14 12 -14c44 0 158 103 223 170h17zM16 15c28 0 104 70 112 80l114 138c17 20 31 48 31 59s-8 20 -19 20c-40 0 -249 -242 -249 -285
c0 -8 5 -12 11 -12z" />
    <glyph glyph-name="atilde" unicode="&#xe3;" horiz-adv-x="364" 
d="M239 431l-4 3c18 23 52 59 81 59c35 0 37 -24 72 -24c17 0 35 16 48 31h7c-12 -17 -47 -60 -83 -60c-32 0 -34 23 -66 23c-19 0 -39 -14 -55 -32zM410 176c-23 -24 -179 -184 -242 -184c-20 0 -44 12 -44 41c0 18 3 32 9 49c-19 -20 -86 -84 -124 -84
c-24 0 -40 22 -40 46c0 137 230 281 287 281c19 0 36 -17 34 -36l25 30h72l-188 -226c-10.3164 -12.4014 -41 -61 -41 -73c0 -9 4 -14 12 -14c44 0 158 103 223 170h17zM16 15c28 0 104 70 112 80l114 138c17 20 31 48 31 59s-8 20 -19 20c-40 0 -249 -242 -249 -285
c0 -8 5 -12 11 -12z" />
    <glyph glyph-name="adieresis" unicode="&#xe4;" horiz-adv-x="364" 
d="M328 467c0 -17 -23 -36 -45 -36c-12 0 -20 11 -20 23c0 15 20 37 42 37c13 0 23 -11 23 -24zM457 467c0 -17 -23 -36 -45 -36c-12 0 -20 11 -20 23c0 15 20 37 42 37c13 0 23 -11 23 -24zM410 176c-23 -24 -179 -184 -242 -184c-20 0 -44 12 -44 41c0 18 3 32 9 49
c-19 -20 -86 -84 -124 -84c-24 0 -40 22 -40 46c0 137 230 281 287 281c19 0 36 -17 34 -36l25 30h72l-188 -226c-10.3164 -12.4014 -41 -61 -41 -73c0 -9 4 -14 12 -14c44 0 158 103 223 170h17zM16 15c28 0 104 70 112 80l114 138c17 20 31 48 31 59s-8 20 -19 20
c-40 0 -249 -242 -249 -285c0 -8 5 -12 11 -12z" />
    <glyph glyph-name="aring" unicode="&#xe5;" horiz-adv-x="364" 
d="M321 427c0 30 42 69 79 69c18 0 28 -10 28 -24c0 -29 -41 -70 -79 -70c-18 0 -28 10 -28 25zM340 434c0 -9 6 -15 18 -15c26 0 50 27 50 45c0 9 -6 15 -17 15c-23 0 -51 -23 -51 -45zM410 176c-23 -24 -179 -184 -242 -184c-20 0 -44 12 -44 41c0 18 3 32 9 49
c-19 -20 -86 -84 -124 -84c-24 0 -40 22 -40 46c0 137 230 281 287 281c19 0 36 -17 34 -36l25 30h72l-188 -226c-10.3164 -12.4014 -41 -61 -41 -73c0 -9 4 -14 12 -14c44 0 158 103 223 170h17zM16 15c28 0 104 70 112 80l114 138c17 20 31 48 31 59s-8 20 -19 20
c-40 0 -249 -242 -249 -285c0 -8 5 -12 11 -12z" />
    <glyph glyph-name="ae" unicode="&#xe6;" horiz-adv-x="437" 
d="M410 176h-17h17zM436 307c0 5 -3 10 -8 10c-24 0 -101 -75 -159 -150c92 7 167 113 167 140zM255 148c-33 -45 -57 -87 -57 -111c0 -20 13 -31 40 -31c53 0 148 91 228 170h17c-32 -30 -167 -182 -245 -182c-55 0 -79 32 -79 74c0 18 3 37 10 54
c-30 -38 -117 -124 -160 -124c-24 0 -40 22 -40 46c0 137 230 281 287 281c19 0 36 -17 34 -36l25 30h70c17 7 31 11 41 11c15 0 30 -12 30 -29c0 -52 -111 -151 -201 -153zM16 15c28 0 104 70 112 80l114 138c17 20 31 48 31 59s-8 20 -19 20c-40 0 -249 -242 -249 -285
c0 -8 5 -12 11 -12z" />
    <glyph glyph-name="ccedilla" unicode="&#xe7;" horiz-adv-x="265" 
d="M294 176h17c-28 -32 -167 -182 -245 -182h-10l-19 -19c4 -4 8 -10 8 -18c0 -21 -25 -34 -43 -34c-16 0 -22 8 -22 8l7 7s8 -4 13 -4c14 0 27 8 27 22c0 7 -7 13 -7 13l24 27c-40 8 -57 36 -57 72c0 138 226 269 273 269c15 0 29 -13 29 -29c0 -44 -31 -94 -63 -94
c-13 0 -21 12 -21 25c0 32 45 60 60 67c0 0 4 3 4 8s-4 10 -9 10c-40 0 -234 -219 -234 -287c0 -20 13 -31 40 -31c51 0 152 85 228 170z" />
    <glyph glyph-name="egrave" unicode="&#xe8;" horiz-adv-x="266" 
d="M305 431c-11 0 -99 63 -99 95c0 18 7 24 19 24c7 0 20 -12 22 -25c2 -18 9 -34 19 -49c11 -16 26 -30 43 -43zM265 307c0 5 -3 10 -8 10c-24 0 -101 -75 -159 -150c92 7 167 113 167 140zM84 148c-33 -45 -57 -87 -57 -111c0 -20 13 -31 40 -31c53 0 148 91 228 170h17
c-32 -30 -167 -182 -245 -182c-55 0 -79 32 -79 74c0 138 213 262 267 262c15 0 30 -12 30 -29c0 -52 -111 -151 -201 -153z" />
    <glyph glyph-name="eacute" unicode="&#xe9;" horiz-adv-x="266" 
d="M285 437c31 21 55 53 58 76c2.61523 20.0537 10 38 28 38c9.05566 0 15 -12 15 -23c0 -34.2344 -61 -84 -98 -97zM265 307c0 5 -3 10 -8 10c-24 0 -101 -75 -159 -150c92 7 167 113 167 140zM84 148c-33 -45 -57 -87 -57 -111c0 -20 13 -31 40 -31c53 0 148 91 228 170
h17c-32 -30 -167 -182 -245 -182c-55 0 -79 32 -79 74c0 138 213 262 267 262c15 0 30 -12 30 -29c0 -52 -111 -151 -201 -153z" />
    <glyph glyph-name="ecircumflex" unicode="&#xea;" horiz-adv-x="266" 
d="M195 437c56 26 110 62 162 103h26s-23 -60.9824 -23 -89c0 -5 1 -12 1 -12l-10 -8s-20 33 -20 51c0 6 2 10 4 16c-44 -30 -91.0342 -53.2822 -143 -67zM265 307c0 5 -3 10 -8 10c-24 0 -101 -75 -159 -150c92 7 167 113 167 140zM84 148c-33 -45 -57 -87 -57 -111
c0 -20 13 -31 40 -31c53 0 148 91 228 170h17c-32 -30 -167 -182 -245 -182c-55 0 -79 32 -79 74c0 138 213 262 267 262c15 0 30 -12 30 -29c0 -52 -111 -151 -201 -153z" />
    <glyph glyph-name="edieresis" unicode="&#xeb;" horiz-adv-x="266" 
d="M271 467c0 -17 -23 -36 -45 -36c-12 0 -20 11 -20 23c0 15 20 37 42 37c13 0 23 -11 23 -24zM400 467c0 -17 -23 -36 -45 -36c-12 0 -20 11 -20 23c0 15 20 37 42 37c13 0 23 -11 23 -24zM265 307c0 5 -3 10 -8 10c-24 0 -101 -75 -159 -150c92 7 167 113 167 140z
M84 148c-33 -45 -57 -87 -57 -111c0 -20 13 -31 40 -31c53 0 148 91 228 170h17c-32 -30 -167 -182 -245 -182c-55 0 -79 32 -79 74c0 138 213 262 267 262c15 0 30 -12 30 -29c0 -52 -111 -151 -201 -153z" />
    <glyph glyph-name="igrave" unicode="&#xec;" horiz-adv-x="204" 
d="M311 431c-11 0 -99 63 -99 95c0 18 7 24 19 24c7 0 20 -12 22 -25c2 -18 9 -34 19 -49c11 -16 26 -30 43 -43zM250 176c-29 -30 -185 -184 -248 -184c-21 0 -45 13 -45 43c0 34 31 91 68 137l122 147h75l-194 -233c-5 -7 -41 -53 -41 -66c0 -9 6 -14 16 -14
c48 0 169 108 230 170h17z" />
    <glyph glyph-name="iacute" unicode="&#xed;" horiz-adv-x="204" 
d="M238 437c31 21 55 53 58 76c2.61523 20.0537 10 38 28 38c9.05566 0 15 -12 15 -23c0 -34.2344 -61 -84 -98 -97zM250 176c-29 -30 -185 -184 -248 -184c-21 0 -45 13 -45 43c0 34 31 91 68 137l122 147h75l-194 -233c-5 -7 -41 -53 -41 -66c0 -9 6 -14 16 -14
c48 0 169 108 230 170h17z" />
    <glyph glyph-name="icircumflex" unicode="&#xee;" horiz-adv-x="204" 
d="M152 437c56 26 110 62 162 103h26s-23 -60.9824 -23 -89c0 -5 1 -12 1 -12l-10 -8s-20 33 -20 51c0 6 2 10 4 16c-44 -30 -91.0342 -53.2822 -143 -67zM250 176c-29 -30 -185 -184 -248 -184c-21 0 -45 13 -45 43c0 34 31 91 68 137l122 147h75l-194 -233
c-5 -7 -41 -53 -41 -66c0 -9 6 -14 16 -14c48 0 169 108 230 170h17z" />
    <glyph glyph-name="idieresis" unicode="&#xef;" horiz-adv-x="204" 
d="M214 467c0 -17 -23 -36 -45 -36c-12 0 -20 11 -20 23c0 15 20 37 42 37c13 0 23 -11 23 -24zM343 467c0 -17 -23 -36 -45 -36c-12 0 -20 11 -20 23c0 15 20 37 42 37c13 0 23 -11 23 -24zM250 176c-29 -30 -185 -184 -248 -184c-21 0 -45 13 -45 43c0 34 31 91 68 137
l122 147h75l-194 -233c-5 -7 -41 -53 -41 -66c0 -9 6 -14 16 -14c48 0 169 108 230 170h17z" />
    <glyph glyph-name="ntilde" unicode="&#xf1;" horiz-adv-x="435" 
d="M283 431l-4 3c18 23 52 59 81 59c35 0 37 -24 72 -24c17 0 35 16 48 31h7c-12 -17 -47 -60 -83 -60c-32 0 -34 23 -66 23c-19 0 -39 -14 -55 -32zM369 309c-36.0137 0 -141 -103 -175 -144l-139 -165h-75l214 258c8 10 22 23 22 41c0 5 -2 11 -8 11
c-25 0 -89 -63 -162 -134h-17c78 76 149 149 180 149c24 0 36 -16 36 -43c0 -13 -10 -37 -23 -63c9 11 102 106 155 106c19 0 33 -12 33 -40c0 -85 -182 -222.988 -182 -267c0 -10 11 -11 18 -11c35.0137 0 176 128 218 169h17c-71 -67 -190 -186 -244 -186
c-27 0 -40 18 -40 42c0 112.018 182 235 182 266c0 6 -5 11 -10 11z" />
    <glyph glyph-name="ograve" unicode="&#xf2;" horiz-adv-x="308" 
d="M348 431c-11 0 -99 63 -99 95c0 18 7 24 19 24c7 0 20 -12 22 -25c2 -18 9 -34 19 -49c11 -16 26 -30 43 -43zM15 6c35 0 100 56 155 120c-3 7 -5 15 -5 25c0 25 28 57 57 57c3 0 6 -1 9 -2c24 37 40 70 40 90c0 8 -5 16 -12 16c-26 0 -254 -237 -254 -294
c0 -6 4 -12 10 -12zM354 176c-14 -14 -77 -76 -139 -76c-12 0 -23 2 -31 8c-59 -64 -129 -116 -171 -116c-23 0 -41 20 -41 43c0 151 211 290 290 290c17 0 30 -13 30 -30c0 -45 -44 -115 -99 -177c6 -4 14 -6 22 -6c48 0 99 41 122 64h17z" />
    <glyph glyph-name="oacute" unicode="&#xf3;" horiz-adv-x="308" 
d="M288 437c31 21 55 53 58 76c2.61523 20.0537 10 38 28 38c9.05566 0 15 -12 15 -23c0 -34.2344 -61 -84 -98 -97zM15 6c35 0 100 56 155 120c-3 7 -5 15 -5 25c0 25 28 57 57 57c3 0 6 -1 9 -2c24 37 40 70 40 90c0 8 -5 16 -12 16c-26 0 -254 -237 -254 -294
c0 -6 4 -12 10 -12zM354 176c-14 -14 -77 -76 -139 -76c-12 0 -23 2 -31 8c-59 -64 -129 -116 -171 -116c-23 0 -41 20 -41 43c0 151 211 290 290 290c17 0 30 -13 30 -30c0 -45 -44 -115 -99 -177c6 -4 14 -6 22 -6c48 0 99 41 122 64h17z" />
    <glyph glyph-name="ocircumflex" unicode="&#xf4;" horiz-adv-x="308" 
d="M190 437c56 26 110 62 162 103h26s-23 -60.9824 -23 -89c0 -5 1 -12 1 -12l-10 -8s-20 33 -20 51c0 6 2 10 4 16c-44 -30 -91.0342 -53.2822 -143 -67zM15 6c35 0 100 56 155 120c-3 7 -5 15 -5 25c0 25 28 57 57 57c3 0 6 -1 9 -2c24 37 40 70 40 90c0 8 -5 16 -12 16
c-26 0 -254 -237 -254 -294c0 -6 4 -12 10 -12zM354 176c-14 -14 -77 -76 -139 -76c-12 0 -23 2 -31 8c-59 -64 -129 -116 -171 -116c-23 0 -41 20 -41 43c0 151 211 290 290 290c17 0 30 -13 30 -30c0 -45 -44 -115 -99 -177c6 -4 14 -6 22 -6c48 0 99 41 122 64h17z" />
    <glyph glyph-name="otilde" unicode="&#xf5;" horiz-adv-x="308" 
d="M233 431l-4 3c18 23 52 59 81 59c35 0 37 -24 72 -24c17 0 35 16 48 31h7c-12 -17 -47 -60 -83 -60c-32 0 -34 23 -66 23c-19 0 -39 -14 -55 -32zM15 6c35 0 100 56 155 120c-3 7 -5 15 -5 25c0 25 28 57 57 57c3 0 6 -1 9 -2c24 37 40 70 40 90c0 8 -5 16 -12 16
c-26 0 -254 -237 -254 -294c0 -6 4 -12 10 -12zM354 176c-14 -14 -77 -76 -139 -76c-12 0 -23 2 -31 8c-59 -64 -129 -116 -171 -116c-23 0 -41 20 -41 43c0 151 211 290 290 290c17 0 30 -13 30 -30c0 -45 -44 -115 -99 -177c6 -4 14 -6 22 -6c48 0 99 41 122 64h17z" />
    <glyph glyph-name="odieresis" unicode="&#xf6;" horiz-adv-x="308" 
d="M308 467c0 -17 -23 -36 -45 -36c-12 0 -20 11 -20 23c0 15 20 37 42 37c13 0 23 -11 23 -24zM437 467c0 -17 -23 -36 -45 -36c-12 0 -20 11 -20 23c0 15 20 37 42 37c13 0 23 -11 23 -24zM15 6c35 0 100 56 155 120c-3 7 -5 15 -5 25c0 25 28 57 57 57c3 0 6 -1 9 -2
c24 37 40 70 40 90c0 8 -5 16 -12 16c-26 0 -254 -237 -254 -294c0 -6 4 -12 10 -12zM354 176c-14 -14 -77 -76 -139 -76c-12 0 -23 2 -31 8c-59 -64 -129 -116 -171 -116c-23 0 -41 20 -41 43c0 151 211 290 290 290c17 0 30 -13 30 -30c0 -45 -44 -115 -99 -177
c6 -4 14 -6 22 -6c48 0 99 41 122 64h17z" />
    <glyph glyph-name="divide" unicode="&#xf7;" horiz-adv-x="433" 
d="M218 226h267l-25 -30h-267zM272 152c20 0 37 -17 37 -37s-17 -37 -37 -37s-37 17 -37 37c0 21 17 37 37 37zM409 348c20 0 37 -17 37 -37s-17 -37 -37 -37s-37 17 -37 37c0 21 16 37 37 37z" />
    <glyph glyph-name="ugrave" unicode="&#xf9;" horiz-adv-x="352" 
d="M146 134l152 185h75l-196 -233c-6 -7 -41 -53 -41 -66c0 -9 6 -14 16 -14c48 0 168 108 229 170h17c-29 -30 -184 -184 -247 -184c-21 0 -45 13 -45 43c0 11 3 24 9 39c-37 -39 -78 -74 -109 -74c-21 0 -45 13 -45 43c0 34 11 60 48 107l134 169h75l-186 -225
c-6 -7 -41 -53 -41 -66c0 -9 6 -14 16 -14c29 0 91 61 139 120zM364 431c-11 0 -99 63 -99 95c0 18 7 24 19 24c7 0 20 -12 22 -25c2 -18 9 -34 19 -49c11 -16 26 -30 43 -43z" />
    <glyph glyph-name="uacute" unicode="&#xfa;" horiz-adv-x="352" 
d="M146 134l152 185h75l-196 -233c-6 -7 -41 -53 -41 -66c0 -9 6 -14 16 -14c48 0 168 108 229 170h17c-29 -30 -184 -184 -247 -184c-21 0 -45 13 -45 43c0 11 3 24 9 39c-37 -39 -78 -74 -109 -74c-21 0 -45 13 -45 43c0 34 11 60 48 107l134 169h75l-186 -225
c-6 -7 -41 -53 -41 -66c0 -9 6 -14 16 -14c29 0 91 61 139 120zM298 437c31 21 55 53 58 76c2.61523 20.0537 10 38 28 38c9.05566 0 15 -12 15 -23c0 -34.2344 -61 -84 -98 -97z" />
    <glyph glyph-name="ucircumflex" unicode="&#xfb;" horiz-adv-x="352" 
d="M146 134l152 185h75l-196 -233c-6 -7 -41 -53 -41 -66c0 -9 6 -14 16 -14c48 0 168 108 229 170h17c-29 -30 -184 -184 -247 -184c-21 0 -45 13 -45 43c0 11 3 24 9 39c-37 -39 -78 -74 -109 -74c-21 0 -45 13 -45 43c0 34 11 60 48 107l134 169h75l-186 -225
c-6 -7 -41 -53 -41 -66c0 -9 6 -14 16 -14c29 0 91 61 139 120zM226 437c56 26 110 62 162 103h26s-23 -60.9824 -23 -89c0 -5 1 -12 1 -12l-10 -8s-20 33 -20 51c0 6 2 10 4 16c-44 -30 -91.0342 -53.2822 -143 -67z" />
    <glyph glyph-name="udieresis" unicode="&#xfc;" horiz-adv-x="352" 
d="M146 134l152 185h75l-196 -233c-6 -7 -41 -53 -41 -66c0 -9 6 -14 16 -14c48 0 168 108 229 170h17c-29 -30 -184 -184 -247 -184c-21 0 -45 13 -45 43c0 11 3 24 9 39c-37 -39 -78 -74 -109 -74c-21 0 -45 13 -45 43c0 34 11 60 48 107l134 169h75l-186 -225
c-6 -7 -41 -53 -41 -66c0 -9 6 -14 16 -14c29 0 91 61 139 120zM298 467c0 -17 -23 -36 -45 -36c-12 0 -20 11 -20 23c0 15 20 37 42 37c13 0 23 -11 23 -24zM427 467c0 -17 -23 -36 -45 -36c-12 0 -20 11 -20 23c0 15 20 37 42 37c13 0 23 -11 23 -24z" />
    <glyph glyph-name="OE" unicode="&#x152;" horiz-adv-x="1013" 
d="M907 345c-44 0 -77 10 -100 29c-154 -52 -258 -194 -258 -285c0 -18 11 -46 33 -67c18 -17 44 -30 79 -30c140 0 273 147 273 237c0 41 -34 73 -75 73c-112 0 -200 -69 -226 -175c-1 -3 -4 -6 -7 -5s-6 4 -5 7c28 112 120 185 238 185c47 0 87 -38 87 -85
c0 -96 -137 -249 -285 -249c-92 0 -148 69 -148 180c0 144 135 210 278 231c-11 15 -17 34 -18 55c-47 5 -92 20 -126 43c-50 -162 -352 -513 -516 -513c-55 0 -96 51 -96 107c0 265 435 521 582 561c32 33 91 46 141 46c68 0 136 -31 136 -31c3 -1 4 -4 3 -7s-4 -4 -7 -3
c-18 8 -79 29 -132 29c-51 0 -104 -13 -133 -43l-2 -2c-12 -13 -19 -31 -19 -51v-6h5c26 0 45 -23 45 -48c0 -8 -2 -17 -4 -27c32 -23 77 -38 123 -43c8 115 204 207 364 207c22 0 43 -16 43 -39c0 -91 -207 -182 -368 -182h-3c-4 -9 -6 -18 -6 -26s2 -17 7 -25
c32 4 65 6 96 6c24 0 60 -6 60 -30c0 -19 -34 -24 -59 -24zM954 369c0 11 -21 18 -48 18c-28 0 -62 -3 -83 -8c16 -13 42 -22 84 -22c20 0 47 4 47 12zM815 456c152 1 353 87 353 170c0 15 -16 27 -32 27c-22 0 -44 -1 -66 -7c-100 -26 -218 -121 -255 -190zM79 50
c0 -44 14 -62 52 -62c159 0 463 354 506 508c-22 18 -38 40 -43 67c-112 -16 -277 -204 -347 -297c-2 -3 -6 -3 -9 -1s-3 6 -1 9c58 76 232 283 355 301v7c0 16 3 31 10 43c-88 -38 -231 -160 -346 -286c-99 -110 -177 -223 -177 -289zM606 564c4 -21 17 -40 34 -55
c1 7 2 13 2 19c0 19 -15 36 -33 36h-3z" />
    <glyph glyph-name="oe" unicode="&#x153;" horiz-adv-x="450" 
d="M15 6c70.0068 0 256 216.973 256 290c0 8 -5 16 -12 16c-26 0 -254 -237 -254 -294c0 -6 4 -12 10 -12zM268 148c-33 -45 -56.999 -87.0029 -56.999 -111.003c0 -20 13 -31 40 -31c53 0 148 91 228 170h17c-32 -30 -167 -182 -245 -182c-55 0 -79 32 -79 74
c0 10.2295 1.16992 20.3818 3.35938 30.4121c-55.2998 -59.0879 -118.661 -106.411 -162.358 -106.411c-23 0 -41 20 -41 43c0 151 211 290 290 290c17 0 30 -13 30 -30c0 -13.5098 -4.78516 -30.5107 -13.2061 -49.5293c61.5947 51.2568 132.231 84.5312 160.204 84.5312
c15 0 30 -12 30 -29c0 -52 -111 -151 -201 -153zM449.001 306.997c0 5 -3 10 -8 10c-24 0 -101 -75 -159 -150c92 7 167 113 167 140z" />
  </font>
</defs>
</svg>
