<svg xmlns="http://www.w3.org/2000/svg" viewBox="0 0 460.5 594.25"><path d="M432.27 333.43c-1.52 2.28.76 10.65 1.52 16.74s3.81 10.65 3 14.46-6.09 8.37-8.37 9.13c-.76 1.52-1.52 1.52-3.81 3.81 5.33 3 8.37 7.61 7.61 12.18s-10.65 15.22-17.5 22.07c8.37 16 8.37 22.07 8.37 25.87s0 13.7-12.18 24.35-26.64 10.65-35 9.89-14.46 0-33.48 1.52-28.92 12.18-35 19.79c-5.94 7.44-32.21 59.14-33.44 61.55-17.61-17.88-56-57-71.58-73.73C181.89 459 162.11 443 153 435.4c-5.92-4.94-33.94-28.77-55.6-48.22h0c2.85-14.26 6.61-34.12 6.13-37-.76-4.57-20.55-84.47-22.07-88.28s22.07-105.78 22.07-105.78 81.41-83.72 159.79-80.68 87.52 31.2 105 44.14S394.22 169 397.26 185c12.18 14.46 13.7 22.07 15.22 28.16s-.76 12.94-3 15.22c-.76 2.28-4.57 17.5 8.37 25.87s17.5 16 22.07 21.31 16 11.42 19.79 29.68-25.92 25.91-27.44 28.19z" fill="#fff" stroke="#000" stroke-miterlimit="10"/><path d="M426.75 325.1s1.2-.33 3.32-1c1.06-.35 2.36-.79 3.83-1.38.73-.29 1.51-.62 2.31-1a11.1 11.1 0 0 0 2.33-1.44c1.94-1.28-1.07-2.48-3-2.23a19.76 19.76 0 0 0-6.73 2.55c-4.56 2.54-9.31 5.9-14.35 9.35l-3.73 2.56a19.06 19.06 0 0 1-4 2.24 8.57 8.57 0 0 1-4.6.49 8 8 0 0 1-3.94-2 12.33 12.33 0 0 1-2.49-3.23 19.72 19.72 0 0 1-1.52-3.44 31.28 31.28 0 0 1-1.44-6.5 25.6 25.6 0 0 1 .48-9.53 7 7 0 0 1 1.07-2.36 4.42 4.42 0 0 1 .62-.65 4.52 4.52 0 0 0-.56.7 7 7 0 0 0-.87 2.38 26.39 26.39 0 0 0 .14 9.33 32 32 0 0 0 1.7 6.2 19.07 19.07 0 0 0 1.56 3.16 11.13 11.13 0 0 0 2.3 2.8 6.52 6.52 0 0 0 3.22 1.56 7 7 0 0 0 3.71-.49 18 18 0 0 0 3.61-2.1l3.72-2.58a145.31 145.31 0 0 1 14.66-9.21 20.24 20.24 0 0 1 7.35-2.43 6.3 6.3 0 0 1 3.6.86 3.24 3.24 0 0 1 .73.65 1.55 1.55 0 0 1 .36 1.07 2.41 2.41 0 0 1-1 1.56 11.58 11.58 0 0 1-2.6 1.41c-.85.35-1.66.64-2.42.88-1.52.49-2.85.84-3.94 1.11-2.18.49-3.43.71-3.43.71zm-21.06-100.2a22.15 22.15 0 0 1-7.74 1.9l-4.57 1.14 1.76-1.23a66.31 66.31 0 0 0-8.63 1.16L373 234l2.41-2.16c-3.73 1.81-8.94 5-12.68 7l-7.36 4.82.51-2c-1.93 1-4 2.66-5.84 3.68-9.13 5.14-20.49 16.54-21 16-.73-.73 4.69-7.1 11.67-13.83 3.28-3.16 7.69-7.07 12.4-11l8.28-7.68-1.39 2.07q1.5-1.15 3-2.25l8.69-6.93-.28 1.27a75.14 75.14 0 0 1 13.6-5.48l10.91-4.42-3 2.07c1.82-.53 3.53-1 5.06-1.54.65-.22 1.28-.43 1.86-.65 4.53-1.7 7.63-3.93 10.13-5 2.75-1.23 4.79-1.09 7.25 2.63 4.41 6.62-3.92 10.4-11.53 14.3zM385 272.21a12.67 12.67 0 0 0-2.59-2.78 13.27 13.27 0 0 0-5-2.66c-.62-.22 2 1.55 2 1.55s-3.21-1.58-2.85-1.36a18.26 18.26 0 0 1 2.68 2c1.45 1.27 3 2.25 3.69 4.43a13.67 13.67 0 0 0-4.14-3.88c-1.48-1-3.81-2.41-3.81-2.41l.33.33a5.66 5.66 0 0 1 .4 1 8.47 8.47 0 0 0-.73-.86 2.69 2.69 0 0 0-.53-.17 4.8 4.8 0 0 0 .31.5c.88 1.15.26 3.08 1.14 3.89-1.67-.9-.94-2.75-1.83-3.68a11.46 11.46 0 0 1-1.11-1.36 3.67 3.67 0 0 1 .08.42 7 7 0 0 1-.13 1 3.58 3.58 0 0 0-.16-1 2.84 2.84 0 0 0-.47-.56 6.73 6.73 0 0 0 .21 1.43c.18.78-.3 1.71-1 3.07 0-1.33.78-2 .33-3.05-.56-1.3-.87-1.94-.87-1.94s.14.7.14.9a15.78 15.78 0 0 1-.39 1.75s.13-1.41.09-1.93a1.93 1.93 0 0 0-.21-.81 4.23 4.23 0 0 1 0 1.25 12.29 12.29 0 0 1-1.23 3.46 16.9 16.9 0 0 0 .56-3.68 2.85 2.85 0 0 0-.57-1.64 8.43 8.43 0 0 1 0 1.13 26 26 0 0 1-.59 2.66 22.12 22.12 0 0 0 .19-2.6 11.1 11.1 0 0 0-.32-1.78 9.39 9.39 0 0 0-.67 3.23 10.68 10.68 0 0 1-.19-3.4 1.82 1.82 0 0 0-.22.5 11.1 11.1 0 0 0-.13 1.25 12.22 12.22 0 0 1-.05-1.31.52.52 0 0 0-.12-.43 15.84 15.84 0 0 1-1.88 4.79 33.65 33.65 0 0 0 1.52-6.38 4.69 4.69 0 0 0-.19.53c-.09.3-.34 1.11-.34 1.11s.1-.91.13-1.22 0-.53 0-.53a8.36 8.36 0 0 1-.62 1.69 3.41 3.41 0 0 1-2.72 1.39 3.35 3.35 0 0 0 2.35-1.67 5.3 5.3 0 0 0 .44-1.62 2.7 2.7 0 0 0-.38.58c-.13.29-.68 1.39-.68 1.39a12.85 12.85 0 0 1 .43-1.58 1 1 0 0 0 .13-.48 4.2 4.2 0 0 1-1.14 1.42 3.09 3.09 0 0 1-2.93.22 2.66 2.66 0 0 0 2.69-.49c.56-.51.1-1.31.08-2.07-1.58-1-2.37-2-3.9-3.09a31.19 31.19 0 0 0 4.91 1.74 5 5 0 0 1 1.17.54 14.14 14.14 0 0 0 2.4 1.15l1.61.76c.24.11.67.33.89.4l.92.38c1.1.42 1.67.71 2.59 1a5.23 5.23 0 0 0 2.43 0 2.75 2.75 0 0 0 1.17-.76 2.47 2.47 0 0 0 .52-1.17v-.18a.51.51 0 0 0 0-.15 3.16 3.16 0 0 0 0-.35v-.15a5.65 5.65 0 0 0-.15-.59 4.73 4.73 0 0 0-.67-1.4 4 4 0 0 1 1.13 1.19 6.44 6.44 0 0 1 .4.72 6.57 6.57 0 0 1 6.89 4.73 6.54 6.54 0 0 0-3.1-3 8.9 8.9 0 0 0-3.5-.66c-.18 0-.28.05-.3.11s.08.23.33.31c.76.27 2.6.43 3.48 1a8 8 0 0 1 3 3.68 7.51 7.51 0 0 0-6.78-3.45h-.27l.23.05a10.9 10.9 0 0 1 2.18.78 10.57 10.57 0 0 1 2.18 1.4 11.82 11.82 0 0 0-5-1.27h-.56l.45.11a12.64 12.64 0 0 1 4.5 1.83 10.27 10.27 0 0 1 3.08 3.53 16.17 16.17 0 0 0-3.46-2.76 12.13 12.13 0 0 0-4-1.61 12.35 12.35 0 0 1 4.35 2.48c.8.78 1.03.95 1.75 3.16z"/><path d="M380.72 256c-.17 1.16-.91 5.38-2.67 7.38a2.55 2.55 0 0 1-2.85.94c-3.85-1.24-7.23-3.57-9-4.28s-5.33-.38-5.46-1.29c0 0 16.83-10.27 18.4-11 .38-.18.68.11.93.68.71 1.73.84 6.28.65 7.57z" fill="#fff" stroke="#000" stroke-miterlimit="10" stroke-width=".25"/><path d="M381.05 256.5c-.62 4.25-3 7.41-3.9 7.28s0-3.41.62-7.66.78-7.71 1.71-7.57 2.2 3.7 1.57 7.95z" stroke="#000" stroke-miterlimit="10" stroke-width=".25"/><path d="M384.7 246.22c-.2-.06 1.81 1.14 1.81 1.14s-2.51-.86-2.38-.76c3.66 2.68 7.86 2.83 12.44 3.19-4.65.81-10.71-.89-15.09-2 2.68 1.43 6.28 2.44 12.57 3.79-3.7.21-7.3-1.17-10.74-2.18a32.55 32.55 0 0 0 11.4 3.87c-4.26-.15-10.48-2.57-14.43-4.35 2.69 2.16 7.2 4.61 10.59 6.66-5-2.18-7.55-3.23-13.38-6.19-.37-.18 1.81 1.1 1.9 1.18-.27-.1-2.42-1.26-2.09-1.06 5.1 3.08 8.64 5.48 13.41 8.07-5.4-1.55-9.57-4-14.41-7.4-.37-.26 1.31 1 1.36 1.14-.17-.08-2-1.2-1.62-1 4.24 2.75 4.24 4.23 11.94 8.84-2.63-1.45-4.81-1.89-7.73-3.09-2.26-.93-4-3-5.92-4.62-.32-.27 1.66 1.89 1.66 1.89s-2.1-2.07-1.84-1.77l5.79 7a32.23 32.23 0 0 1-7-6.21c-.22-.25 1.75 2.61 1.75 2.61s-2.11-2.78-2-2.47c1.18 2.42 4.21 4.11 5.66 7.3-2.43-2.66-4.91-4.27-7.17-6.33-.24-.22 1.77 2.16 1.91 2.44-.29-.17-2.39-2.52-2.25-2.24a16.57 16.57 0 0 0 9.16 8.74 14.19 14.19 0 0 1-10.34-8.08c-.11-.23.89 2.92.89 2.92s-1.14-3.06-1.11-2.79a24.21 24.21 0 0 0 2.82 9 20.93 20.93 0 0 1-4.09-8.36 10.14 10.14 0 0 0 .31 2.8c-.45-.83-.84-3.16-.87-2.5a14.56 14.56 0 0 0 1.7 7.56l-3.68-6.52c-.1-.17.8 3.27.71 3.1-.07.24-1.11-3.12-1.15-2.88a13.23 13.23 0 0 0 .9 6.14c-.81-1.7-2-3.37-3-5.06-.22-.37.68 2.22.76 2.6-.29-.07-1.56-2.67-1.58-2.19-.15 3.11 1.48 5.42.65 8.83.24-2.31-1.79-5-1.86-5.82s-.82-1.16-1-1.91l-1.08.56-.64.33-.26.15-.28.21-2.34 1.82c-1.56 1.23-3.15 2.44-4.66 3.74a46.5 46.5 0 0 1 4-4.51c.69-.73 1.4-1.42 2.14-2.12l.28-.27.37-.27.63-.44 1.28-.8.47-.29c3.23-2 6.58-3.86 9.81-5.73 1.58-1 3.32-2.15 5-3.2.85-.53 1.73-1 2.62-1.51.44-.24.9-.48 1.38-.71s1-.4 1.48-.57c1.95-.64 3.61-1.19 5-2.59a10.84 10.84 0 0 1 1.55-1.13c5-1.09 4.09.41 11.07.35-2 .76-3.16.82-8.23.39-.19 0 2.27.47 2.27.47s-2.83-.24-2.54-.17a53.74 53.74 0 0 0 8.7 1.26c-3.55.72-7.94-.06-11.64-.74-.25 0 3.9 1 3.9 1s-4.24-1-4-.88c3.55 1.59 8 1.93 11.86 2a34.18 34.18 0 0 1-12.79-.92c-.31-.08 1.68.68 1.68.68s-2.12-.65-1.85-.52a30 30 0 0 0 12.56 2.59 30.88 30.88 0 0 1-13.1-1.21zm39.22 131.22l1.59.85a12.81 12.81 0 0 1-4 4 48.54 48.54 0 0 1-4.78 2.45 17.72 17.72 0 0 1-2.54.91c-.9.24-1.76.29-2.6.51a10.54 10.54 0 0 0-4.64 2.27 10.76 10.76 0 0 1 4.52-2.7c.84-.3 1.74-.44 2.53-.72a17 17 0 0 0 2.35-1.07 47.79 47.79 0 0 0 4.41-2.76 11.33 11.33 0 0 0 3.16-3.74z"/><path d="M378.87 99.22c5-6.37 7.74-15.79 2.4-29.87-8.37-22.07-12.94-25.87-20.55-31.2-2.65-1.86-7.14-2.88-12.06-3.36a66.94 66.94 0 0 0-10.76-10.33 31.12 31.12 0 0 0-15.59-6.31C303-5.38 287-5 276.61 13.25a90.54 90.54 0 0 0-16.54.68q-1.74-.82-3.6-1.64c-28.28-12.56-61.22-7-83 10.35-3.68-.75-7.71-1.41-12.14-2-50.84-6.52-64.28 23.81-86.22 48-2.1 1.39-3.6 2.46-4.35 3-6.85 5.33-9.89-3-21.31-.76S23.6 92.19 23.6 92.19s9.89-6.09 23.59-13.7c6.4-3.55 9.81-.63 12.87 2.33-19.91 12-33.2 30.65-40 45.34-20 14.75-6.21 46.65 4.38 65.22 1.37 6.34 2.5 11.57 2.95 14.2 2 12.18-11.7 37.94-12.16 38.79.55-.61 13.48-15.2 20.53-28.9a9.55 9.55 0 0 1 1.55-1.7c.11.43.21.87.3 1.31-.41.47-.75.82-1.09 1.16a3.93 3.93 0 0 0 1.27-.2q.09.51.17 1a12.62 12.62 0 0 1-1.44 2.22 10.24 10.24 0 0 0 1.6-1q.07.58.12 1.18a8.16 8.16 0 0 1-1 1.38 6.48 6.48 0 0 0 1-.45q0 .58.06 1.16a18.93 18.93 0 0 1-1.86 2.34c.58-.29 1.27-.69 1.9-1.07v1.81a12.64 12.64 0 0 1-1.14 1.54l1.11-.39q0 1.21-.13 2.44l-.23.23.22-.07q-.08 1.14-.2 2.28c-.25.29-.51.58-.78.84a5.07 5.07 0 0 0 .69-.06c-2 17.33-9.54 35.17-9.82 35.81a172.51 172.51 0 0 0 11.44-22.44 12.89 12.89 0 0 1 3-1.14s-3 3.81-3.81 6.09c0 0 3-3 3.81-3 0 0-2.28 5.33-2.28 6.85l3-2.28a45.07 45.07 0 0 0-3 4.57c1.52-.76 3.81-2.28 3.81-2.28s-2.28 3.81-3 5.33a32 32 0 0 0 3.81-1.52 45.07 45.07 0 0 0-3 4.57c1.52-.76 2.28-1.52 3.81-1.52a13.06 13.06 0 0 0-3 4.57s2.28-3 3.81-3a60.34 60.34 0 0 0-3 6.85c2.28-1.52 3-1.52 3-1.52s-2.28 5.33-3 6.85L48 271a56.05 56.05 0 0 1-3.81 4.57 18.84 18.84 0 0 0 4.57-3l-2.28 6.09 2.28-2.28a20.08 20.08 0 0 1-.76 5.33c1.52-.76 2.28-3 2.28-3s0 6.85-1.52 8.37c3-3 3-5.33 3-5.33s.7 7.67-.58 10.33c2.07-3.7 2.24-5.48 2.18-6.16.28 1.43 1.24 6.9-.07 9.53l2.28-2.28a15.17 15.17 0 0 1-1.57 6.01 10.69 10.69 0 0 0 3-3s0 3.81-2.28 6.09a14.4 14.4 0 0 0 4.57-3 33.61 33.61 0 0 1-2.28 6.09 7 7 0 0 0 2.13-2.39c-.72 1.74-1.68 4.1-2.13 5.43a46.58 46.58 0 0 1 3.81-4.57s-1.52 6.85-2.28 8.37l3-5.33s-.76 5.33-.76 7.61a39.53 39.53 0 0 0 2.28-3.81 63.74 63.74 0 0 1-1.52 7.61 27.47 27.47 0 0 0 3-3.81s0 5.33-1.52 7.61c0 0 3-1.52 3-3 0 0 0 3.81-1.52 6.09 0 0 .76 0 2.28-1.52a11.77 11.77 0 0 1-2.28 4.57 10.73 10.73 0 0 0 3.81-2.28s-1.5 2.1-2.8 4c-9.29 4.13-7.07 18.86-6.33 22.6a21.49 21.49 0 0 1-8.37 3.8c-3.81.76-9.9 6.09-12.18 9.13s-4.57 16-5.33 26.64C21.32 398.88 19 411.82 19 416.38c-13.69 6.09-3.8 32.73-5.32 37.29-.61-.61-10 15.83-13.71 22.43v118.15h347.78c-11.65-36.39-56.27-72.09-56.27-72.09s-3.69 6.43-9 16.08a188.28 188.28 0 0 0-7.93 17.1l-.57-.54c-17.61-17.89-56-57-71.58-73.73C181.89 459 162.11 443 153 435.41c-3.28-2.74-13.38-11.3-25.41-21.7a51.73 51.73 0 0 1-.47-6.46c2.48 6 2.93 2.66 3.81 9.13.22-4 .91-2.73 1.13-6.74 1.85 3.51 2.34 6.28 4.19 9.79-.59-3 .17-5.25-.43-8.25 2.66 4.09 3.85 7.2 6.51 11.29-.72-4.1.72-7.31 0-11.42a40.1 40.1 0 0 1 4.57 9.89 16.54 16.54 0 0 0 .34-9c2.63 2.82 3.47 6.7 3.47 10.51 1.52-3.81-.23-7.8-.85-11.65l5 7c-.47-3.23-1.39-5.8-1.85-9 1 2.08 2.45 3.51 3.45 5.59.11-3.35-.52-6-.41-9.4 1.41 2.82 4.06 4.63 6.85 6.09a55.35 55.35 0 0 1-3-9.89c1.3 1.32 3.27 2.49 4.57 3.81-1-2.87-1.64-6.61-2.68-9.48l6.9 3.29a29 29 0 0 0-6.42-8.72l7.45 2.62-6.64-6a27.39 27.39 0 0 0 11 2.27l-11.44-4.54 8.69.33a25 25 0 0 0-9.78-3.07l8.19-.37a56.67 56.67 0 0 1-14.78-6.36l10.55 1.91-8.55-3.78 9.14.64-9.65-4.93h8.39l-8-4.86 9 2.5-8.22-6.63 7.26 2.55a53.19 53.19 0 0 1-11.13-9.71l9.42 3.17-8.93-8.19 8.35 2.59-5.59-6.39 7.83 1.41-7.24-5 5.34 1.48-5-4.54 5.16 1.61L158 331a19.76 19.76 0 0 0 19.33 3.38c6.1-2.29 10.59-7.42 15.4-11.82s10.88-8.41 17.34-7.55c2.38-5 3.79-10.66 3.1-16.15-.51-4.05-1.88-8-1.84-12.09.07-6.34 3.49-12.11 6.8-17.52l-.58 9.67a12.28 12.28 0 0 1 2.62-6.54 20.36 20.36 0 0 0 1.63 9.4 10.3 10.3 0 0 1 .81-6.5l1.77 7.47.73-6.16 3.26 10.29-.47-5.27 3.07 5.5.27-8.53a38.48 38.48 0 0 1 4 10.25l-.21-7 3.06 7.23v-3.89a13.66 13.66 0 0 1 3 6.5l-.21-8.23 3.83 10.71-.08-5.21 2 5.77-.16-6.53 5.42 8.73a11.92 11.92 0 0 0-.95-5.64 35.52 35.52 0 0 1 4.83 14.12l.27-4a32.34 32.34 0 0 1 2.3 10.87c.13 3.57-1.63 6.3-1.06 9.83l1.13-3.39 1.42 5.78.21-8.57 2.12 3.37-.13-2a22.83 22.83 0 0 1 3.84 5.31l-.43-9.5a9.7 9.7 0 0 0 1.77 4.42 5 5 0 0 0 .76-3.14l2.8 8.24-1-7.75 2.26 2.91v-6a28.59 28.59 0 0 1 4.43 6.79l-.73-5a15 15 0 0 0 2.44 5.47v-5.63a32.51 32.51 0 0 1 5.07 7.1l.05-5.21 3.67 3.54c-1.93-10.22-2.15-20.51-5-30.62l2.49 5.3q-.95-6.71-2.49-13.32a17.05 17.05 0 0 0 2.68 4.77 84 84 0 0 0-2.81-15l2.92 4.48a93 93 0 0 0-3.33-12c.91 1.09 1.88 2 2.8 3.11l-1.11-6 2.57 2.5-2.68-10.53 3.12 3.88-2.12-7.69 1.65 1.59-1.93-9.58 1.93 2-.88-9.23c1.66.13 3.68 1.88 3.62 3.54 1.64-4.71 1.83-9.61 1.9-14.6a22.51 22.51 0 0 1 3.23 9 47 47 0 0 0 3.21-14.87 12.12 12.12 0 0 1 2.46 10.15 33.53 33.53 0 0 0 7.47-18.55c.53 2.19 2.51 4.66 3 6.85 1.6-5.72 3-12.86 2.36-18.77a31.46 31.46 0 0 1 2.21 7.35c1.46-3.79.36-10.69-1.6-14.25 1.12.26 3.1 2.76 3.89 3.6-.72-3.88-3.93-9.36-7.15-11.65 2 .63 4.39 2.65 6.38 3.28-1.9-4.43-5.83-9.52-10.13-11.68a18.83 18.83 0 0 1 9.63 2.76 24.67 24.67 0 0 0-15-13.11 16.51 16.51 0 0 1 9.87 1.54 49.79 49.79 0 0 0-12.91-11.49 17.14 17.14 0 0 1 7.39.64 20 20 0 0 0-9.72-7.6l9.77 1.87a47.39 47.39 0 0 0-12.41-8.91l10.54 2.74a39.13 39.13 0 0 0-10.5-6.33l15.64 4.78-4.35-5.36a14 14 0 0 1 7.59 3.31l-4.22-5.53 11.38 4.5a37.87 37.87 0 0 0-6.07-7.62 36.72 36.72 0 0 1 12.8 4.29 34.85 34.85 0 0 0-7.55-5.44 47.33 47.33 0 0 1 15.25 3.41 17.74 17.74 0 0 0-7.89-5.69 49.8 49.8 0 0 1 14.5 3.64L329 117.28l20 10.26-11.25-8.83a66.09 66.09 0 0 1 16.14 5.79 55.79 55.79 0 0 0-9-6.26q11 2 21.71 5a51.19 51.19 0 0 0-13.79-8.47 132.62 132.62 0 0 1 15.07 4.82 21.37 21.37 0 0 0-7.54-8.38 16 16 0 0 1 6.88 3.9l-3-4.61a25.48 25.48 0 0 1 9.41 6.73 27.49 27.49 0 0 0-5.46-7.18l5.65 2.92-4-4.44L375 110a17.93 17.93 0 0 0-5-3.19q.86-.53 1.74-1.13a15.72 15.72 0 0 0 6.71-4.62 1.78 1.78 0 0 0 .58-1.52 1 1 0 0 0-.16-.32zM31.45 174.68c-1.92-6.84-3.22-13.87-3.06-20.35a7.84 7.84 0 0 1 1.29-1.26q1.53-1.19 3-2.15c-1.97 7.35-2.09 15.65-1.23 23.76zm5 39.44q.32-.65.62-1.3l.09.33a8.57 8.57 0 0 0-.71.97zM40.32 243l.5-1.28 1-.42s-.72.81-1.5 1.7zm22.1-142.48a52.58 52.58 0 0 0-5.45 7.5 90.09 90.09 0 0 0-8.25 2.4 97.71 97.71 0 0 0-11.78 4.81l1.13-1c13.39-11.54 23.42-17.12 31.07-19.5-3.36 2.73-5.68 4.78-6.73 5.83zm51-35q-3 1.6-5.84 3.22A86.4 86.4 0 0 0 88.68 70c10.12-6.06 21.32-10.6 30-12.05a19.4 19.4 0 0 1 9.34.84 153.63 153.63 0 0 0-14.62 6.76zm47.94-30.44a82.17 82.17 0 0 1-13.82 14.25c-17.63-8.41-44.31 3-61.26 12.47 13.56-12.55 22.36-23.28 40.08-29 13.09-4.24 26.57-4.57 36.41.46-.5.63-.97 1.23-1.43 1.85zm6.87 10.94c1.45-1.54 2.75-3.05 4-4.52a25.19 25.19 0 0 1 1.77 3.12q-2.8.68-5.78 1.43zm37.21-8.2c-3.09-4-8.36-7.85-17-11.08 4.37-1.94 10-3.07 17.84-3.07 10.11 0 16.19 3.26 19.66 8.1-7.37 1.79-14.42 4.29-20.52 6.08zm98.79-16.76a57.32 57.32 0 0 0-20.72-7.15c12.94-9.42 21.16-6.74 29.79 4.51a42.36 42.36 0 0 0-9.09 2.67zm10.1 5.65l-1.84.37a50.48 50.48 0 0 0-4.54-3.61 26.65 26.65 0 0 1 6.38-1.32c.53 0 1.07-.05 1.61-.05q1.3 1.93 2.64 4.1a32 32 0 0 0-4.27.54zm5.33 8.18a18.26 18.26 0 0 1 4.47 1.51c-.78.28-1.67.62-2.68 1-.57-.78-1.17-1.62-1.81-2.48zm6.84 11.61c-.69-1.5-1.65-3.47-2.95-5.72 1-.25 2-.48 3-.69q2.26 4.12 4.71 8.67a16.81 16.81 0 0 0-4.77-2.24zM339 34.45a26.73 26.73 0 0 0-9.46-6.54q-1.37-2-2.73-3.9a37.87 37.87 0 0 1 15.3 10.43c-1.04-.01-2.11-.01-3.11.01zm13.8 30.29c-1.66-7.9-4.74-18.14-10.37-26.09 1.1.06 2.21.18 3.3.33a57.86 57.86 0 0 1 5.85 10.59 24.77 24.77 0 0 1 1.24 15.17zm17.81 6.14a7.43 7.43 0 0 1-1 2.34 125.51 125.51 0 0 0-16.15-32.15 31.15 31.15 0 0 1 14.82 13.07c2.34 4.56 3.11 9.86 2.34 16.74z"/><path d="M216.28 274s-10-1.5-14.63-4.32-19.79-.83-25.28 4-21 16.46-15.63 42.91 32.1 52.39 33.76 53.88 8.32 5.32 12 6.15 6 3.49 9.81 4.16 11.48 2.16 16-2.83 5.65-7.32 6.15-13 3.16-18.79 4-20.62" fill="#fff"/><path d="M242.39 344.31a16.92 16.92 0 0 0-.62 2.27c-.34 1.5-.78 3.74-1.29 6.62s-1.1 6.43-1.53 10.54a28.69 28.69 0 0 1-1 6.69 20.31 20.31 0 0 1-4 6.55c-.43.51-.85 1-1.32 1.53l-.76.77c-.28.24-.57.46-.86.69a11.92 11.92 0 0 1-4.06 1.85 23.56 23.56 0 0 1-9.19.11c-.79-.13-1.5-.22-2.37-.4a13.61 13.61 0 0 1-2.41-.83c-1.55-.68-2.93-1.58-4.33-2.23a11.62 11.62 0 0 0-2.14-.78c-.32-.09-.85-.2-1.26-.33s-.85-.27-1.26-.42a42.74 42.74 0 0 1-4.8-2.18 43.54 43.54 0 0 1-4.65-2.78 10.14 10.14 0 0 1-1.14-.93l-1-1c-.66-.63-1.29-1.29-1.94-1.93-2.56-2.62-5.05-5.39-7.52-8.28a142.46 142.46 0 0 1-13.75-19.11A80.87 80.87 0 0 1 160 319c-.21-.94-.51-1.86-.63-2.81l-.43-2.82-.21-1.4-.1-1.41-.18-2.8a43.09 43.09 0 0 1 1.05-10.86 37.92 37.92 0 0 1 9.5-17.59 69.54 69.54 0 0 1 6.64-6.1 20.82 20.82 0 0 1 7.6-3.76 40.34 40.34 0 0 1 7.45-1.41 32.08 32.08 0 0 1 6.76 0 12.18 12.18 0 0 1 1.55.26 9.81 9.81 0 0 1 1.47.41 8.77 8.77 0 0 1 1.36.62c.4.22.77.47 1.17.65a31.56 31.56 0 0 0 4.49 1.79c2.78.89 5 1.38 6.51 1.72s2.31.46 2.31.46-.8-.1-2.33-.35-3.77-.66-6.61-1.43a31.54 31.54 0 0 1-4.64-1.63c-.42-.17-.82-.42-1.24-.63a8.14 8.14 0 0 0-1.25-.51 9.09 9.09 0 0 0-1.39-.33 11.48 11.48 0 0 0-1.48-.19 37.32 37.32 0 0 0-13.72 1.84 19.57 19.57 0 0 0-6.94 3.68 69.75 69.75 0 0 0-6.33 6.13 36.34 36.34 0 0 0-8.61 16.84 41.42 41.42 0 0 0-.83 10.28l.21 2.66.11 1.34.22 1.34.44 2.69c.12.91.43 1.78.63 2.68a81 81 0 0 0 9 21 148.7 148.7 0 0 0 13.4 18.82c2.4 2.87 4.82 5.64 7.3 8.24.63.64 1.24 1.3 1.87 1.92l.93.92a7.69 7.69 0 0 0 .91.77 42.21 42.21 0 0 0 4.33 2.69 41.29 41.29 0 0 0 4.5 2.15c.38.15.75.28 1.12.4s.68.19 1.16.33a13.67 13.67 0 0 1 2.5 1c1.56.77 2.89 1.68 4.24 2.31a11.75 11.75 0 0 0 2 .76c.66.16 1.49.3 2.22.43a22.11 22.11 0 0 0 8.52.16 10.43 10.43 0 0 0 3.58-1.5l.76-.57.68-.65c.45-.46.9-1 1.32-1.44a19.28 19.28 0 0 0 4-6 28.23 28.23 0 0 0 1.22-6.43c.6-4.15 1.35-7.66 2-10.53s1.18-5.08 1.59-6.57a16.51 16.51 0 0 1 .69-2.26z"/><path d="M212.79 323.52s.64-.74 1.92-2a25.2 25.2 0 0 1 2.48-2.12 12.39 12.39 0 0 1 1.77-1.12 5 5 0 0 1 2.46-.64 2.63 2.63 0 0 1 1.52.56 3.33 3.33 0 0 1 1 1.31 8.34 8.34 0 0 1 .56 2.94c.06 2-.25 3.94-.14 5.89a5.32 5.32 0 0 0 .61 2.53 7.37 7.37 0 0 0 2 2c.86.65 1.81 1.29 2.78 2a34.63 34.63 0 0 1 3 2.21 7.52 7.52 0 0 1 1.41 1.65 5 5 0 0 1 .74 2.27 4.55 4.55 0 0 1-.5 2.37 5.71 5.71 0 0 1-1.36 1.72 8.67 8.67 0 0 1-3.44 1.79 9.64 9.64 0 0 1-3.62.28 7.73 7.73 0 0 1-3.31-1.17l-1.2-.84c-.36-.26-.77-.46-1.14-.69a30.2 30.2 0 0 0-4.62-2 66.65 66.65 0 0 0-7.17-1.95c-1.73-.37-2.69-.54-2.69-.54s1 0 2.75.12a51.15 51.15 0 0 1 7.47 1.06 28.19 28.19 0 0 1 5.06 1.6c.44.22.9.4 1.34.67l1.26.74a5.75 5.75 0 0 0 2.45.67 7.24 7.24 0 0 0 5.12-1.71 2.48 2.48 0 0 0 .93-2 3.43 3.43 0 0 0-1.3-2.11c-.72-.64-1.8-1.34-2.73-2s-1.91-1.35-2.84-2.11a9.37 9.37 0 0 1-2.55-2.85 7.48 7.48 0 0 1-.74-3.66c0-2.23.49-4.22.57-5.94a7 7 0 0 0-.21-2.35 1.39 1.39 0 0 0-1.12-1.11 4 4 0 0 0-1.89.3 12.13 12.13 0 0 0-1.75.83 28.37 28.37 0 0 0-2.67 1.73c-1.45 1.05-2.21 1.67-2.21 1.67z"/><path d="M207.3 362.27a39.59 39.59 0 0 1-5.56-2.61 68.53 68.53 0 0 1-13.51-10 78.1 78.1 0 0 1-15-20l-1.58-3.22c-.26-.55-.54-1.09-.79-1.65l-.71-1.73c-.51-1.14-.84-2.37-1.28-3.58s-.73-2.48-.95-3.77a36.81 36.81 0 0 1-.83-8 33.44 33.44 0 0 1 1-8.22 28.46 28.46 0 0 1 8.18-14 22.45 22.45 0 0 1 13.92-6 22.15 22.15 0 0 1 7.1.77 27.52 27.52 0 0 1 6.12 2.66 37.84 37.84 0 0 1 5 3.59 25.19 25.19 0 0 1 3.84 4.21 17.16 17.16 0 0 1 3.27 9.13 18.72 18.72 0 0 1-1.07 7.19 21.88 21.88 0 0 1-1.93 4.14 13.22 13.22 0 0 1-.88 1.32 13.83 13.83 0 0 0 .78-1.38A22.36 22.36 0 0 0 214 307a18.45 18.45 0 0 0 .62-7 16.3 16.3 0 0 0-3.5-8.4 24.24 24.24 0 0 0-3.79-3.79 37.32 37.32 0 0 0-4.88-3.22 26.18 26.18 0 0 0-5.73-2.25 20 20 0 0 0-18.72 5.09 26.49 26.49 0 0 0-7.32 12.81 31.76 31.76 0 0 0-.94 7.57 35.36 35.36 0 0 0 .7 7.43c.19 1.22.56 2.38.84 3.56s.68 2.32 1.15 3.41l.64 1.66c.23.55.49 1.08.73 1.62l1.46 3.18a81.53 81.53 0 0 0 13.91 20.06A72.45 72.45 0 0 0 202 359.3a42.76 42.76 0 0 0 5.3 2.97z"/></svg>