<svg id="09ef5b09-8055-47cb-bba0-6a896a7d7ad7" data-name="Layer 1" xmlns="http://www.w3.org/2000/svg" viewBox="0 0 302 90"><path d="M114.59 72.52a36.9 36.9 0 0 1-5.32 4.31 36.36 36.36 0 0 1-5.58 3.41A26.31 26.31 0 0 1 92.84 83a40.28 40.28 0 0 1-14.23-2.35c-1.44-.51-2.87-1.05-4.33-1.5-4.05-1.51-8.05-3.16-12-4.91-8.21-3.1-15.86-7.53-24.2-10.31a124.36 124.36 0 0 0 17.27-17.25c1.85-2.19 3.51-4.53 5.29-6.78 1.19-1.64 2.16-3.64 4.1-4.54a132 132 0 0 0 12-5.82c7.12-3.93 14-8.61 19.35-14.75A16 16 0 0 0 99.24 10a7.37 7.37 0 0 0 .16-5.1 5.83 5.83 0 0 0-3.65-3.11 8.92 8.92 0 0 0-5.36.35 29 29 0 0 0-7.89 4.45 102 102 0 0 0-8.58 7.61c-7 6.67-13.29 14-19.69 21.29A9.46 9.46 0 0 1 51.39 38a45.69 45.69 0 0 1-22.94 4.8c-4.26-.46-8.71-1.9-11.62-5.2A14.3 14.3 0 0 1 14 32.09a14.32 14.32 0 0 1 2.56-11.24C20.56 15 26.64 11.11 33 8.27a48.38 48.38 0 0 1 11-3.54A39.49 39.49 0 0 1 62.26 5c1.09.26 2.06.89 3.17 1.09A2 2 0 0 0 64 3.37a39 39 0 0 0-16.7-1.29 57.86 57.86 0 0 0-21 7.11 51.38 51.38 0 0 0-5.62 4c-3.83 3.12-7.18 7.11-8.6 11.91a14.75 14.75 0 0 0 4.59 15.16 21.34 21.34 0 0 0 12.44 4.46 47.23 47.23 0 0 0 18.49-2.95c.94-.29 1.86-.67 2.82-.87-3.14 4.66-6.74 9-10.25 13.34a62.25 62.25 0 0 1-5.46 6.24 10.28 10.28 0 0 1-2.59 1.88c-2.15.13-4.21-.62-6.33-.81-6.35-.7-13.05-.2-18.8 2.77a14.16 14.16 0 0 0-5.51 4.54 5.28 5.28 0 0 0-.9 3.83A3.87 3.87 0 0 0 2.38 75c2.12 1.38 4.78 1.39 7.21 1.15 7.62-.91 14.7-4.13 21.4-7.7.5-.24 1-.67 1.6-.43a92.77 92.77 0 0 1 11.34 5c4.52 2 9 4.17 13.44 6.23 7.92 3.65 16.12 6.94 24.78 8.29a30.45 30.45 0 0 0 18.92-3 56.08 56.08 0 0 0 12-8.25 13.42 13.42 0 0 0 2.45-2.46 1.41 1.41 0 0 0 .14-1.29.72.72 0 0 0-1.07-.02zM71.35 23.7q3.81-5.26 8-10.24c3-3.16 5.89-6.53 9.73-8.67 1.37-.7 2.81-1.5 4.4-1.35 1.09.06 2.43.49 2.79 1.64a5.7 5.7 0 0 1-.46 4.58 29 29 0 0 1-6.49 8.46A54.93 54.93 0 0 1 80 25a65.2 65.2 0 0 1-5.65 3.41 37.46 37.46 0 0 1-8.78 3.83c1.77-2.97 3.8-5.74 5.78-8.54zM26.92 66.84a32.09 32.09 0 0 1-15.25 6.61 11.25 11.25 0 0 1-5.08-.16 2.78 2.78 0 0 1-1.75-3.6c1-2.19 3.24-3.46 5.38-4.36a20.62 20.62 0 0 1 17.45.58 3.09 3.09 0 0 1-.75.93z"/><path d="M278.2 58.43c-3.71 2.15-7.55 4.24-11.76 5.21-1.58.4-3.42.75-4.88-.18a2.18 2.18 0 0 1-.84-1.83 8.35 8.35 0 0 1 1.56-4.4 55.56 55.56 0 0 1 7.07-8.71c1.41-1.48 2.7-3.08 4-4.62Q286.78 29 300.5 14.39c-2.35-.09-4.69.21-7 .18-1.25 1.24-2.36 2.61-3.56 3.89-2.62 2.84-5.25 5.67-7.84 8.53-4.27 4.34-8.41 8.81-12.71 13.11a4 4 0 0 0-1.07-2 5.22 5.22 0 0 0-3.85-1 18.23 18.23 0 0 0-6.1 1.9 44.48 44.48 0 0 0-18.47 15.48 15.48 15.48 0 0 1-2.83 2.52 32.73 32.73 0 0 1-7.6 4.51 2.63 2.63 0 0 1-2.22-.11 3 3 0 0 1 .52-2.83c2.94-3.82 7-6.7 9.37-11a9.61 9.61 0 0 0 1.12-6.26 3.27 3.27 0 0 0-1.48-2.29c-1.56-.92-3.42-.62-5.14-.82-.49 0-.67-.59-.5-1a5.82 5.82 0 0 0 .43-3.73 1.56 1.56 0 0 0-1.78-1 4.73 4.73 0 0 0-3.65 2.68 8 8 0 0 0-1.34 3.63c-.07 1.16.14 2.44-.54 3.47a77.14 77.14 0 0 1-6.9 8.32 59.74 59.74 0 0 1-7.16 6.55c-3.27 2.57-6.79 5.11-11 5.92a1.42 1.42 0 0 1-1.8-1.27 5.26 5.26 0 0 1 1.28-3.06 36.85 36.85 0 0 1 4.4-5c4.09-4.29 8.23-8.54 12.32-12.84a17.54 17.54 0 0 0 2.34-2.33c-2.28-.09-4.56-.32-6.83-.2-1.42.59-2.05 2.17-3.31 3a4.47 4.47 0 0 0-.58-1.8 4.26 4.26 0 0 0-3.53-1.71 14.8 14.8 0 0 0-5.84 1.24 60.49 60.49 0 0 0-13.53 7.35c-3.49 2.44-6.83 5.08-10.26 7.59a90.69 90.69 0 0 1-7.58 5.37 41.57 41.57 0 0 1-4.92 2.7c-1 .45-2.22 1-3.37.65-1-.65-.6-2-.28-2.94a19.9 19.9 0 0 1 2.72-5 24 24 0 0 1 7.09-5.63c5-3.16 10-6.22 14.76-9.64 3.86-2.88 7.78-5.69 11.37-8.91 3.37-3.11 6.58-6.57 8.54-10.77a5.66 5.66 0 0 0 .62-4.59 3.08 3.08 0 0 0-3.43-1.8c-3.17.53-6 2.23-8.59 4a137.49 137.49 0 0 0-11.34 8.77 124.83 124.83 0 0 0-14 13.64c-1.77 2-3.57 4-5.24 6a82.29 82.29 0 0 0-6.2 8.2 7.65 7.65 0 0 1-2.77 2.28 144.3 144.3 0 0 1-7.42 3.83 15.79 15.79 0 0 1-7.11 2c-.76.08-1.31-.64-1.47-1.31a6.81 6.81 0 0 1 .29-3.25 10.88 10.88 0 0 1 5-5.42c1.18-.66 2.24-1.5 3.35-2.26 5.18-3.65 10.39-7.28 15.36-11.21 2.15-1.67 4.18-3.49 6.25-5.25a73.31 73.31 0 0 0 8.65-8.47 25.3 25.3 0 0 0 4-6.44 7.07 7.07 0 0 0 .44-4.36 2.39 2.39 0 0 0-2.48-1.91c-3.06 0-5.54 2.05-8.08 3.51a163 163 0 0 0-23.86 21c-5.48 5.89-10.83 12-14.78 19.08a5.83 5.83 0 0 1-1.24 1.85c-2.12 1.77-4.71 2.81-7.16 4a14.29 14.29 0 0 1-3.72 1.37 1.82 1.82 0 0 1-1.94-.61 3.63 3.63 0 0 1 0-3.25c1.2-3.12 3.79-5.36 5.85-7.91 2.35-2.43 4.69-4.88 7.06-7.29 1.77-1.86 3.64-3.62 5.34-5.54a47.39 47.39 0 0 0-5.65 0c-.54.08-1.2-.06-1.57.42-2.23 2.33-4.54 4.6-6.76 7-5.14 5.33-10.33 10.73-16.59 14.76-2.27 1.44-4.56 3-7.24 3.54a1.33 1.33 0 0 1-1.55-1.34 4.78 4.78 0 0 1 1.1-2.9c2.61-3.32 5.9-6 8.55-9.29 1.47-1.84 2.75-4 2.66-6.47a4.15 4.15 0 0 0-1.73-3.69c-1.75-1-3.85-.55-5.77-.78a.78.78 0 0 1-.08-.8 7.48 7.48 0 0 0 .58-2.95 2.23 2.23 0 0 0-1.37-2.07 2 2 0 0 0-1.51.29 6.61 6.61 0 0 0-3.41 4.84c-.11 1.42.15 2.9-.3 4.28a7.47 7.47 0 0 1-1.37 2.22 22.64 22.64 0 0 1-5.19 5.27c-1 .61-2.28 1.41-3.47.85.71-2.59 1.87-5.16 1.71-7.9A4.63 4.63 0 0 0 82 39.49c-2.39-1-5-.33-7.45.27a33.54 33.54 0 0 0-13.43 9.39 23 23 0 0 0-4.86 9.59 7.45 7.45 0 0 0 1.07 5.84 6.63 6.63 0 0 0 5.62 2.31 15.59 15.59 0 0 0 7.65-3 39.43 39.43 0 0 0 6.22-5.24c1.32-1 2.06-2.62 3.59-3.26a16.61 16.61 0 0 0 7.85-3.75 42.81 42.81 0 0 0 6.46-6.89c1.18-1.14 3-1.14 4.5-1.09 1.06.06 2.27-.3 3.2.37.47.29.34.94.21 1.39a6.72 6.72 0 0 1-2.4 2.76c-1.38 1.18-2.78 2.34-4.14 3.55-1.7 1.65-3.58 3.18-4.81 5.23-1.51 2.2-2.12 5.31-.69 7.7a4.78 4.78 0 0 0 5.17 1.56c3.33-.81 6.2-2.76 9-4.59 2.1-1.35 4-3 6.07-4.4-.63 2.09-.76 4.61.68 6.41s3.91 1.88 5.91 1.36a65 65 0 0 0 10.71-4.83 6.74 6.74 0 0 0 .66 3.6 4 4 0 0 0 3 2c3 .58 5.84-.69 8.53-1.79a56.67 56.67 0 0 0 5.25-2.39c1.73-.86 3.51-1.62 5.16-2.64a8.56 8.56 0 0 1 1.46-.66 11.69 11.69 0 0 0-.17 4.88 3.64 3.64 0 0 0 2.93 2.83 7.75 7.75 0 0 0 4.34-.73 74.88 74.88 0 0 0 14.5-8.66 28.21 28.21 0 0 1 2.84-2c-.57 1.41-1.35 2.72-1.79 4.18a7.47 7.47 0 0 0 .08 4.87 4.36 4.36 0 0 0 2.24 2.4 5.36 5.36 0 0 0 4-.19 37.51 37.51 0 0 0 6.25-3.45c1.59-1 3-2.29 4.57-3.37a14.32 14.32 0 0 0 0 3.4 4.28 4.28 0 0 0 3.71 3.38c2.32.21 4.54-.69 6.63-1.57 6.62-2.87 12.08-7.76 17.05-12.87a105.76 105.76 0 0 0 8-9.46c1.68.12 3.33-.37 5-.34a2.65 2.65 0 0 1 2 .73 2.19 2.19 0 0 1-.33 2.08 24 24 0 0 1-3.71 4c-2.87 2.6-5.93 5.17-7.8 8.64a8.29 8.29 0 0 0-.92 4.64 3.29 3.29 0 0 0 2.75 2.9c1.29.37 2.58-.16 3.81-.52 3.86-1.22 7.22-3.55 10.48-5.89a8.58 8.58 0 0 0 0 3.77 4.6 4.6 0 0 0 3 3.45c1.72.59 3.47-.21 5-.9 3.25-1.48 5.91-3.91 8.83-5.9a16.91 16.91 0 0 0-.2 3.39A4.4 4.4 0 0 0 257 65a8.39 8.39 0 0 0 6.45 1.67c5.85-.76 11.17-3.58 16.07-6.72a7.56 7.56 0 0 0-1.32-1.52zM165.82 47.08c4-5.59 8.91-10.49 13.75-15.38 1.83-1.8 3.58-3.67 5.43-5.44a89.07 89.07 0 0 1 12.52-10 3.61 3.61 0 0 1 2.15-.7.87.87 0 0 1 .82 1c-.18 2.7-1.73 5-3.37 7.07a59.18 59.18 0 0 1-9.37 9.48 160.69 160.69 0 0 1-14.65 10.56 61.63 61.63 0 0 1-7.86 4.54 5.89 5.89 0 0 1 .58-1.13zM144.51 44a228.73 228.73 0 0 1 16.08-18c2.16-2.23 4.45-4.34 6.75-6.42a35.21 35.21 0 0 1 5.42-4.14 5.56 5.56 0 0 1 2.51-.92c.5 0 .79.49.85.92a6.21 6.21 0 0 1-1 3.95A29.09 29.09 0 0 1 169 27.3q-3.32 3.25-6.94 6.17C159 36 156 38.61 152.81 41c-3.79 2.88-7.61 5.73-11.64 8.26a28.13 28.13 0 0 1 3.34-5.26zm-61.75.18c0 .49-.25 1.1-.82 1.17a6.62 6.62 0 0 0-5 6.46c.12.84.7 1.54.79 2.39a1.7 1.7 0 0 1-.37.88 32.22 32.22 0 0 1-9.26 8.45 11.39 11.39 0 0 1-5.17 1.83c-.72 0-1.61-.18-2-.9-.88-1.49-.52-3.33.06-4.86a32.48 32.48 0 0 1 6.3-9.37 52.29 52.29 0 0 1 5.47-5.41c1.83-1.56 3.72-3.19 6.07-3.9a3.13 3.13 0 0 1 2.94.43 3.38 3.38 0 0 1 .99 2.84zM193.68 55c-3 2.68-6 5.43-9.58 7.21a4.4 4.4 0 0 1-2.71.67 1.91 1.91 0 0 1-.8-2.23 13.3 13.3 0 0 1 3.2-5.9 36.48 36.48 0 0 1 3.14-3.42 49.16 49.16 0 0 1 12.62-9.75 18.29 18.29 0 0 1 3.28-1.36c.56-.09 1.29-.27 1.71.23a2.34 2.34 0 0 1 .36 2.55 10.84 10.84 0 0 1-2.6 3.7c-2.73 2.88-5.66 5.63-8.62 8.3zm63.38-.79a61.57 61.57 0 0 1-6.21 5.29 13.73 13.73 0 0 1-4.09 2.17 1.38 1.38 0 0 1-1.72-.71 3.7 3.7 0 0 1 .38-3 18.5 18.5 0 0 1 2.58-4.21 55.72 55.72 0 0 1 12.56-11.86 13.73 13.73 0 0 1 3.79-2.06c.76-.16 1.71-.54 2.39 0s.61 1.51.46 2.26c-.51 1.55-1.77 2.66-2.75 3.91-2.45 2.79-4.71 5.72-7.39 8.24z"/><path d="M135.48 33.58a6.14 6.14 0 0 0 5.36-4.36 2.71 2.71 0 0 0-.71-2.56 2.37 2.37 0 0 0-2.07-.37 6.47 6.47 0 0 0-4.53 3.83 2.75 2.75 0 0 0 .33 2.79 2.86 2.86 0 0 0 1.62.67zm-13.71 40.7h5.42v13.35h3V74.28h5.45V71.9h-13.87v2.38zm27.24 3.88h-7.8V71.9h-3v15.73h3v-7.1h7.8v7.1h3V71.9h-3v6.26zM169.58 74a7.68 7.68 0 0 0-2.58-1.81 9.32 9.32 0 0 0-6.89 0 7.69 7.69 0 0 0-2.58 1.81 7.79 7.79 0 0 0-1.62 2.62 9.27 9.27 0 0 0 0 6.36 7.79 7.79 0 0 0 1.62 2.62 7.55 7.55 0 0 0 2.58 1.77 9.46 9.46 0 0 0 6.89 0 7.55 7.55 0 0 0 2.58-1.77 7.79 7.79 0 0 0 1.62-2.6 9.25 9.25 0 0 0 0-6.36 7.79 7.79 0 0 0-1.62-2.64zm-1.12 8a5.88 5.88 0 0 1-.92 1.93 4.52 4.52 0 0 1-1.62 1.35 5.78 5.78 0 0 1-4.73 0 4.52 4.52 0 0 1-1.62-1.35 5.88 5.88 0 0 1-.92-1.93 8.24 8.24 0 0 1 0-4.4 5.88 5.88 0 0 1 .92-1.93 4.52 4.52 0 0 1 1.62-1.35 5.77 5.77 0 0 1 4.73 0 4.53 4.53 0 0 1 1.62 1.35 5.88 5.88 0 0 1 .92 1.93 8.24 8.24 0 0 1 0 4.4zm15.64 2.21h-.05l-4.73-12.31h-4.22v15.73h2.85V75.49h.05l4.75 12.14h2.48l4.75-12.14h.05v12.14h2.85V71.9h-4.17l-4.61 12.31zm17.61-12.31l-6.58 15.72h3.1l1.61-4.16h6.84l1.61 4.16h3.22l-6.6-15.72zm-1.06 9.47l2.59-6.76h.07l2.57 6.76zm25.24-.69a4.42 4.42 0 0 0-1-1 5.21 5.21 0 0 0-1.46-.66l-1.12-.28-1.6-.38-1.51-.36-.76-.19a3.77 3.77 0 0 1-1.48-.72 1.62 1.62 0 0 1-.56-1.31 1.6 1.6 0 0 1 .3-1 2.15 2.15 0 0 1 .76-.63 3.64 3.64 0 0 1 1-.33 6.16 6.16 0 0 1 1.08-.1 4.78 4.78 0 0 1 2.57.63 2.59 2.59 0 0 1 1.13 2.15h3a4.35 4.35 0 0 0-.53-2.17 4.82 4.82 0 0 0-1.43-1.57 6.48 6.48 0 0 0-2.09-1 9.72 9.72 0 0 0-2.53-.32 9.58 9.58 0 0 0-2.28.28 6.55 6.55 0 0 0-2 .85 4.55 4.55 0 0 0-1.43 1.44 3.82 3.82 0 0 0-.54 2.06 4.16 4.16 0 0 0 .18 1.21 3.27 3.27 0 0 0 .61 1.12 4.27 4.27 0 0 0 1.16 1 6.71 6.71 0 0 0 1.84.69q1.78.44 3 .72a21.94 21.94 0 0 1 2.12.58 2.57 2.57 0 0 1 1 .61 1.78 1.78 0 0 1 .44 1.33 2.12 2.12 0 0 1-.19.87 2 2 0 0 1-.62.76 3.53 3.53 0 0 1-1.13.54 5.89 5.89 0 0 1-1.68.21 7.27 7.27 0 0 1-1.69-.19A4.16 4.16 0 0 1 217 85a2.84 2.84 0 0 1-.94-1 3.27 3.27 0 0 1-.34-1.54h-3a5.43 5.43 0 0 0 .6 2.52 5.08 5.08 0 0 0 1.54 1.75 6.7 6.7 0 0 0 2.26 1 11.12 11.12 0 0 0 2.76.33 11.34 11.34 0 0 0 2.5-.28 7 7 0 0 0 2.18-.87 4.77 4.77 0 0 0 1.55-1.53 4.16 4.16 0 0 0 .59-2.26 3.91 3.91 0 0 0-.2-1.23 3.84 3.84 0 0 0-.61-1.21zm16-8.78l-6.58 15.72h3.1l1.59-4.16h6.84l1.61 4.16h3.22l-6.6-15.72zm-1.06 9.47l2.59-6.76h.07l2.57 6.76zm12.96 3.28h3.34v2.97h-3.34zM268.6 71.9h3v15.72h-3zm7.32 0h3v15.72h-3zm7.32 0h3v15.72h-3z"/></svg>