<svg xmlns="http://www.w3.org/2000/svg" width="1402.58" height="851"><path fill="#fff" stroke="#000" stroke-miterlimit="10" d="M2.08.5h1400v850H2.08z"/><path d="M462.14 467c-2 3 1 14 2 22s5 14 4 19-8 11-11 12c-1 2-2 2-5 5 7 4 11 10 10 16s-14 20-23 29c11 21 11 29 11 34s0 18-16 32-35 14-46 13-19 0-44 2-38 16-46 26c-7.81 9.77-46.45 77.83-48.06 81-23.14-23.5-69.45-75-89.94-97-27-29-53-50-65-60-7.78-6.49-42.6-31.44-71.06-57l-4-2c3.74-18.74 10.69-49.21 10.06-53-.78-4.65-16.57-68.77-24.56-99.71v-43.85C13.75 304.85 30.14 234 30.14 234s107-110 210-106 115 41 138 58 34 65 38 86c16 19 18 29 20 37s-1 17-4 20c-1 3-6 23 11 34s23 21 29 28 21 15 26 39-34 34-36 37z" fill="#fff" stroke="#000" stroke-miterlimit="10" stroke-width="3"/><path d="M388.42 159.25c6.61-8.37 10.17-20.76 3.16-39.25-11-29-17-34-27-41-3.48-2.44-9.38-3.78-15.85-4.42A88 88 0 0 0 334.58 61a40.89 40.89 0 0 0-20.49-8.29c-25.31-30.91-46.46-30.37-60-6.44a119 119 0 0 0-21.73.89Q230 46.08 227.58 45c-37.16-16.51-80.45-9.17-109 13.6-4.83-1-10.13-1.85-16-2.6-56.48-7.24-77.83 20.12-100.5 47.92V850.5h336.5c5.64-7.67 10.72-17.85 9.29-28.5-7-52-74.79-107.5-74.79-107.5a133.29 133.29 0 0 0-13.64 20.62c-3.52 6.49-7.15 14.66-10.38 22.47-.27-.24-.52-.48-.74-.71C225.26 733.38 177 680 156.58 658c-26.9-29-53-50-65-60-4.15-3.48-18.32-12.07-33.34-25.09a72.14 72.14 0 0 1-.66-8.91c3.26 7.94 3.84 3.49 5 12 .29-5.28 1.2-3.58 1.49-8.86 2.43 4.61 3.08 8.25 5.51 12.86-.78-3.94.22-6.9-.56-10.84 3.5 5.38 5.06 9.47 8.56 14.84-1-5.39 1-9.61 0-15 2.26 3.62 5 9 6 13 1.27-3.08 1.35-8.6.44-11.81 3.45 3.7 4.56 8.81 4.56 13.81 2-5-.3-10.25-1.12-15.31q3.29 4.59 6.56 9.17c-.61-4.24-1.83-7.62-2.44-11.86 1.31 2.73 3.22 4.61 4.54 7.35.14-4.41-.69-7.94-.54-12.35 1.85 3.7 5.33 6.08 9 8a72.84 72.84 0 0 1-4-13c1.7 1.73 4.3 3.27 6 5-1.36-3.77-2.16-8.68-3.52-12.46l9.08 4.33a38.05 38.05 0 0 0-8.44-11.45l9.79 3.44-8.73-7.86a36 36 0 0 0 14.42 3l-15-6 11.42.44a32.91 32.91 0 0 0-12.85-4l10.77-.49A74.37 74.37 0 0 1 94 521.53l13.91 2.47-11.23-5 12 .84L96 513.45h11L96.47 507l11.78 3.29-10.8-8.72L107 505a70.05 70.05 0 0 1-14.63-12.8l12.38 4.17L93 485.61l11 3.39-7.09-8.34 10.3 1.85-9.52-6.51 7 2-6.53-6 6.77 2.12q-3.37-5.12-6.77-10.22a26 26 0 0 0 25.41 4.43c8-3 13.91-9.75 20.23-15.53s14.3-11 22.79-9.92c3.13-6.57 5-14 4.07-21.22-.68-5.33-2.47-10.53-2.41-15.89.08-8.34 4.58-15.91 8.93-23q-.37 6.36-.76 12.7a16.1 16.1 0 0 1 3.45-8.59 26.68 26.68 0 0 0 2.13 12.26 13.52 13.52 0 0 1 1.06-8.54q1.17 4.92 2.33 9.82c.32-2.7.65-5.4 1-8.1l4.28 13.52c-.2-2.31-.41-4.61-.61-6.92 1.34 2.41 2.69 4.81 4 7.22.12-3.73.23-7.47.35-11.2a50.24 50.24 0 0 1 5.31 13.46l-.27-9.19q2 4.74 4 9.5v-5.11a18 18 0 0 1 4 8.54c-.1-3.61-.19-7.21-.28-10.82q2.5 7 5 14.07-.06-3.42-.11-6.85c.85 2.53 1.71 5 2.57 7.58l-.21-8.58 7.12 11.46a15.7 15.7 0 0 0-1.25-7.41 46.45 46.45 0 0 1 6.34 18.55l.36-5.26a42.47 42.47 0 0 1 3 14.29c.17 4.68-2.14 8.28-1.4 12.91.5-1.49 1-3 1.49-4.46q.93 3.79 1.87 7.59l.27-11.26 2.79 4.43c-.06-.87-.11-1.75-.17-2.62a29.75 29.75 0 0 1 5.05 7q-.29-6.25-.56-12.49a12.7 12.7 0 0 0 2.33 5.8 6.57 6.57 0 0 0 1-4.12l3.68 10.83-1.35-10.18q1.48 1.91 3 3.83v-7.85a37.64 37.64 0 0 1 5.83 8.93q-.48-3.3-1-6.6a19.68 19.68 0 0 0 3.21 7.19c0-2.46 0-4.93-.05-7.39a42.67 42.67 0 0 1 6.67 9.33c0-2.28 0-4.56.07-6.85l4.83 4.65c-2.53-13.43-2.82-27-6.55-40.23l3.27 7q-1.25-8.82-3.27-17.51a22.52 22.52 0 0 0 3.52 6.27 111.59 111.59 0 0 0-3.69-19.75l3.84 5.89a123.09 123.09 0 0 0-4.38-15.76c1.2 1.43 2.47 2.66 3.67 4.09-.48-2.65-1-5.29-1.45-7.93l3.38 3.29q-1.75-6.89-3.49-13.78l4.09 5.1q-1.36-5-2.75-10.09l2.17 2.09q-1.28-6.29-2.54-12.58l2.54 2.59q-.59-6.06-1.16-12.13c2.18.18 4.84 2.47 4.76 4.66 2.15-6.19 2.41-12.63 2.5-19.19a29.69 29.69 0 0 1 4.25 11.77 61.86 61.86 0 0 0 4.28-19.64 15.94 15.94 0 0 1 3.23 13.33c5.88-7.65 8.9-14.76 9.81-24.37.7 2.88 3.3 6.12 4 9 2.1-7.52 3.94-16.9 3.1-24.66a41.41 41.41 0 0 1 2.9 9.66c1.92-5 .47-14-2.11-18.73 1.47.34 4.07 3.63 5.11 4.73-.94-5.1-5.16-12.3-9.39-15.31 2.62.83 5.78 3.48 8.39 4.31-2.5-5.82-7.65-12.52-13.32-15.35a24.76 24.76 0 0 1 12.65 3.62A32.39 32.39 0 0 0 285.15 241a21.62 21.62 0 0 1 13 2 65.54 65.54 0 0 0-17-15.1 22.57 22.57 0 0 1 9.7.84 26.35 26.35 0 0 0-12.76-10l12.84 2.47a62.49 62.49 0 0 0-16.31-11.71l13.85 3.6a51.07 51.07 0 0 0-13.84-8.2l20.55 6.27-5.72-7a18.42 18.42 0 0 1 10 4.35l-5.55-7.26 15 5.92a49.81 49.81 0 0 0-8-10 48.21 48.21 0 0 1 16.82 5.64 45.67 45.67 0 0 0-9.92-7.15 62.19 62.19 0 0 1 20 4.48 23.28 23.28 0 0 0-10.37-7.48 65.68 65.68 0 0 1 19 4.79L322.86 183l26.26 13.49-14.78-11.61a87 87 0 0 1 21.2 7.6 73.89 73.89 0 0 0-11.85-8.22q14.4 2.64 28.52 6.59a67.1 67.1 0 0 0-18.11-11.13 176.16 176.16 0 0 1 19.81 6.28 28.18 28.18 0 0 0-9.91-11 21.08 21.08 0 0 1 9.05 5.13l-3.93-6.06a33.58 33.58 0 0 1 12.36 8.84 36.06 36.06 0 0 0-7.17-9.43l7.42 3.83-5.28-5.83 6.94 2a23.7 23.7 0 0 0-6.57-4.19c.75-.46 1.52-1 2.28-1.48a20.71 20.71 0 0 0 8.82-6.06 2.35 2.35 0 0 0 .75-2 1.26 1.26 0 0 0-.25-.5zM39.08 114.5q-3.91 2.1-7.68 4.23a113.53 113.53 0 0 0-24.8 1.61c13.3-8 28-13.93 39.48-15.84a25.49 25.49 0 0 1 12.27 1.1 201.87 201.87 0 0 0-19.27 8.9zm63-40a108 108 0 0 1-18.16 18.73c-23.17-11-58.23 4-80.5 16.39C21.24 93.13 32.8 79 56.08 71.5c17.2-5.57 34.92-6 47.84.61-.63.79-1.24 1.58-1.84 2.39zm9 14.38c1.9-2 3.62-4 5.24-5.94a33.1 33.1 0 0 1 2.4 4.06q-3.72.88-7.61 1.88zM160 78.1c-4.06-5.23-11-10.32-22.36-14.56 5.74-2.55 13.1-4 23.44-4 13.28 0 21.27 4.28 25.83 10.64-9.64 2.29-18.91 5.57-26.91 7.92zm129.81-21.6h0a75.32 75.32 0 0 0-27.23-9.4c17-12.38 27.8-8.85 39.15 5.93a55.66 55.66 0 0 0-11.92 3.47zm13.27 7c-.82.15-1.62.31-2.42.48a66.34 66.34 0 0 0-6-4.74 35 35 0 0 1 8.38-1.74c.69 0 1.4-.07 2.11-.07q1.71 2.54 3.47 5.39a42 42 0 0 0-5.54.68zm7 10.75a24 24 0 0 1 5.88 2c-1 .37-2.2.81-3.52 1.33-.72-1.09-1.51-2.2-2.35-3.33zm9 15.25c-.91-2-2.17-4.56-3.87-7.51 1.3-.33 2.61-.63 3.93-.91q3 5.42 6.19 11.39a22.09 22.09 0 0 0-6.25-2.97zm16.46-15.87A35.13 35.13 0 0 0 323.11 65q-1.8-2.67-3.59-5.13a49.76 49.76 0 0 1 20.1 13.71c-1.38.03-2.74.03-4.08.05zm18.14 39.8c-2.18-10.38-6.23-23.84-13.62-34.28 1.45.08 2.9.23 4.33.43a76 76 0 0 1 7.69 13.92 32.55 32.55 0 0 1 1.6 19.93zm23.4 8.07a9.76 9.76 0 0 1-1.26 3.07 164.92 164.92 0 0 0-21.22-42.25c7.37 3 14.09 8.41 19.48 17.18 3 6 4 13 3 22z" stroke="#000" stroke-miterlimit="10"/><path d="M398.54 390.55a16.65 16.65 0 0 0-3.41-3.66 17.44 17.44 0 0 0-6.55-3.49c-.82-.29 2.63 2 2.63 2s-4.22-2.08-3.75-1.79a24 24 0 0 1 3.52 2.68c1.9 1.67 3.94 3 4.85 5.82a18 18 0 0 0-5.44-5.1c-1.94-1.36-5-3.16-5-3.16s.27.26.44.44a7.43 7.43 0 0 1 .53 1.28 11.13 11.13 0 0 0-1-1.14 3.53 3.53 0 0 0-.7-.22 6.3 6.3 0 0 0 .41.65c1.16 1.52.34 4.05 1.49 5.11-2.19-1.18-1.23-3.62-2.41-4.84a15.06 15.06 0 0 1-1.46-1.78 4.82 4.82 0 0 1 .1.55 9.23 9.23 0 0 1-.17 1.32 4.7 4.7 0 0 0-.21-1.32 3.73 3.73 0 0 0-.62-.73 8.85 8.85 0 0 0 .28 1.87c.24 1-.4 2.25-1.32 4 0-1.75 1-2.69.44-4-.74-1.71-1.14-2.55-1.14-2.55s.18.91.19 1.19a20.74 20.74 0 0 1-.52 2.31s.16-1.86.12-2.54a2.54 2.54 0 0 0-.28-1.06 5.56 5.56 0 0 1-.06 1.64 16.15 16.15 0 0 1-1.61 4.55 22.21 22.21 0 0 0 .74-4.84 3.74 3.74 0 0 0-.76-2.16 11.08 11.08 0 0 1 .06 1.48 34.14 34.14 0 0 1-.77 3.5 29.06 29.06 0 0 0 .25-3.42 14.58 14.58 0 0 0-.42-2.33s-1.09 2.9-.87 4.25c-.52-1-.24-4.47-.24-4.47a2.39 2.39 0 0 0-.29.66 14.59 14.59 0 0 0-.17 1.64 16.06 16.06 0 0 1-.07-1.72.68.68 0 0 0-.16-.57 20.82 20.82 0 0 1-2.47 6.3c1.19-2.72 2-8.39 2-8.39a6.17 6.17 0 0 0-.24.69l-.44 1.46s.13-1.2.16-1.61 0-.69 0-.69a11 11 0 0 1-.82 2.22 4.48 4.48 0 0 1-3.58 1.82 4.41 4.41 0 0 0 3.09-2.19 7 7 0 0 0 .57-2.13 3.55 3.55 0 0 0-.5.77c-.16.38-.89 1.83-.89 1.83a16.89 16.89 0 0 1 .56-2.08 1.28 1.28 0 0 0 .17-.62 5.52 5.52 0 0 1-1.5 1.86 4.06 4.06 0 0 1-3.85.29 3.49 3.49 0 0 0 3.53-.64c.74-.67.13-1.72.1-2.71-2.08-1.31-3.12-2.6-5.12-4.06a41 41 0 0 0 6.45 2.29 6.55 6.55 0 0 1 1.53.7 18.58 18.58 0 0 0 3.16 1.52l2.11 1c.32.14.88.43 1.17.53l1.2.5c1.45.55 2.2.93 3.41 1.32a6.88 6.88 0 0 0 3.19 0 3.62 3.62 0 0 0 1.53-1 3.25 3.25 0 0 0 .69-1.53v-.23a.67.67 0 0 0 0-.2 4.15 4.15 0 0 0-.06-.46v-.2a7.43 7.43 0 0 0-.2-.78 6.22 6.22 0 0 0-.88-1.84 5.26 5.26 0 0 1 1.48 1.56 8.47 8.47 0 0 1 .53.94 8.64 8.64 0 0 1 9 6.22 8.6 8.6 0 0 0-4.07-3.94 11.7 11.7 0 0 0-4.6-.87c-.23 0-.37.07-.39.15s.1.3.43.41c1 .35 3.41.56 4.57 1.33a10.49 10.49 0 0 1 4 4.83 9.87 9.87 0 0 0-8.91-4.54h-.35l.3.07a14.32 14.32 0 0 1 2.86 1 13.89 13.89 0 0 1 2.87 1.84 15.53 15.53 0 0 0-6.63-1.67h-.74l.59.15a16.61 16.61 0 0 1 5.91 2.4 13.5 13.5 0 0 1 4.05 4.64 21.25 21.25 0 0 0-4.55-3.63 16 16 0 0 0-5.28-2.11c2.56 1.1 3.39 1.26 5.72 3.25 1.18 1.06 1.48 1.28 2.49 4.18z"/><path d="M392.86 369.22c-.22 1.53-1.2 7.07-3.51 9.7a3.36 3.36 0 0 1-3.74 1.24c-5.06-1.63-9.5-4.69-11.88-5.63s-7-.5-7.18-1.69c0 0 22.12-13.5 24.18-14.5.5-.24.9.14 1.22.89.98 2.35 1.15 8.33.91 9.99z" fill="#fff" stroke="#000" stroke-miterlimit="10" stroke-width=".25"/><path d="M393.29 369.91c-.82 5.58-3.91 9.74-5.12 9.56s0-4.48.81-10.06 1-10.13 2.24-9.95 2.89 4.86 2.07 10.45z" stroke="#000" stroke-miterlimit="10" stroke-width=".25"/><path d="M398.08 356.41c-.26-.08 2.38 1.5 2.38 1.5s-3.3-1.13-3.12-1c4.81 3.52 10.32 3.71 16.34 4.19-6.11 1.07-14.07-1.17-19.82-2.65 3.52 1.88 8.25 3.21 16.52 5-4.86.28-9.59-1.54-14.11-2.87a42.77 42.77 0 0 0 15 5.08c-5.6-.2-13.77-3.37-19-5.71 3.53 2.84 9.46 6.06 13.92 8.75-6.52-2.86-9.92-4.25-17.58-8.14-.48-.24 2.38 1.44 2.49 1.55-.36-.12-3.18-1.66-2.74-1.39 6.7 4.05 11.35 7.2 17.62 10.6-7.09-2-12.58-5.24-18.93-9.73-.49-.34 1.73 1.31 1.79 1.49-.22-.11-2.59-1.57-2.13-1.27 5.56 3.62 5.56 5.55 15.69 11.62-3.46-1.9-6.33-2.49-10.16-4.07-3-1.22-5.26-4-7.77-6.07-.42-.36 2.18 2.48 2.18 2.48s-2.76-2.72-2.42-2.32l7.61 9.21a42.35 42.35 0 0 1-9.19-8.16c-.29-.33 2.3 3.43 2.3 3.43s-2.78-3.65-2.58-3.25c1.55 3.18 5.53 5.4 7.44 9.59-3.19-3.5-6.46-5.61-9.42-8.32-.31-.29 2.32 2.84 2.51 3.21-.37-.22-3.14-3.31-3-2.94a21.77 21.77 0 0 0 12 11.49 18.65 18.65 0 0 1-13.59-10.62c-.14-.3 1.17 3.84 1.17 3.84s-1.5-4-1.46-3.67a31.81 31.81 0 0 0 3.71 11.89 27.5 27.5 0 0 1-5.38-11c-.18-.73.06 2.08.41 3.67-.59-1.09-1.11-4.15-1.15-3.28a19.13 19.13 0 0 0 2.24 9.93l-4.84-8.57c-.13-.22 1.05 4.3.94 4.08-.09.32-1.47-4.1-1.52-3.78-.45 2.68.33 5.44 1.18 8.07-1.07-2.24-2.68-4.43-3.94-6.65-.29-.49.9 2.92 1 3.42-.37-.09-2-3.51-2.07-2.87-.2 4.08 1.95 7.12.86 11.6.32-3-2.36-6.59-2.44-7.65s-1.08-1.52-1.27-2.51l-1.42.73-.84.44-.34.2-.37.28-3.08 2.39c-2.05 1.62-4.14 3.2-6.12 4.91a61.11 61.11 0 0 1 5.21-5.92c.91-1 1.84-1.86 2.81-2.78l.37-.35.48-.36.83-.58 1.68-1.05.62-.38c4.25-2.64 8.65-5.07 12.89-7.53 2.07-1.36 4.36-2.82 6.57-4.2 1.12-.69 2.27-1.34 3.44-2 .58-.32 1.18-.63 1.81-.93s1.31-.53 1.94-.75c2.56-.84 4.74-1.56 6.52-3.4a14.25 14.25 0 0 1 2-1.49c6.51-1.44 5.38.54 14.54.46-2.58 1-4.15 1.07-10.81.52-.24 0 3 .62 3 .62s-3.72-.31-3.34-.22a70.61 70.61 0 0 0 11.44 1.65c-4.67.95-10.44-.08-15.29-1-.33-.06 5.13 1.35 5.13 1.35s-5.57-1.27-5.3-1.15c4.67 2.09 10.53 2.54 15.58 2.62a44.92 44.92 0 0 1-16.8-1.21c-.41-.1 2.2.9 2.2.9s-2.79-.86-2.43-.69a39.4 39.4 0 0 0 16.51 3.4 40.58 40.58 0 0 1-17.1-1.68zm59.36 99.9s1.35-.42 3.73-1.28c1.19-.43 2.65-1 4.29-1.67.82-.35 1.69-.75 2.57-1.21.44-.23.88-.48 1.32-.75a8.12 8.12 0 0 0 1.17-.86 1 1 0 0 0 .4-.73c0-.28-.28-.46-.51-.58a4.76 4.76 0 0 0-1.33-.42 6.12 6.12 0 0 0-1.63 0 21.84 21.84 0 0 0-7.36 2.94c-5.07 2.91-10.42 6.76-16.13 10.66l-4.23 2.89-1.05.71-1.17.71a8.38 8.38 0 0 1-1.22.64 13.33 13.33 0 0 1-1.27.55 10.42 10.42 0 0 1-5.6.56 9.71 9.71 0 0 1-4.79-2.51 14.43 14.43 0 0 1-2.9-3.85 22.57 22.57 0 0 1-1.71-4 35.15 35.15 0 0 1-1.52-7.49 28.75 28.75 0 0 1 .81-10.88 7.94 7.94 0 0 1 1.31-2.67 5 5 0 0 1 .73-.72 5.15 5.15 0 0 0-.6.81 7.91 7.91 0 0 0-.89 2.71 30.33 30.33 0 0 0 .42 10.49 36.49 36.49 0 0 0 2 6.89 21.25 21.25 0 0 0 1.78 3.47 12 12 0 0 0 2.53 3 6.72 6.72 0 0 0 3.33 1.56 7.28 7.28 0 0 0 3.82-.56 10.49 10.49 0 0 0 1-.46 6.09 6.09 0 0 0 1-.54l1-.61 1-.72 4.21-2.93a150.21 150.21 0 0 1 16.75-10.38 22.85 22.85 0 0 1 8.6-2.7 8.32 8.32 0 0 1 2.28.21 6.56 6.56 0 0 1 2.17 1 2.72 2.72 0 0 1 1.33 2.24 2 2 0 0 1-.15.63 1.9 1.9 0 0 1-.3.57 2.4 2.4 0 0 1-.42.49 3.18 3.18 0 0 1-.45.4 12.79 12.79 0 0 1-3.1 1.62c-1 .38-1.91.68-2.79.94-1.75.52-3.27.87-4.52 1.14-2.52.49-3.91.69-3.91.69zm-34.77-126.92a29.11 29.11 0 0 1-10.17 2.5l-6 1.5 2.32-1.62a87.13 87.13 0 0 0-11.34 1.53l-17.81 8.09 3.17-2.84c-4.9 2.38-11.75 6.63-16.67 9.17l-9.67 6.33.67-2.67c-2.54 1.36-5.3 3.49-7.67 4.83-12 6.75-26.93 21.73-27.66 21-1-1 6.16-9.33 15.33-18.17 4.31-4.15 10.11-9.29 16.29-14.4l10.88-10.1-1.66 2.73q2-1.52 3.9-3l11.42-9.05-.37 1.67a98.74 98.74 0 0 1 17.87-7.2l14.34-5.8-3.94 2.72c2.39-.7 4.64-1.37 6.65-2 .86-.29 1.68-.57 2.45-.86 5.95-2.23 10-5.17 13.31-6.62 3.62-1.62 6.3-1.43 9.53 3.45 5.77 8.72-5.17 13.64-15.17 18.81zM452 523.06l2.16 2.88a21.29 21.29 0 0 1-9 3.37 29.74 29.74 0 0 1-4.65.31h-2.21a9.83 9.83 0 0 0-2 .24 11.77 11.77 0 0 0-6.71 4.79 11.71 11.71 0 0 1-3.45 3 23.77 23.77 0 0 1-4.06 1.94 23.53 23.53 0 0 0 3.81-2.31 11 11 0 0 0 3-3.16 16.15 16.15 0 0 1 2.88-3.59 11.21 11.21 0 0 1 4.08-2.42 11.74 11.74 0 0 1 2.36-.52l2.25-.18a27.25 27.25 0 0 0 4.22-.71 18.12 18.12 0 0 0 7.32-3.64z"/><path d="M173.14 391.64s-13.35-2-19.58-5.79-26.48-1.11-33.82 5.34-28 22-20.92 57.41 42.95 70.09 45.18 72.1 11.13 7.12 16 8.23 8 4.67 13.13 5.56 15.35 2.89 21.36-3.78 7.57-9.79 8.23-17.36 4.23-25.14 5.34-27.59" fill="#fff"/><path d="M208.08 485.76a22.56 22.56 0 0 0-.84 3c-.47 2-1.08 5-1.78 8.85s-1.51 8.59-2.12 14.1a38.37 38.37 0 0 1-1.41 8.9 27 27 0 0 1-5.3 8.67c-.57.68-1.14 1.35-1.76 2l-1 1c-.37.31-.75.6-1.13.9a15.69 15.69 0 0 1-5.35 2.42 31.26 31.26 0 0 1-12.19.1c-1-.17-2-.3-3.14-.54a17.88 17.88 0 0 1-3.17-1.09c-2-.91-3.87-2.1-5.78-3a15.92 15.92 0 0 0-2.92-1.07c-.46-.12-1.13-.27-1.67-.44s-1.12-.36-1.66-.56a56.89 56.89 0 0 1-6.37-2.91 58.09 58.09 0 0 1-6.17-3.7 13.14 13.14 0 0 1-1.49-1.22c-.46-.42-.88-.84-1.32-1.27-.88-.84-1.71-1.72-2.58-2.58-3.41-3.5-6.74-7.21-10-11.08a191.6 191.6 0 0 1-18.33-25.51c-5.45-9.3-9.87-19-12.28-29l-.46-1.86a14.38 14.38 0 0 1-.39-1.87l-.58-3.75-.29-1.86-.13-1.87-.25-3.72a57.37 57.37 0 0 1 1.37-14.43 50.47 50.47 0 0 1 12.5-23.37 93.17 93.17 0 0 1 8.83-8.16 21 21 0 0 1 4.92-3.09 36.65 36.65 0 0 1 5.13-1.93 53.89 53.89 0 0 1 9.92-1.92 42.82 42.82 0 0 1 9 0 16.17 16.17 0 0 1 2.06.33 13 13 0 0 1 2 .53 4.13 4.13 0 0 1 .92.38l.88.44c.54.29 1 .62 1.57.87a42.26 42.26 0 0 0 6 2.36c3.73 1.17 6.71 1.82 8.73 2.25s3.09.6 3.09.6-1.08-.14-3.11-.49-5-.91-8.83-2A42.23 42.23 0 0 1 155 387c-.56-.24-1.09-.56-1.65-.85l-.82-.38a3.67 3.67 0 0 0-.86-.32 12.27 12.27 0 0 0-1.87-.45 15.48 15.48 0 0 0-2-.26 42.3 42.3 0 0 0-8.8.27 53.31 53.31 0 0 0-9.64 2.12A26.41 26.41 0 0 0 120 392a93.4 93.4 0 0 0-8.52 8.2 48.9 48.9 0 0 0-11.69 22.7 55.69 55.69 0 0 0-1.15 13.85l.28 3.58.14 1.8.3 1.8.59 3.62a13.57 13.57 0 0 0 .39 1.8l.46 1.8c2.39 9.63 6.74 19.11 12.09 28.25a197.83 197.83 0 0 0 18 25.23c3.22 3.85 6.48 7.55 9.81 11 .84.86 1.66 1.74 2.51 2.57.42.42.84.85 1.25 1.23a10.69 10.69 0 0 0 1.26 1.06 56.75 56.75 0 0 0 5.85 3.61 55.44 55.44 0 0 0 6.07 2.88c.51.2 1 .38 1.52.54s1 .27 1.57.44a18 18 0 0 1 3.28 1.26c2.06 1 3.85 2.22 5.69 3.08a16 16 0 0 0 2.8 1c.92.22 2 .39 3 .57a29.81 29.81 0 0 0 11.52.17 14.2 14.2 0 0 0 4.88-2.07c.34-.26.7-.51 1-.78l.92-.89c.61-.62 1.2-1.3 1.77-1.95a26 26 0 0 0 5.29-8.16 37.92 37.92 0 0 0 1.6-8.64c.77-5.54 1.75-10.24 2.55-14.09s1.54-6.8 2.08-8.8a22.15 22.15 0 0 1 .97-2.9z"/><path d="M168.47 457.95s.88-1 2.61-2.59a34.28 34.28 0 0 1 3.35-2.77 16.61 16.61 0 0 1 2.36-1.44 6.6 6.6 0 0 1 3.2-.8 3.29 3.29 0 0 1 1.89.71 4.18 4.18 0 0 1 1.2 1.66 10.85 10.85 0 0 1 .69 3.83c.06 2.63-.39 5.23-.26 7.89a7.53 7.53 0 0 0 .84 3.58 10.12 10.12 0 0 0 2.76 2.81c1.16.88 2.43 1.74 3.72 2.64l2 1.36a19.37 19.37 0 0 1 2 1.56 9.64 9.64 0 0 1 1.8 2.11 6.21 6.21 0 0 1 .93 2.83 5.64 5.64 0 0 1-.62 2.94 7.22 7.22 0 0 1-1.72 2.17 11.23 11.23 0 0 1-4.43 2.32 12.55 12.55 0 0 1-4.69.38 10 10 0 0 1-4.28-1.48l-1.62-1.1c-.49-.35-1.05-.61-1.56-.92a40.13 40.13 0 0 0-6.25-2.55 86 86 0 0 0-9.64-2.46c-2.32-.46-3.61-.65-3.61-.65s1.31 0 3.67.23a70.54 70.54 0 0 1 9.95 1.57 38.1 38.1 0 0 1 6.7 2.2c.58.29 1.19.54 1.76.89l1.67 1a8 8 0 0 0 3.42 1 10 10 0 0 0 7.18-2.35 3.76 3.76 0 0 0 1.41-3 5 5 0 0 0-1.88-3.13c-1-.91-2.45-1.82-3.7-2.73s-2.55-1.8-3.79-2.79a12.14 12.14 0 0 1-3.31-3.67 9.68 9.68 0 0 1-1-4.71c0-2.94.61-5.6.69-7.93a9.52 9.52 0 0 0-.34-3.24 2.1 2.1 0 0 0-1.73-1.61 5.55 5.55 0 0 0-2.63.46 16.37 16.37 0 0 0-2.34 1.16 37.47 37.47 0 0 0-3.54 2.38c-1.86 1.39-2.86 2.24-2.86 2.24z"/><path d="M161.13 509.79a53.48 53.48 0 0 1-7.4-3.55 92.32 92.32 0 0 1-17.95-13.45A105 105 0 0 1 115.9 466l-2.1-4.31c-.35-.73-.72-1.45-1.05-2.2l-.94-2.3-.47-1.16-.4-1.19-.81-2.41-.67-2.48-.33-1.25-.26-1.28a49 49 0 0 1-1.09-10.55 44.45 44.45 0 0 1 1.33-10.87 37.74 37.74 0 0 1 10.79-18.59 29.69 29.69 0 0 1 18.35-8 29.33 29.33 0 0 1 9.38 1 36.6 36.6 0 0 1 8.12 3.49 50.52 50.52 0 0 1 6.66 4.74 33.52 33.52 0 0 1 5.13 5.56 22.82 22.82 0 0 1 4.41 12.1 25 25 0 0 1-1.36 9.59 29.36 29.36 0 0 1-2.54 5.55 17.79 17.79 0 0 1-1.16 1.78 18.41 18.41 0 0 0 1.06-1.83 29.84 29.84 0 0 0 2.24-5.62 24.74 24.74 0 0 0 .91-9.4 22 22 0 0 0-4.65-11.36 32.57 32.57 0 0 0-5.08-5.14 50 50 0 0 0-6.55-4.37 35.26 35.26 0 0 0-7.73-3.08 27.05 27.05 0 0 0-25.45 6.87 35.77 35.77 0 0 0-9.93 17.35 42.77 42.77 0 0 0-1.27 10.24 47.56 47.56 0 0 0 1 10l.23 1.22.3 1.2.61 2.38.75 2.32.37 1.15.44 1.12.87 2.23c.31.73.66 1.45 1 2.17l2 4.26a108.46 108.46 0 0 0 18.79 26.83 96.24 96.24 0 0 0 17.21 14 56.64 56.64 0 0 0 7.12 4.03z"/></svg>