<svg xmlns="http://www.w3.org/2000/svg" viewBox="0 0 1400 809"><path fill="#fff" d="M1.5 1.5h1397v806H1.5z"/><path d="M1397 3v803H3V3h1394m3-3H0v809h1400V0z"/><path d="M202.35 749.83c-3-33 1.33-38 10-49.67s37-28.67 43-34.67 12.67-21.33 26-31 24.33-12 29.67-23.67c1.68-3.67 3.78-9.45 6.22-16 10.35 6.2 19.77 15.31 28.44 24 13 13 26.33 37.67 31.67 49s15.7 38.67 19.7 48.35 18.67 35.33 22.67 39.33 17.33 19 21.67 23.33S465.72 807 465.72 807H300.55s10.12-32.88 16.64-57.21c.32-1.18-1.8-1.3-2.11-.12-6 23.22-16 57.33-16 57.33H192.35s13-24.17 10-57.17z" fill="#fff" stroke="#000" stroke-miterlimit="10" stroke-width="2"/><path d="M491.76 411c-4.16 5.5-16.67 7.67-21.67 7.67s-7.33.67-9.83 3.17c0 1.83.33 6.67.33 9.67s-1.5 7.5-1.5 9.17 0 7-1 9.83-3.06 6.85-6.23 7.85c-2.15.68-21.12 1.56-29.71 2.4a.31.31 0 0 0-.31.31.31.31 0 0 0 .31.31c7.09.44 22 1.52 24.4 2.79 3.83 2 4.54 10.83 2.88 16-5.67.83-6.58 3.75-10.5 7.67s-5.17 2.17-11.33 8.33c0 3.33 13 16.67 5.67 35s-29.33 23.33-40.67 25-44-1-55.67-1c-7.54 7.54-14.46 25.42-19.78 39.68-2.44 6.54-4.55 12.32-6.22 16-5.33 11.67-16.33 14-29.67 23.67s-20 25-26 31-34.33 23-43 34.67-13 16.67-10 49.67-10 57.17-10 57.17H2.37V529.56c8.37-4.51 16.79-9.23 21.06-11.61 8.5-4.75 29.25-18.25 35-21.75s7-3.5 7-3.5l1.84-.33c2.36 1.55 5.06 3.26 4.33 4-1.25 1.25 10.25-1.42 11.5-2.67s6-.67 4 1.33 11.33-4.67 12.67-6 6.33-2.67 8-2.67 7.58-1.75 8.83-3a10.17 10.17 0 0 1 5.67-2.67c1.67 0 5.83-6.17 7.83-8.17s3.92 1.75 5.5.17 4-9.33 4-9.33-.17 7.33 1.33 4.5 5-14.83 5-14.83.83 7.83 2.5 3.67 5.5-11.83 5.5-11.83-2.5 11-.17 6 3.83-15.5 3.83-15.5.5 5.33.5 15c8.5-20.67 2.21-41 1.58-44.29a16.61 16.61 0 0 0-4.75-8.87c-2.69-2.69-4-8.87-5.87-13s.83-9.29 1.54-8.58 6.58 6.25 8.92 7.33 11.83 2.17 11.5 1.83-1.92-3.08-1.92-3.08a34.76 34.76 0 0 0-4.42-.5c-1.58 0-8.17-3.5-10.83-6.17s-3.92-7.42-5.17-13.42c5.33 1.25 9.33 4.25 13.5 6.83-.5-1.25-2.25-5.92-2.25-5.92s-7.08-4.75-9.5-7.17.33-2.5 4.33-4.5c-1.5-3.5-3.17-8-3.17-8s-2.33 1.83-5 7c0-2.33.25-9.25 2.83-11.83-.83-3.67-6.33-21.67-6.33-35.17s6.83-22.83 14.33-32.33 23.83-14.67 34-14.67 21 8.33 26.75 11.83c.88-.87 10.75-22.25 10.75-22.25s4.75 12 4.75 16.25-1.75 13-1.75 13 8.13-8.62 9.75-7 2.5 5.5 2.5 8.5a76.08 76.08 0 0 0 2.5 17.75c2 7.5 5.25 17.25 5.25 14s1.5-11.75 1.5-11.75 8.25 19.25 7 15.75c-.94-2.63-1.74-10.77-2.08-13.8.82 2.89 4.37 9.63 6.58 15.8 2.5 7 5.5 13.25 4.25 19.25s-6.5 15.75-3.25 12.5 9.5-11 4.5 1.25-15.5 14-15.5 14c4.33 0 13.5-1.42 15.17-3.08s8-9.83 9-12.5 2.83-9.5 4.17-13-.17-9.67 2.33-17.67c0 1.5 5.33 11.67 4 7.5s-1-7.33 1.17-3.5 3.92 8.42 8 12.5 14 8.67 14 8.67a23.71 23.71 0 0 1-2.67-2.33c-1.5-1.5-7-8.17-5.17-6.33s13.72 6.84 14.46 7.15c-.48-.37-5.64-4.33-7.63-6.31s-8.5-14.5-8.5-14.5 10.83 8.5 8.33 6S305.9 308 305.9 308s2.17 4.33 2.17 5.33 4.85 3.81 5.16 4c-.15-.42-3.85-10.23-5.16-13.32s-.33-12.33-.33-12.33 1 3.17 1.83 6.5 4.27 7.87 4.49 8.16a7.85 7.85 0 0 1-.82-3.49c0-2-.17-15.5.83-19.83s2.92-9.25 4.17-8 3.17 6.33 3.17 6.33a30.48 30.48 0 0 0 .33-4.67c0-2.83 6-11 7.83-12.83s7-6 8.33-7.33 5.17-1.83 6.5-3.17 3.5-11.83 4.5-8.83.83 7.17 2.17 3.83.33-16.83.33-16.83 2.5 7.17 2.5 4-1.88-11.61-2-12.14l2 5.64a45.84 45.84 0 0 0-1-8.17c-.83-3-2.17-7.17-3.17-10.5s2.67 2.67 2-2.33a32.18 32.18 0 0 1 1.37-13.22c1-3.5 6-10.17 6-7.67s5.33-5.83 5.33-5.17 3.17-5.17 3.17-4 3.17-2.83 3.17-3.67 3-2.67 4.67-2.67 6.75-3.92 8.5-5.67 6.75-1.92 8.67-3.83 8.67-7 9.67-7 1 9.33 2.5 9.33 2.17-6.83 3.17-7.83 4.08-.08 4.83.67 2.83 5.5 4.67 5.5 4.75-2.58 5.67-1.67 3.33-.5 4.33-1.5 3.67 3.17 3.67 4.17 1.5 4.5 3 4.5 5.08-4.08 6-3.17 2.08 7.58.33 9.33 3.5 3 5.67 3 2.83 3.83 2.83 3.83l-1.23 2.87a5.23 5.23 0 0 0-.42 2.53v.19c1.59.16 3.4.63 4 2.16a4.64 4.64 0 0 0 1.67 2.21l1.89 1.27c7.58 12.89 6.53 51.58 4.72 57.76 1.83 3.33 6.5 13.83 8 16.67s3 12.5 4 17.67c3.17 3.17 3.75 11.92.67 15-10 11.33-8.83 16-8.83 19.33s1.83 9.83 10 20.83c9.67 9.67 5.83 10 20.17 33s2.33 32.7-1.83 38.23z" fill="#fff" stroke="#000" stroke-miterlimit="10" stroke-width="2"/><path d="M451.43 191.3c-.62-1.53-2.43-2-4-2.16v-.19a5.41 5.41 0 0 1 .42-2.53l1.23-2.87s-.67-3.83-2.83-3.83-7.42-1.25-5.67-3 .58-8.42-.33-9.33-4.5 3.17-6 3.17-3-3.5-3-4.5-2.67-5.17-3.67-4.17-3.42 2.42-4.33 1.5-3.83 1.67-5.67 1.67-3.92-4.75-4.67-5.5-3.83-1.67-4.83-.67-1.67 7.83-3.17 7.83-1.56-9.33-2.56-9.33-7.75 5.08-9.67 7-6.92 2.08-8.67 3.83-6.83 5.67-8.5 5.67-4.67 1.83-4.67 2.67-3.17 4.83-3.17 3.67-3.17 4.67-3.17 4-5.33 7.67-5.33 5.17-5 4.17-6 7.67a32.43 32.43 0 0 0-1.33 13.17c.67 5-3-1-2 2.33s2.33 7.5 3.17 10.5a45 45 0 0 1 1 8.17l-2-5.67s2 9 2 12.17-2.5-4-2.5-4 1 13.5-.33 16.83-1.17-.83-2.17-3.83-3.17 7.5-4.5 8.83-5.17 1.83-6.5 3.17-6.5 5.5-8.33 7.33-7.83 10-7.83 12.83a28.79 28.79 0 0 1-.33 4.67s-1.92-5.08-3.17-6.33-3.17 3.67-4.17 8-.83 17.83-.83 19.83a7.9 7.9 0 0 0 .83 3.5s-3.67-4.83-4.5-8.17-1.83-6.5-1.83-6.5-1 9.17.33 12.33 5.17 13.32 5.17 13.32-5.17-3-5.17-4-2.17-5.33-2.17-5.33 3.17 13 5.67 15.5-8.33-6-8.33-6 6.42 12.42 8.5 14.5 7.67 6.33 7.67 6.33-12.67-5.33-14.5-7.17 3.67 4.83 5.17 6.33a23.75 23.75 0 0 0 2.67 2.33s-9.92-4.58-14-8.67-5.83-8.67-8-12.5-2.5-.67-1.17 3.5-4-6-4-7.5c-2.5 8-1 14.17-2.33 17.67s-3.17 10.33-4.17 13-7.33 10.83-9 12.5-10.83 3.08-15.17 3.08c0 0 10.5-1.75 15.5-14s-1.25-4.5-4.5-1.25 2-6.5 3.25-12.5-1.75-12.25-4.25-19.25c-2.2-6.17-5.76-12.91-6.58-15.8.34 3 1.14 11.17 2.08 13.8 1.25 3.5-7-15.75-7-15.75s-1.5 8.5-1.5 11.75-3.25-6.5-5.25-14a76.34 76.34 0 0 1-2.5-17.75c0-3-.87-6.87-2.5-8.5s-9.75 7-9.75 7 1.75-8.75 1.75-13-4.77-16.25-4.77-16.25-9.87 21.38-10.75 22.25c-5.75-3.5-16.58-11.83-26.75-11.83s-26.5 5.17-34 14.67-14.31 18.83-14.31 32.29 5.5 31.5 6.33 35.17c-2.58 2.58-2.83 9.5-2.83 11.83 2.67-5.17 5-7 5-7s1.67 4.5 3.17 8c-4 2-6.75 2.08-4.33 4.5s9.5 7.17 9.5 7.17 1.75 4.67 2.25 5.92c-4.17-2.58-8.17-5.58-13.5-6.83 1.25 6 2.5 10.75 5.17 13.42s9.25 6.17 10.83 6.17a34.41 34.41 0 0 1 4.42.5s1.58 2.75 1.92 3.08-9.17-.75-11.5-1.83-8.21-6.62-8.92-7.33-3.42 4.46-1.54 8.58 3.19 10.31 5.88 13a16.58 16.58 0 0 1 4.75 8.88c.63 3.25 6.92 23.63-1.58 44.29 0-9.67-.5-15-.5-15s-1.5 10.5-3.83 15.5.17-6 .17-6-3.83 7.67-5.5 11.83-2.5-3.67-2.5-3.67-3.5 12-5 14.83-1.33-4.5-1.33-4.5-2.42 7.75-4 9.33-3.5-2.17-5.5-.17-6.17 8.17-7.83 8.17a10.23 10.23 0 0 0-5.67 2.67c-1.25 1.25-7.17 3-8.83 3s-6.67 1.33-8 2.67-14.67 8-12.67 6-2.75-2.58-4-1.33-12.75 3.92-11.5 2.67c.73-.73-2-2.44-4.33-4-1.67-1.1-3.17-2.12-3.17-2.67a9.51 9.51 0 0 1 2.5-6c1.83-1.83-1.17-2-2-1.17s-.5-4 1.67-6.17 3.83-5.5 0-3.33-.5-1.5-.5-4.17-.17-10-.17-12.83 1.33-10.5 3-14.17 5.67-4 .33-15.33-7.17-16.5-7.17-18.17-3.67-7.17-3.67-8.67 1-5.67-.17-8.5-4.67-10.5-5.5-16.17-3.83-5.33-4.83-10.5-7.5.17-12.83 8.67c7.5-16.5 9.75-17.25 10.83-18.33 0-6.5-.17-11-1.33-14s-.67-13.5-.67-13.5a33.31 33.31 0 0 0-4.17 6.33 48.77 48.77 0 0 0 1.17-14.33s-4.33 9-5.67 10.33-8.17 6.67-12.83 5.83-12.33-8-14-9.67a31.49 31.49 0 0 0 14.84 3.35c2.33 0 6.67-2.67 7.67-5.67s3.5-10 3.5-13.83-.42-11.25-2.83-13.67 16.52-4.33 14.69-4.33-6.67.17-8.83.17a57.31 57.31 0 0 1-12-1.5c-3.33-1-1.75-.75-3.67-2.67 3.67-3.67 3.33-1.5 8-8.67s-.67-4.33-3.83-1.17 4-7.5 5.33-10.17-4.5-6.33-3-9.5 2-14 2-16.17a16.18 16.18 0 0 0-1.5-5.33s-9.68-4.5-12.51-8.67 2-2.83 2-2.83 8.84-4.5 6.68-9.5a65.89 65.89 0 0 1-4-17.33c0-2.67-11.77 6.84-17.4 4.34 9.5-3 7.82-9.09 9.9-11.18s4.5-4.33 4.5-6.67-5.17 1.83-5.17 1.83-1.21-4.32-.21-13.32-13.84-38.68-3.18-49.34S53 115.22 62.87 116c-2.67-14-29.85-30-1-33.83S93.52 92 93.52 92 116 67.55 159 54.22c6.67-10.33 19.83-19.5 34.83-19.5s17.83 8 16.83 11.83c7.5-4.17 14.33-10.67 28.17.67 5.67-1.17 11.25-.92 12.83.67s3-1.5 9.33-3.33 39-13.83 70-5.67 19.17 22.17 19.17 22.17 13 5.33 11.83 14c6.5 2.17 21.17 6.67 25.67 6s34.67-7.33 43.33-12c-16 10.17-25.5 13.5-34.5 16 1.17 1.17 4.5 1.83 6.5 1.83s3.42 1.25 5 2.83 7.17 1.67 8.5 3 11.36 2.1 15.7 3.27c4.56 1.23 11.19 8.15 15.3 12.88a3.55 3.55 0 0 0 6-1c2-4.81 4.8-10.88 5.54-9.77 3 4.5 8.5 22.75 10 34.25 1.48 11.31-1.81 32.39-6.87 49.15a13.23 13.23 0 0 1-.62 1.66 72.52 72.52 0 0 1-6.54 11.59l-1.89-1.27a4.72 4.72 0 0 1-1.68-2.18z" stroke="#000" stroke-miterlimit="10" stroke-width="2"/><path d="M470.13 406.51a70.11 70.11 0 0 0-8.52 2.56c-.45.27-2.56 1.28-4.62 2.31-2.48 1.23-11 2.08-10.81 2.63s7.8.24 10.84-.62c2.79-.79 6.78-2 8.45-2.46a31.65 31.65 0 0 1 9-1c1.33.08 5.17.67 5-1.75s-4.42-2-6.25-1.92-3.09.25-3.09.25z" fill="#000102" stroke="#000" stroke-miterlimit="10" stroke-width=".5"/><path d="M421.18 317.39c1.18-.89 5.88-3.76 7.54-4.86s7.07-4.14 8.31-3.55c1.52.73 2.41 9.85 1.43 13.2a37.16 37.16 0 0 1-2.74 6.41s-2.93 4.86-4.84 3.87c-2.46-1.27-14.25-10-14.27-11.25s3.39-3 4.57-3.82z" fill="#fff" stroke="#000" stroke-miterlimit="10"/><path d="M420 326.12l1.24.67 3.49 2.32 4.22 3.36a14.13 14.13 0 0 0 3.13 1.81 4.32 4.32 0 0 0 1.63-.53l1.57-2.81a38 38 0 0 1 4.31 3.91 38.75 38.75 0 0 1 3.55 4.6 44.14 44.14 0 0 0-4.26-3.64 9 9 0 0 0-4.2-1.36 12.5 12.5 0 0 1 5 5 19.11 19.11 0 0 0-2.89-2.13 26.48 26.48 0 0 0-3.69-1.72 10.23 10.23 0 0 1 2.1 2.54 24.46 24.46 0 0 1 1.79 4.3 32.58 32.58 0 0 0-2.63-4.17 16.92 16.92 0 0 0-2.7-2.73s.07 1.08.06 2.27a34.6 34.6 0 0 0 .27 3.67 32.79 32.79 0 0 1-1.19-4.1 20.77 20.77 0 0 0-.7-2.75 3.65 3.65 0 0 0-1.46 1.65 17.3 17.3 0 0 0-1.21 3.32 19.47 19.47 0 0 1-.31-4 11.11 11.11 0 0 1 .65-3.24 2.61 2.61 0 0 0-1.31.77 2.06 2.06 0 0 0-.39 1.2 8.86 8.86 0 0 1-.58-1.91 5.69 5.69 0 0 1 0-1.72l-1.53.74a4.53 4.53 0 0 0-1.57 1.45 6.92 6.92 0 0 1 .53-2.25l.87-1.68-2 1.76a16.63 16.63 0 0 0-2.21 2.59s.38-2.11.79-3.5l.64-2.14-1.28 1.17a4.64 4.64 0 0 0-.85 1.73 22.37 22.37 0 0 1 .3-2.66l.27-1.14z"/><path d="M435.27 329.55c.16.59-.64 3.31-1.68 4a3.75 3.75 0 0 1-3.43 0c-.62-.44-13.67-11.06-13.67-11.06" fill="none" stroke="#000" stroke-miterlimit="10"/><path d="M427.35 312.39c6.94-3.54 14.71-6.52 14.71-6.52s2.67.38 5 .57a37.81 37.81 0 0 1 4.39.87 7.11 7.11 0 0 0-2.71 0l-4 .78 3.85.21a16 16 0 0 1 3.41.7 18.62 18.62 0 0 0-4-.1l-3.92.45 3.71.73a13.68 13.68 0 0 1 3.78 1.56 13.3 13.3 0 0 0-3.75-.29l-2.51.38 2.74.42a12.3 12.3 0 0 1 2.94 1.29s-5-.44-7-.66c-.93-.1-8.07-.49-8.07-.49l4.73 2.92a38.47 38.47 0 0 1 5.51 4.37 24.15 24.15 0 0 0-3.59-1.89 19.88 19.88 0 0 1-4.79-2.55s2 2.6 2.88 3.64a11.37 11.37 0 0 1 1.52 2.83 24.37 24.37 0 0 0-5.31-4.9 79 79 0 0 0-7.46-4 59.52 59.52 0 0 1 6.28 5.61 69 69 0 0 1 5.61 6.86s-5.6-4.21-8.31-5.88c-2.34-1.44-7.85-2.81-7.85-2.81a56.21 56.21 0 0 0 6.36 6.17c1.83 1.46 4.86 3.83 4.86 3.83a37.27 37.27 0 0 1-6.5-3.3 49.72 49.72 0 0 1-6.51-5.29s.72 3 1.36 5.22a56.78 56.78 0 0 0 2.28 5.65s-1.84-2.56-3.36-5.2-2.84-5.56-2.84-5.56.31 3.26.73 6a29.85 29.85 0 0 0 1 3.77 24.15 24.15 0 0 1-1.93-4 42.75 42.75 0 0 0-1.7-4.86 24.79 24.79 0 0 0-.94 4.53 34.48 34.48 0 0 0 .3 4.42 20.45 20.45 0 0 1-1.6-4l-.55-2.87a30.16 30.16 0 0 0-.78 3.75c-.14 1-.27 4.41-.27 4.41a21.93 21.93 0 0 1-.92-4.34 15 15 0 0 0-.87-3.67 116.47 116.47 0 0 1 14.09-8.76z" stroke="#000" stroke-miterlimit="10" stroke-width=".25"/><path d="M438.18 321.15c-.24 2.21-3.34 9.68-4.59 9.26s-1-7.9-.77-10.73 2.53-10.08 4.23-9.78 1.37 9 1.13 11.25z"/><path d="M409.62 289c-1.11-.5-2.09-1.07-1.07-1.15s2.14-.15 3.15-.2l1.06-.66c-.79-.59-1.83-1.44-1.34-1.53a34.85 34.85 0 0 1 3.87.21c.75-.3 1.71-.61 2.81-.94l-.14-.07-4-.5a18.54 18.54 0 0 1 4.33-1.1 16.48 16.48 0 0 1 3.62.66l1.47-.34c-.46-.59-.8-1.21-.21-1.21a15.75 15.75 0 0 1 2.75.66l2-.4a4.38 4.38 0 0 1-.81-1.76c.08-.27 3.1.49 5.09 1l1.11-.16c-.83-.89-2.19-2.39-1.66-2.07a40.15 40.15 0 0 0 3.87 1.82c.49 0 .94-.07 1.32-.07h.4c-.53-1-1.32-2.13-.08-1.32.42.28 1.15.84 1.94 1.45a26.83 26.83 0 0 1 3.4.64c-.4-.93-.89-1.69-.47-1.48.24.12 1.45 1.08 2.83 2.15 1.32.41 2.58.86 3.73 1.27-.76-1.38-1.62-2.84-.68-2.23.78.51 2.75 2.24 4.44 3.5 1 .29 2 .54 2.93.76-.17-1.28-2.65-3.59-1.59-2.71.65.54 2.93 2.16 5 3.46l1.15.25c.56.12 1.09.21 1.6.27l-.31-.38c-1.07-1.28-4.06-3.7-3.4-3.31.39.23 3.24 1.91 4.62 2.58.93.45 1.91.9 2.7 1.2a11.31 11.31 0 0 0 1.41-.13c-.88-1.37-4.52-3.52-2-2.8a11.89 11.89 0 0 1 3.93 2.52c1.78-.38 4-1.11 4-1.11s4.67-.72 5.76 6.61-5.8 12.11-5.8 12.11l-2.83.6a3.9 3.9 0 0 1-2.46-.28 43.49 43.49 0 0 1-5-2.61c-1.6-1.11-6.61-5.84-10.8-8s-9.68-3.35-16.8-3.73-16.14.2-21.36 2-6.4 2.7-15.84 7.18c2.4-3.43 8-7.72 12.36-10.65z" stroke="#000" stroke-miterlimit="10" stroke-width=".5"/><path d="M236.55 287.39a149.92 149.92 0 0 0-15.25-13.25c-7-5-13.75-15.17-29.88-16.71s-28.12 8.57-33.87 15.29-21.25 23.16-10.5 53.67 12.25 42.25 27 62.25 36 32.25 49 22.5 10.67-15.08 11-17.08" fill="none" stroke="#000" stroke-miterlimit="10" stroke-width="2"/><path d="M163.52 332.75c-1-5.64-1.79-11.35-2.29-17a66.91 66.91 0 0 1-.23-13c.55-5.12 3.74-9.54 7.1-13.32 8-9 22.43-11.68 32.62-4.45A80.92 80.92 0 0 1 217.11 300c2.07 2.65 3.39-5.41 1.89-7.34-2.61-3.35-6.16-6.2-9.3-9-3.46-3.13-7-6.94-11.4-8.75-12.25-5.06-24.69-1.88-33 8.29-7.28 8.86-8.59 17.94-8 29.07A176.44 176.44 0 0 0 160 335c1 5.63 4.31 1.55 3.61-2.26zm57.78 17.38v-3a8.43 8.43 0 0 0-.28-2.46l-.08-.13a.21.21 0 0 0 0 .14c.12.09-.08 0-.15-.08-.38-.23-.74-.45-1.09-.63a3.27 3.27 0 0 0-1.24-.45s.14-.06.11-.06l-.64.48c-.43.29-.86.57-1.31.83a17.22 17.22 0 0 1-2.84 1.35 8.84 8.84 0 0 1-1.69.44 5 5 0 0 1-1.79-.09 10.5 10.5 0 0 1-3-1.08c1-.35 2-.59 2.88-.88a3.77 3.77 0 0 0 1.1-.47c.29-.19.64-.45 1-.72l2.16-1.7 1.08-.86.52-.41a3.69 3.69 0 0 1 1.41-.71 4.35 4.35 0 0 1 2.57.21 7.49 7.49 0 0 1 1.67.92 10.57 10.57 0 0 1 1.28 1.09 4.3 4.3 0 0 1 .39.41 2.46 2.46 0 0 1 .47.73 3.65 3.65 0 0 1 .27 1.27 7.28 7.28 0 0 1-.94 3.33 10.63 10.63 0 0 1-1.86 2.53zm1.11 22.58c1-.36 2-.63 2.87-.94a8.42 8.42 0 0 0 2.27-1l.1-.11a.21.21 0 0 0-.12.09c-.06.14 0-.09 0-.17.1-.43.21-.84.27-1.23a3.27 3.27 0 0 0 .06-1.32s.1.11.09.08l-.64-.47c-.41-.33-.8-.65-1.18-1a17.22 17.22 0 0 1-2.13-2.31 8.84 8.84 0 0 1-.92-1.48 5 5 0 0 1-.45-1.73 10.5 10.5 0 0 1 .15-3.15c.63.86 1.15 1.72 1.7 2.49a3.77 3.77 0 0 0 .77.92c.27.22.62.48 1 .74l2.26 1.56 1.14.78.55.37a3.69 3.69 0 0 1 1.09 1.13 4.35 4.35 0 0 1 .56 2.51 7.49 7.49 0 0 1-.38 1.86 10.58 10.58 0 0 1-.66 1.54 4.12 4.12 0 0 1-.28.49 2.46 2.46 0 0 1-.56.67 3.65 3.65 0 0 1-1.13.64 7.28 7.28 0 0 1-3.45.09 10.63 10.63 0 0 1-3-1zm-4.86-59.08c-10.46 3.18-23.4 3.22-31.53 11.24-9.73 9.6-3.11 20.58 2.88 30.42 0-.06 1-3.62.29-4.82-2.38-3.91-6.1-8.69-6.9-13.21-.86-4.89 6.27-10.35 10.17-12 8-3.33 16.81-4.14 25.08-6.65 1.11-.34.37-5.11 0-5zm216.5 49.25c-.45 1.48-1 2.93-1.49 4.38a31.54 31.54 0 0 0-1.21 4.28 32.53 32.53 0 0 0-.67 8.66c.12 3.08.12 6.18 0 9.28a70.42 70.42 0 0 1-1 9.35 38.08 38.08 0 0 1-1.19 4.73 25 25 0 0 1-.94 2.39l-.65 1.21c-.21.36-.41.66-.61 1-1.63 2.6-3.31 5.16-5.07 7.68s-3.58 5-5.51 7.39a55.69 55.69 0 0 1-6.28 6.82c1.47-2.71 2.84-5.43 4.22-8.16s2.79-5.42 4.21-8.11 2.88-5.36 4.33-8l.54-1 .4-.82a19.93 19.93 0 0 0 .65-1.89 35.26 35.26 0 0 0 1-4.15c.55-2.86.91-5.82 1.23-8.79s.58-6 .84-9a27.94 27.94 0 0 1 2.26-9.33 26.94 26.94 0 0 1 2.3-4.15c.8-1.26 1.69-2.54 2.64-3.77z"/></svg>