<svg xmlns="http://www.w3.org/2000/svg" viewBox="0 0 200 200"><rect fill="#fff"/><path d="M61.715 67v13h-10v54h-18V80h-10V67zm30.479-1l9.95 67H84l-.855-11h-5.69l-.955 11H58.127l8.885-67zm-9.219 44q-1.33-11.44-2.66-28.28-2.68 19.34-3.36 28.28zm39.74-44v54h11v13h-28V66zm46 29.481a10.42 10.42 0 0 1 5.7 4.22q1.87 2.93 1.87 13.75 0 8-1.83 12.46a13 13 0 0 1-6.32 6.74 25.15 25.15 0 0 1-11.52 2.32q-8 0-12.54-2.68a13 13 0 0 1-6-6.57c-.953-2.593-1.43-7.093-1.36-13.5V107h17v10.94q0 4.37.517 5.55a2.226 2.226 0 0 0 2.3 1.19 2.486 2.486 0 0 0 2.567-1.5q.617-1.5.617-7.82v-4.785a13.559 13.559 0 0 0-.865-5.626 4.3 4.3 0 0 0-2.565-2.336 26.441 26.441 0 0 0-6.571-.636v-9.813q5.988 0 7.385-.459a3.224 3.224 0 0 0 2-2 13.723 13.723 0 0 0 .619-4.81V81.01q0-3.54-.726-4.66a2.493 2.493 0 0 0-2.259-1.12 2.464 2.464 0 0 0-2.378 1.19q-.637 1.19-.637 5.05V87h-18v-5.6c.89-6.433 2.36-10.767 5.3-13s7.607-3.363 14-3.39q12 0 16.3 4.7t4.28 13.05q0 5.65-1.54 8.17a13.75 13.75 0 0 1-5.344 4.551z"/></svg>